<?xml version="1.0" encoding="utf-8" standalone="no"?>
<!DOCTYPE svg PUBLIC "-//W3C//DTD SVG 1.1//EN"
  "http://www.w3.org/Graphics/SVG/1.1/DTD/svg11.dtd">
<svg xmlns:xlink="http://www.w3.org/1999/xlink" width="640.8pt" height="295.2pt" viewBox="0 0 640.8 295.2" xmlns="http://www.w3.org/2000/svg" version="1.1">
 <metadata>
  <rdf:RDF xmlns:dc="http://purl.org/dc/elements/1.1/" xmlns:cc="http://creativecommons.org/ns#" xmlns:rdf="http://www.w3.org/1999/02/22-rdf-syntax-ns#">
   <cc:Work>
    <dc:type rdf:resource="http://purl.org/dc/dcmitype/StillImage"/>
    <dc:date>2026-06-27T00:13:02.590825</dc:date>
    <dc:format>image/svg+xml</dc:format>
    <dc:creator>
     <cc:Agent>
      <dc:title>Matplotlib v3.10.8, https://matplotlib.org/</dc:title>
     </cc:Agent>
    </dc:creator>
   </cc:Work>
  </rdf:RDF>
 </metadata>
 <defs>
  <style type="text/css">*{stroke-linejoin: round; stroke-linecap: butt}</style>
 </defs>
 <g id="figure_1">
  <g id="patch_1">
   <path d="M 0 295.2 
L 640.8 295.2 
L 640.8 0 
L 0 0 
z
" style="fill: #ffffff"/>
  </g>
  <g id="axes_1">
   <g id="text_1">
    <!-- 2016 -->
    <g style="fill: #3b6fb0" transform="translate(58.603486 151.739062) scale(0.15 -0.15)">
     <defs>
      <path id="DejaVuSans-Bold-32" d="M 1844 884 
L 3897 884 
L 3897 0 
L 506 0 
L 506 884 
L 2209 2388 
Q 2438 2594 2547 2791 
Q 2656 2988 2656 3200 
Q 2656 3528 2436 3728 
Q 2216 3928 1850 3928 
Q 1569 3928 1234 3808 
Q 900 3688 519 3450 
L 519 4475 
Q 925 4609 1322 4679 
Q 1719 4750 2100 4750 
Q 2938 4750 3402 4381 
Q 3866 4013 3866 3353 
Q 3866 2972 3669 2642 
Q 3472 2313 2841 1759 
L 1844 884 
z
" transform="scale(0.015625)"/>
      <path id="DejaVuSans-Bold-30" d="M 2944 2338 
Q 2944 3213 2780 3570 
Q 2616 3928 2228 3928 
Q 1841 3928 1675 3570 
Q 1509 3213 1509 2338 
Q 1509 1453 1675 1090 
Q 1841 728 2228 728 
Q 2613 728 2778 1090 
Q 2944 1453 2944 2338 
z
M 4147 2328 
Q 4147 1169 3647 539 
Q 3147 -91 2228 -91 
Q 1306 -91 806 539 
Q 306 1169 306 2328 
Q 306 3491 806 4120 
Q 1306 4750 2228 4750 
Q 3147 4750 3647 4120 
Q 4147 3491 4147 2328 
z
" transform="scale(0.015625)"/>
      <path id="DejaVuSans-Bold-31" d="M 750 831 
L 1813 831 
L 1813 3847 
L 722 3622 
L 722 4441 
L 1806 4666 
L 2950 4666 
L 2950 831 
L 4013 831 
L 4013 0 
L 750 0 
L 750 831 
z
" transform="scale(0.015625)"/>
      <path id="DejaVuSans-Bold-36" d="M 2316 2303 
Q 2000 2303 1842 2098 
Q 1684 1894 1684 1484 
Q 1684 1075 1842 870 
Q 2000 666 2316 666 
Q 2634 666 2792 870 
Q 2950 1075 2950 1484 
Q 2950 1894 2792 2098 
Q 2634 2303 2316 2303 
z
M 3803 4544 
L 3803 3681 
Q 3506 3822 3243 3889 
Q 2981 3956 2731 3956 
Q 2194 3956 1894 3657 
Q 1594 3359 1544 2772 
Q 1750 2925 1990 3001 
Q 2231 3078 2516 3078 
Q 3231 3078 3670 2659 
Q 4109 2241 4109 1563 
Q 4109 813 3618 361 
Q 3128 -91 2303 -91 
Q 1394 -91 895 523 
Q 397 1138 397 2266 
Q 397 3422 980 4083 
Q 1563 4744 2578 4744 
Q 2900 4744 3203 4694 
Q 3506 4644 3803 4544 
z
" transform="scale(0.015625)"/>
     </defs>
     <use xlink:href="#DejaVuSans-Bold-32"/>
     <use xlink:href="#DejaVuSans-Bold-30" transform="translate(69.580078 0)"/>
     <use xlink:href="#DejaVuSans-Bold-31" transform="translate(139.160156 0)"/>
     <use xlink:href="#DejaVuSans-Bold-36" transform="translate(208.740234 0)"/>
    </g>
   </g>
   <g id="text_2">
    <!-- 2017 -->
    <g style="fill: #3b6fb0" transform="translate(179.065024 151.739062) scale(0.15 -0.15)">
     <defs>
      <path id="DejaVuSans-Bold-37" d="M 428 4666 
L 3944 4666 
L 3944 3988 
L 2125 0 
L 953 0 
L 2675 3781 
L 428 3781 
L 428 4666 
z
" transform="scale(0.015625)"/>
     </defs>
     <use xlink:href="#DejaVuSans-Bold-32"/>
     <use xlink:href="#DejaVuSans-Bold-30" transform="translate(69.580078 0)"/>
     <use xlink:href="#DejaVuSans-Bold-31" transform="translate(139.160156 0)"/>
     <use xlink:href="#DejaVuSans-Bold-37" transform="translate(208.740234 0)"/>
    </g>
   </g>
   <g id="text_3">
    <!-- 2018 -->
    <g style="fill: #3b6fb0" transform="translate(299.526562 151.739062) scale(0.15 -0.15)">
     <defs>
      <path id="DejaVuSans-Bold-38" d="M 2228 2088 
Q 1891 2088 1709 1903 
Q 1528 1719 1528 1375 
Q 1528 1031 1709 848 
Q 1891 666 2228 666 
Q 2563 666 2741 848 
Q 2919 1031 2919 1375 
Q 2919 1722 2741 1905 
Q 2563 2088 2228 2088 
z
M 1350 2484 
Q 925 2613 709 2878 
Q 494 3144 494 3541 
Q 494 4131 934 4440 
Q 1375 4750 2228 4750 
Q 3075 4750 3515 4442 
Q 3956 4134 3956 3541 
Q 3956 3144 3739 2878 
Q 3522 2613 3097 2484 
Q 3572 2353 3814 2058 
Q 4056 1763 4056 1313 
Q 4056 619 3595 264 
Q 3134 -91 2228 -91 
Q 1319 -91 855 264 
Q 391 619 391 1313 
Q 391 1763 633 2058 
Q 875 2353 1350 2484 
z
M 1631 3419 
Q 1631 3141 1786 2991 
Q 1941 2841 2228 2841 
Q 2509 2841 2662 2991 
Q 2816 3141 2816 3419 
Q 2816 3697 2662 3845 
Q 2509 3994 2228 3994 
Q 1941 3994 1786 3844 
Q 1631 3694 1631 3419 
z
" transform="scale(0.015625)"/>
     </defs>
     <use xlink:href="#DejaVuSans-Bold-32"/>
     <use xlink:href="#DejaVuSans-Bold-30" transform="translate(69.580078 0)"/>
     <use xlink:href="#DejaVuSans-Bold-31" transform="translate(139.160156 0)"/>
     <use xlink:href="#DejaVuSans-Bold-38" transform="translate(208.740234 0)"/>
    </g>
   </g>
   <g id="text_4">
    <!-- 2019 -->
    <g style="fill: #3b6fb0" transform="translate(419.988101 151.739062) scale(0.15 -0.15)">
     <defs>
      <path id="DejaVuSans-Bold-39" d="M 641 103 
L 641 966 
Q 928 831 1190 764 
Q 1453 697 1709 697 
Q 2247 697 2547 995 
Q 2847 1294 2900 1881 
Q 2688 1725 2447 1647 
Q 2206 1569 1925 1569 
Q 1209 1569 770 1986 
Q 331 2403 331 3084 
Q 331 3838 820 4291 
Q 1309 4744 2131 4744 
Q 3044 4744 3544 4128 
Q 4044 3513 4044 2388 
Q 4044 1231 3459 570 
Q 2875 -91 1856 -91 
Q 1528 -91 1228 -42 
Q 928 6 641 103 
z
M 2125 2350 
Q 2441 2350 2600 2554 
Q 2759 2759 2759 3169 
Q 2759 3575 2600 3781 
Q 2441 3988 2125 3988 
Q 1809 3988 1650 3781 
Q 1491 3575 1491 3169 
Q 1491 2759 1650 2554 
Q 1809 2350 2125 2350 
z
" transform="scale(0.015625)"/>
     </defs>
     <use xlink:href="#DejaVuSans-Bold-32"/>
     <use xlink:href="#DejaVuSans-Bold-30" transform="translate(69.580078 0)"/>
     <use xlink:href="#DejaVuSans-Bold-31" transform="translate(139.160156 0)"/>
     <use xlink:href="#DejaVuSans-Bold-39" transform="translate(208.740234 0)"/>
    </g>
   </g>
   <g id="text_5">
    <!-- 2020 -->
    <g style="fill: #3b6fb0" transform="translate(540.449639 151.739062) scale(0.15 -0.15)">
     <use xlink:href="#DejaVuSans-Bold-32"/>
     <use xlink:href="#DejaVuSans-Bold-30" transform="translate(69.580078 0)"/>
     <use xlink:href="#DejaVuSans-Bold-32" transform="translate(139.160156 0)"/>
     <use xlink:href="#DejaVuSans-Bold-30" transform="translate(208.740234 0)"/>
    </g>
   </g>
   <g id="patch_2">
    <path d="M 80.973134 135.282309 
Q 139.709723 83.732564 196.765753 133.810842 
" style="fill: none; stroke: #3b6fb0; stroke-width: 2; stroke-linecap: round"/>
    <path d="M 195.078787 129.669085 
L 196.765753 133.810842 
L 192.440168 132.675361 
" style="fill: none; stroke: #3b6fb0; stroke-width: 2; stroke-linecap: round"/>
   </g>
   <g id="patch_3">
    <path d="M 80.965782 135.280482 
Q 199.935755 29.530887 317.234426 133.790157 
" style="fill: none; stroke: #3b6fb0; stroke-width: 2; stroke-linecap: round"/>
    <path d="M 315.573394 129.637932 
L 317.234426 133.790157 
L 312.916027 132.627648 
" style="fill: none; stroke: #3b6fb0; stroke-width: 2; stroke-linecap: round"/>
   </g>
   <g id="patch_4">
    <path d="M 80.968539 135.275261 
Q 260.169563 -24.674287 437.702386 133.786861 
" style="fill: none; stroke: #3b6fb0; stroke-width: 2; stroke-linecap: round"/>
    <path d="M 436.050011 129.631183 
L 437.702386 133.786861 
L 433.386419 132.615354 
" style="fill: none; stroke: #3b6fb0; stroke-width: 2; stroke-linecap: round"/>
   </g>
   <g id="patch_5">
    <path d="M 80.965782 135.276341 
Q 320.398635 -78.881542 558.164823 133.783188 
" style="fill: none; stroke: #3b6fb0; stroke-width: 2; stroke-linecap: round"/>
    <path d="M 556.516734 129.625808 
L 558.164823 133.783188 
L 553.850066 132.607231 
" style="fill: none; stroke: #3b6fb0; stroke-width: 2; stroke-linecap: round"/>
   </g>
   <g id="text_6">
    <g id="patch_6">
     <path d="M 232.117969 47.044253 
L 408.682031 47.044253 
Q 414.282031 47.044253 414.282031 41.444253 
L 414.282031 27.894878 
Q 414.282031 22.294878 408.682031 22.294878 
L 232.117969 22.294878 
Q 226.517969 22.294878 226.517969 27.894878 
L 226.517969 41.444253 
Q 226.517969 47.044253 232.117969 47.044253 
z
" style="fill: #274b78"/>
    </g>
    <!-- Базисные показатели -->
    <g style="fill: #ffffff" transform="translate(232.117969 38.53269) scale(0.14 -0.14)">
     <defs>
      <path id="DejaVuSans-Bold-411" d="M 2497 819 
Q 2875 819 3044 959 
Q 3225 1113 3225 1403 
Q 3225 1688 3044 1838 
Q 2878 1978 2497 1978 
L 1791 1978 
L 1791 819 
L 2497 819 
z
M 2584 0 
L 588 0 
L 588 4666 
L 4116 4666 
L 4116 3756 
L 1791 3756 
L 1791 2888 
L 2584 2888 
Q 3469 2888 3972 2522 
Q 4428 2191 4428 1441 
Q 4428 697 3972 366 
Q 3469 0 2584 0 
z
" transform="scale(0.015625)"/>
      <path id="DejaVuSans-Bold-430" d="M 2106 1575 
Q 1756 1575 1579 1456 
Q 1403 1338 1403 1106 
Q 1403 894 1545 773 
Q 1688 653 1941 653 
Q 2256 653 2472 879 
Q 2688 1106 2688 1447 
L 2688 1575 
L 2106 1575 
z
M 3816 1997 
L 3816 0 
L 2688 0 
L 2688 519 
Q 2463 200 2181 54 
Q 1900 -91 1497 -91 
Q 953 -91 614 226 
Q 275 544 275 1050 
Q 275 1666 698 1953 
Q 1122 2241 2028 2241 
L 2688 2241 
L 2688 2328 
Q 2688 2594 2478 2717 
Q 2269 2841 1825 2841 
Q 1466 2841 1156 2769 
Q 847 2697 581 2553 
L 581 3406 
Q 941 3494 1303 3539 
Q 1666 3584 2028 3584 
Q 2975 3584 3395 3211 
Q 3816 2838 3816 1997 
z
" transform="scale(0.015625)"/>
      <path id="DejaVuSans-Bold-437" d="M 900 2181 
L 1413 2181 
Q 1872 2181 2039 2281 
Q 2206 2381 2206 2519 
Q 2206 2841 1469 2841 
Q 853 2841 472 2625 
L 472 3434 
Q 1041 3584 1713 3584 
Q 2500 3584 2862 3361 
Q 3225 3138 3225 2666 
Q 3225 2047 2541 1888 
Q 3313 1697 3313 994 
Q 3313 453 2888 181 
Q 2463 -91 1553 -91 
Q 875 -91 313 84 
L 313 947 
Q 1013 653 1428 653 
Q 1884 653 2089 776 
Q 2294 900 2294 1056 
Q 2294 1491 1394 1491 
L 900 1491 
L 900 2181 
z
" transform="scale(0.015625)"/>
      <path id="DejaVuSans-Bold-438" d="M 3947 3500 
L 3947 0 
L 2828 0 
L 2828 1863 
L 1700 0 
L 538 0 
L 538 3500 
L 1656 3500 
L 1656 1638 
L 2784 3500 
L 3947 3500 
z
" transform="scale(0.015625)"/>
      <path id="DejaVuSans-Bold-441" d="M 3366 3391 
L 3366 2478 
Q 3138 2634 2908 2709 
Q 2678 2784 2431 2784 
Q 1963 2784 1702 2511 
Q 1441 2238 1441 1747 
Q 1441 1256 1702 982 
Q 1963 709 2431 709 
Q 2694 709 2930 787 
Q 3166 866 3366 1019 
L 3366 103 
Q 3103 6 2833 -42 
Q 2563 -91 2291 -91 
Q 1344 -91 809 395 
Q 275 881 275 1747 
Q 275 2613 809 3098 
Q 1344 3584 2291 3584 
Q 2566 3584 2833 3536 
Q 3100 3488 3366 3391 
z
" transform="scale(0.015625)"/>
      <path id="DejaVuSans-Bold-43d" d="M 538 3500 
L 1656 3500 
L 1656 2169 
L 2766 2169 
L 2766 3500 
L 3884 3500 
L 3884 0 
L 2766 0 
L 2766 1478 
L 1656 1478 
L 1656 0 
L 538 0 
L 538 3500 
z
" transform="scale(0.015625)"/>
      <path id="DejaVuSans-Bold-44b" d="M 4150 3500 
L 5269 3500 
L 5269 0 
L 4150 0 
L 4150 3500 
z
M 2719 1094 
Q 2719 1291 2594 1388 
Q 2472 1481 2222 1481 
L 1656 1481 
L 1656 700 
L 2222 700 
Q 2469 700 2594 800 
Q 2719 897 2719 1094 
z
M 538 3500 
L 1656 3500 
L 1656 2172 
L 2291 2172 
Q 3000 2172 3381 1913 
Q 3766 1650 3766 1081 
Q 3766 513 3381 256 
Q 3000 0 2291 0 
L 538 0 
L 538 3500 
z
" transform="scale(0.015625)"/>
      <path id="DejaVuSans-Bold-435" d="M 4031 1759 
L 4031 1441 
L 1416 1441 
Q 1456 1047 1700 850 
Q 1944 653 2381 653 
Q 2734 653 3104 758 
Q 3475 863 3866 1075 
L 3866 213 
Q 3469 63 3072 -14 
Q 2675 -91 2278 -91 
Q 1328 -91 801 392 
Q 275 875 275 1747 
Q 275 2603 792 3093 
Q 1309 3584 2216 3584 
Q 3041 3584 3536 3087 
Q 4031 2591 4031 1759 
z
M 2881 2131 
Q 2881 2450 2695 2645 
Q 2509 2841 2209 2841 
Q 1884 2841 1681 2658 
Q 1478 2475 1428 2131 
L 2881 2131 
z
" transform="scale(0.015625)"/>
      <path id="DejaVuSans-Bold-20" transform="scale(0.015625)"/>
      <path id="DejaVuSans-Bold-43f" d="M 3884 3500 
L 3884 0 
L 2766 0 
L 2766 2700 
L 1656 2700 
L 1656 0 
L 538 0 
L 538 3500 
L 3884 3500 
z
" transform="scale(0.015625)"/>
      <path id="DejaVuSans-Bold-43e" d="M 2203 2784 
Q 1831 2784 1636 2517 
Q 1441 2250 1441 1747 
Q 1441 1244 1636 976 
Q 1831 709 2203 709 
Q 2569 709 2762 976 
Q 2956 1244 2956 1747 
Q 2956 2250 2762 2517 
Q 2569 2784 2203 2784 
z
M 2203 3584 
Q 3106 3584 3614 3096 
Q 4122 2609 4122 1747 
Q 4122 884 3614 396 
Q 3106 -91 2203 -91 
Q 1297 -91 786 396 
Q 275 884 275 1747 
Q 275 2609 786 3096 
Q 1297 3584 2203 3584 
z
" transform="scale(0.015625)"/>
      <path id="DejaVuSans-Bold-43a" d="M 538 3500 
L 1656 3500 
L 1656 2316 
L 2903 3500 
L 4128 3500 
L 2634 2078 
L 4250 0 
L 3094 0 
L 1972 1447 
L 1656 1147 
L 1656 0 
L 538 0 
L 538 3500 
z
" transform="scale(0.015625)"/>
      <path id="DejaVuSans-Bold-442" d="M 25 3500 
L 3681 3500 
L 3681 2809 
L 2413 2809 
L 2413 0 
L 1297 0 
L 1297 2809 
L 25 2809 
L 25 3500 
z
" transform="scale(0.015625)"/>
      <path id="DejaVuSans-Bold-43b" d="M 353 0 
L 353 800 
Q 906 913 1031 1278 
Q 1125 1556 1125 2928 
L 1125 3500 
L 4150 3500 
L 4150 0 
L 3031 0 
L 3031 2700 
L 2244 2700 
L 2244 2584 
Q 2244 1213 2028 813 
Q 1591 0 353 0 
z
" transform="scale(0.015625)"/>
     </defs>
     <use xlink:href="#DejaVuSans-Bold-411"/>
     <use xlink:href="#DejaVuSans-Bold-430" transform="translate(76.220703 0)"/>
     <use xlink:href="#DejaVuSans-Bold-437" transform="translate(143.701172 0)"/>
     <use xlink:href="#DejaVuSans-Bold-438" transform="translate(201.806641 0)"/>
     <use xlink:href="#DejaVuSans-Bold-441" transform="translate(271.875 0)"/>
     <use xlink:href="#DejaVuSans-Bold-43d" transform="translate(331.152344 0)"/>
     <use xlink:href="#DejaVuSans-Bold-44b" transform="translate(400.244141 0)"/>
     <use xlink:href="#DejaVuSans-Bold-435" transform="translate(490.673828 0)"/>
     <use xlink:href="#DejaVuSans-Bold-20" transform="translate(558.496094 0)"/>
     <use xlink:href="#DejaVuSans-Bold-43f" transform="translate(593.310547 0)"/>
     <use xlink:href="#DejaVuSans-Bold-43e" transform="translate(662.402344 0)"/>
     <use xlink:href="#DejaVuSans-Bold-43a" transform="translate(731.103516 0)"/>
     <use xlink:href="#DejaVuSans-Bold-430" transform="translate(798.974609 0)"/>
     <use xlink:href="#DejaVuSans-Bold-437" transform="translate(866.455078 0)"/>
     <use xlink:href="#DejaVuSans-Bold-430" transform="translate(924.560547 0)"/>
     <use xlink:href="#DejaVuSans-Bold-442" transform="translate(992.041016 0)"/>
     <use xlink:href="#DejaVuSans-Bold-435" transform="translate(1050 0)"/>
     <use xlink:href="#DejaVuSans-Bold-43b" transform="translate(1117.822266 0)"/>
     <use xlink:href="#DejaVuSans-Bold-438" transform="translate(1191.064453 0)"/>
    </g>
   </g>
   <g id="patch_7">
    <path d="M 80.831601 160.061214 
Q 139.70804 223.368658 197.061691 161.697878 
" style="fill: none; stroke: #3b6fb0; stroke-width: 2; stroke-linecap: round"/>
    <path d="M 192.873099 163.264946 
L 197.061691 161.697878 
L 195.80219 165.988992 
" style="fill: none; stroke: #3b6fb0; stroke-width: 2; stroke-linecap: round"/>
   </g>
   <g id="patch_8">
    <path d="M 201.293139 160.061214 
Q 260.169578 223.368658 317.523229 161.697878 
" style="fill: none; stroke: #3b6fb0; stroke-width: 2; stroke-linecap: round"/>
    <path d="M 313.334638 163.264946 
L 317.523229 161.697878 
L 316.263728 165.988992 
" style="fill: none; stroke: #3b6fb0; stroke-width: 2; stroke-linecap: round"/>
   </g>
   <g id="patch_9">
    <path d="M 321.754678 160.061214 
Q 380.631117 223.368658 437.984768 161.697878 
" style="fill: none; stroke: #3b6fb0; stroke-width: 2; stroke-linecap: round"/>
    <path d="M 433.796176 163.264946 
L 437.984768 161.697878 
L 436.725267 165.988992 
" style="fill: none; stroke: #3b6fb0; stroke-width: 2; stroke-linecap: round"/>
   </g>
   <g id="patch_10">
    <path d="M 442.216216 160.061214 
Q 501.092655 223.368658 558.446306 161.697878 
" style="fill: none; stroke: #3b6fb0; stroke-width: 2; stroke-linecap: round"/>
    <path d="M 554.257715 163.264946 
L 558.446306 161.697878 
L 557.186805 165.988992 
" style="fill: none; stroke: #3b6fb0; stroke-width: 2; stroke-linecap: round"/>
   </g>
   <g id="text_7">
    <g id="patch_11">
     <path d="M 239.219687 272.905122 
L 401.580312 272.905122 
Q 407.180313 272.905122 407.180313 267.305122 
L 407.180313 253.755747 
Q 407.180313 248.155747 401.580312 248.155747 
L 239.219687 248.155747 
Q 233.619687 248.155747 233.619687 253.755747 
L 233.619687 267.305122 
Q 233.619687 272.905122 239.219687 272.905122 
z
" style="fill: #274b78"/>
    </g>
    <!-- Цепные показатели -->
    <g style="fill: #ffffff" transform="translate(239.219687 264.39356) scale(0.14 -0.14)">
     <defs>
      <path id="DejaVuSans-Bold-426" d="M 4644 0 
L 588 0 
L 588 4666 
L 1791 4666 
L 1791 909 
L 3566 909 
L 3566 4666 
L 4769 4666 
L 4769 909 
L 5553 909 
L 5553 -1003 
L 4644 -1003 
L 4644 0 
z
" transform="scale(0.015625)"/>
     </defs>
     <use xlink:href="#DejaVuSans-Bold-426"/>
     <use xlink:href="#DejaVuSans-Bold-435" transform="translate(92.773438 0)"/>
     <use xlink:href="#DejaVuSans-Bold-43f" transform="translate(160.595703 0)"/>
     <use xlink:href="#DejaVuSans-Bold-43d" transform="translate(229.6875 0)"/>
     <use xlink:href="#DejaVuSans-Bold-44b" transform="translate(298.779297 0)"/>
     <use xlink:href="#DejaVuSans-Bold-435" transform="translate(389.208984 0)"/>
     <use xlink:href="#DejaVuSans-Bold-20" transform="translate(457.03125 0)"/>
     <use xlink:href="#DejaVuSans-Bold-43f" transform="translate(491.845703 0)"/>
     <use xlink:href="#DejaVuSans-Bold-43e" transform="translate(560.9375 0)"/>
     <use xlink:href="#DejaVuSans-Bold-43a" transform="translate(629.638672 0)"/>
     <use xlink:href="#DejaVuSans-Bold-430" transform="translate(697.509766 0)"/>
     <use xlink:href="#DejaVuSans-Bold-437" transform="translate(764.990234 0)"/>
     <use xlink:href="#DejaVuSans-Bold-430" transform="translate(823.095703 0)"/>
     <use xlink:href="#DejaVuSans-Bold-442" transform="translate(890.576172 0)"/>
     <use xlink:href="#DejaVuSans-Bold-435" transform="translate(948.535156 0)"/>
     <use xlink:href="#DejaVuSans-Bold-43b" transform="translate(1016.357422 0)"/>
     <use xlink:href="#DejaVuSans-Bold-438" transform="translate(1089.599609 0)"/>
    </g>
   </g>
  </g>
 </g>
</svg>
