<?xml version="1.0" encoding="utf-8" standalone="no"?>
<!DOCTYPE svg PUBLIC "-//W3C//DTD SVG 1.1//EN"
  "http://www.w3.org/Graphics/SVG/1.1/DTD/svg11.dtd">
<svg xmlns:xlink="http://www.w3.org/1999/xlink" width="518.116744pt" height="324pt" viewBox="0 0 518.116744 324" xmlns="http://www.w3.org/2000/svg" version="1.1">
 <metadata>
  <rdf:RDF xmlns:dc="http://purl.org/dc/elements/1.1/" xmlns:cc="http://creativecommons.org/ns#" xmlns:rdf="http://www.w3.org/1999/02/22-rdf-syntax-ns#">
   <cc:Work>
    <dc:type rdf:resource="http://purl.org/dc/dcmitype/StillImage"/>
    <dc:date>2026-06-27T00:30:31.358930</dc:date>
    <dc:format>image/svg+xml</dc:format>
    <dc:creator>
     <cc:Agent>
      <dc:title>Matplotlib v3.10.8, https://matplotlib.org/</dc:title>
     </cc:Agent>
    </dc:creator>
   </cc:Work>
  </rdf:RDF>
 </metadata>
 <defs>
  <style type="text/css">*{stroke-linejoin: round; stroke-linecap: butt}</style>
 </defs>
 <g id="figure_1">
  <g id="patch_1">
   <path d="M 0 324 
L 518.116744 324 
L 518.116744 0 
L 0 0 
z
" style="fill: #ffffff"/>
  </g>
  <g id="axes_1">
   <g id="patch_2">
    <path d="M 7.2 316.8 
L 510.916744 316.8 
L 510.916744 7.2 
L 7.2 7.2 
z
" style="fill: #ffffff"/>
   </g>
   <g id="matplotlib.axis_1"/>
   <g id="matplotlib.axis_2"/>
   <g id="patch_3">
    <path d="M 54.057372 316.8 
L 171.2008 316.8 
L 171.2008 58.8 
L 54.057372 187.8 
z
" clip-path="url(#pfd456b450a)" style="fill: #d98a8a; opacity: 0.85; stroke: #444444; stroke-width: 1.2; stroke-linejoin: miter"/>
   </g>
   <g id="patch_4">
    <path d="M 171.2008 316.8 
L 288.344229 316.8 
L 288.344229 209.3 
L 171.2008 58.8 
z
" clip-path="url(#pfd456b450a)" style="fill: #e8c06a; opacity: 0.85; stroke: #444444; stroke-width: 1.2; stroke-linejoin: miter"/>
   </g>
   <g id="patch_5">
    <path d="M 288.344229 316.8 
L 405.487658 316.8 
L 405.487658 144.8 
L 288.344229 209.3 
z
" clip-path="url(#pfd456b450a)" style="fill: #e8812e; opacity: 0.85; stroke: #444444; stroke-width: 1.2; stroke-linejoin: miter"/>
   </g>
   <g id="line2d_1">
    <path d="M 7.2 316.8 
L 510.916744 316.8 
" clip-path="url(#pfd456b450a)" style="fill: none; stroke: #444444; stroke-width: 1.2; stroke-linecap: square"/>
   </g>
   <g id="patch_6">
    <path d="M 7.2 316.8 
L 510.916744 316.8 
" style="fill: none; stroke: #000000; stroke-width: 0.8; stroke-linejoin: miter; stroke-linecap: square"/>
   </g>
   <g id="text_1">
    <!--   среднее = 4.0 -->
    <g style="fill: #c0392b" transform="translate(411.34483 147.835312) scale(0.11 -0.11)">
     <defs>
      <path id="DejaVuSans-Bold-20" transform="scale(0.015625)"/>
      <path id="DejaVuSans-Bold-441" d="M 3366 3391 
L 3366 2478 
Q 3138 2634 2908 2709 
Q 2678 2784 2431 2784 
Q 1963 2784 1702 2511 
Q 1441 2238 1441 1747 
Q 1441 1256 1702 982 
Q 1963 709 2431 709 
Q 2694 709 2930 787 
Q 3166 866 3366 1019 
L 3366 103 
Q 3103 6 2833 -42 
Q 2563 -91 2291 -91 
Q 1344 -91 809 395 
Q 275 881 275 1747 
Q 275 2613 809 3098 
Q 1344 3584 2291 3584 
Q 2566 3584 2833 3536 
Q 3100 3488 3366 3391 
z
" transform="scale(0.015625)"/>
      <path id="DejaVuSans-Bold-440" d="M 1656 506 
L 1656 -1331 
L 538 -1331 
L 538 3500 
L 1656 3500 
L 1656 2988 
Q 1888 3294 2169 3439 
Q 2450 3584 2816 3584 
Q 3463 3584 3878 3070 
Q 4294 2556 4294 1747 
Q 4294 938 3878 423 
Q 3463 -91 2816 -91 
Q 2450 -91 2169 54 
Q 1888 200 1656 506 
z
M 2400 2772 
Q 2041 2772 1848 2508 
Q 1656 2244 1656 1747 
Q 1656 1250 1848 986 
Q 2041 722 2400 722 
Q 2759 722 2948 984 
Q 3138 1247 3138 1747 
Q 3138 2247 2948 2509 
Q 2759 2772 2400 2772 
z
" transform="scale(0.015625)"/>
      <path id="DejaVuSans-Bold-435" d="M 4031 1759 
L 4031 1441 
L 1416 1441 
Q 1456 1047 1700 850 
Q 1944 653 2381 653 
Q 2734 653 3104 758 
Q 3475 863 3866 1075 
L 3866 213 
Q 3469 63 3072 -14 
Q 2675 -91 2278 -91 
Q 1328 -91 801 392 
Q 275 875 275 1747 
Q 275 2603 792 3093 
Q 1309 3584 2216 3584 
Q 3041 3584 3536 3087 
Q 4031 2591 4031 1759 
z
M 2881 2131 
Q 2881 2450 2695 2645 
Q 2509 2841 2209 2841 
Q 1884 2841 1681 2658 
Q 1478 2475 1428 2131 
L 2881 2131 
z
" transform="scale(0.015625)"/>
      <path id="DejaVuSans-Bold-434" d="M 547 800 
Q 903 919 1053 1314 
Q 1203 1709 1203 2838 
L 1203 3500 
L 4228 3500 
L 4228 800 
L 4809 800 
L 4809 -884 
L 4009 -884 
L 4009 0 
L 1159 0 
L 1159 -884 
L 359 -884 
L 359 800 
L 547 800 
z
M 3109 2700 
L 2322 2700 
L 2322 2603 
Q 2322 1456 2063 800 
L 3109 800 
L 3109 2700 
z
" transform="scale(0.015625)"/>
      <path id="DejaVuSans-Bold-43d" d="M 538 3500 
L 1656 3500 
L 1656 2169 
L 2766 2169 
L 2766 3500 
L 3884 3500 
L 3884 0 
L 2766 0 
L 2766 1478 
L 1656 1478 
L 1656 0 
L 538 0 
L 538 3500 
z
" transform="scale(0.015625)"/>
      <path id="DejaVuSans-Bold-3d" d="M 678 3084 
L 4684 3084 
L 4684 2350 
L 678 2350 
L 678 3084 
z
M 678 1663 
L 4684 1663 
L 4684 922 
L 678 922 
L 678 1663 
z
" transform="scale(0.015625)"/>
      <path id="DejaVuSans-Bold-34" d="M 2356 3675 
L 1038 1722 
L 2356 1722 
L 2356 3675 
z
M 2156 4666 
L 3494 4666 
L 3494 1722 
L 4159 1722 
L 4159 850 
L 3494 850 
L 3494 0 
L 2356 0 
L 2356 850 
L 288 850 
L 288 1881 
L 2156 4666 
z
" transform="scale(0.015625)"/>
      <path id="DejaVuSans-Bold-2e" d="M 653 1209 
L 1778 1209 
L 1778 0 
L 653 0 
L 653 1209 
z
" transform="scale(0.015625)"/>
      <path id="DejaVuSans-Bold-30" d="M 2944 2338 
Q 2944 3213 2780 3570 
Q 2616 3928 2228 3928 
Q 1841 3928 1675 3570 
Q 1509 3213 1509 2338 
Q 1509 1453 1675 1090 
Q 1841 728 2228 728 
Q 2613 728 2778 1090 
Q 2944 1453 2944 2338 
z
M 4147 2328 
Q 4147 1169 3647 539 
Q 3147 -91 2228 -91 
Q 1306 -91 806 539 
Q 306 1169 306 2328 
Q 306 3491 806 4120 
Q 1306 4750 2228 4750 
Q 3147 4750 3647 4120 
Q 4147 3491 4147 2328 
z
" transform="scale(0.015625)"/>
     </defs>
     <use xlink:href="#DejaVuSans-Bold-20"/>
     <use xlink:href="#DejaVuSans-Bold-20" transform="translate(34.814453 0)"/>
     <use xlink:href="#DejaVuSans-Bold-441" transform="translate(69.628906 0)"/>
     <use xlink:href="#DejaVuSans-Bold-440" transform="translate(128.90625 0)"/>
     <use xlink:href="#DejaVuSans-Bold-435" transform="translate(200.488281 0)"/>
     <use xlink:href="#DejaVuSans-Bold-434" transform="translate(268.310547 0)"/>
     <use xlink:href="#DejaVuSans-Bold-43d" transform="translate(349.072266 0)"/>
     <use xlink:href="#DejaVuSans-Bold-435" transform="translate(418.164062 0)"/>
     <use xlink:href="#DejaVuSans-Bold-435" transform="translate(485.986328 0)"/>
     <use xlink:href="#DejaVuSans-Bold-20" transform="translate(553.808594 0)"/>
     <use xlink:href="#DejaVuSans-Bold-3d" transform="translate(588.623047 0)"/>
     <use xlink:href="#DejaVuSans-Bold-20" transform="translate(672.412109 0)"/>
     <use xlink:href="#DejaVuSans-Bold-34" transform="translate(707.226562 0)"/>
     <use xlink:href="#DejaVuSans-Bold-2e" transform="translate(776.806641 0)"/>
     <use xlink:href="#DejaVuSans-Bold-30" transform="translate(814.794922 0)"/>
    </g>
   </g>
   <g id="text_2">
    <!-- $X_1$ -->
    <g style="fill: #274b78" transform="translate(45.937372 174.138437) scale(0.14 -0.14)">
     <defs>
      <path id="DejaVuSans-Oblique-58" d="M 878 4666 
L 1516 4666 
L 2316 2981 
L 3763 4666 
L 4500 4666 
L 2578 2438 
L 3738 0 
L 3103 0 
L 2163 1966 
L 459 0 
L -275 0 
L 1906 2509 
L 878 4666 
z
" transform="scale(0.015625)"/>
      <path id="DejaVuSans-31" d="M 794 531 
L 1825 531 
L 1825 4091 
L 703 3866 
L 703 4441 
L 1819 4666 
L 2450 4666 
L 2450 531 
L 3481 531 
L 3481 0 
L 794 0 
L 794 531 
z
" transform="scale(0.015625)"/>
     </defs>
     <use xlink:href="#DejaVuSans-Oblique-58" transform="translate(0 0.09375)"/>
     <use xlink:href="#DejaVuSans-31" transform="translate(68.505859 -16.3125) scale(0.7)"/>
    </g>
   </g>
   <g id="text_3">
    <!-- $X_2$ -->
    <g style="fill: #274b78" transform="translate(163.0808 45.138438) scale(0.14 -0.14)">
     <defs>
      <path id="DejaVuSans-32" d="M 1228 531 
L 3431 531 
L 3431 0 
L 469 0 
L 469 531 
Q 828 903 1448 1529 
Q 2069 2156 2228 2338 
Q 2531 2678 2651 2914 
Q 2772 3150 2772 3378 
Q 2772 3750 2511 3984 
Q 2250 4219 1831 4219 
Q 1534 4219 1204 4116 
Q 875 4013 500 3803 
L 500 4441 
Q 881 4594 1212 4672 
Q 1544 4750 1819 4750 
Q 2544 4750 2975 4387 
Q 3406 4025 3406 3419 
Q 3406 3131 3298 2873 
Q 3191 2616 2906 2266 
Q 2828 2175 2409 1742 
Q 1991 1309 1228 531 
z
" transform="scale(0.015625)"/>
     </defs>
     <use xlink:href="#DejaVuSans-Oblique-58" transform="translate(0 0.09375)"/>
     <use xlink:href="#DejaVuSans-32" transform="translate(68.505859 -16.3125) scale(0.7)"/>
    </g>
   </g>
   <g id="text_4">
    <!-- $X_3$ -->
    <g style="fill: #274b78" transform="translate(280.224229 195.638437) scale(0.14 -0.14)">
     <defs>
      <path id="DejaVuSans-33" d="M 2597 2516 
Q 3050 2419 3304 2112 
Q 3559 1806 3559 1356 
Q 3559 666 3084 287 
Q 2609 -91 1734 -91 
Q 1441 -91 1130 -33 
Q 819 25 488 141 
L 488 750 
Q 750 597 1062 519 
Q 1375 441 1716 441 
Q 2309 441 2620 675 
Q 2931 909 2931 1356 
Q 2931 1769 2642 2001 
Q 2353 2234 1838 2234 
L 1294 2234 
L 1294 2753 
L 1863 2753 
Q 2328 2753 2575 2939 
Q 2822 3125 2822 3475 
Q 2822 3834 2567 4026 
Q 2313 4219 1838 4219 
Q 1578 4219 1281 4162 
Q 984 4106 628 3988 
L 628 4550 
Q 988 4650 1302 4700 
Q 1616 4750 1894 4750 
Q 2613 4750 3031 4423 
Q 3450 4097 3450 3541 
Q 3450 3153 3228 2886 
Q 3006 2619 2597 2516 
z
" transform="scale(0.015625)"/>
     </defs>
     <use xlink:href="#DejaVuSans-Oblique-58" transform="translate(0 0.09375)"/>
     <use xlink:href="#DejaVuSans-33" transform="translate(68.505859 -16.3125) scale(0.7)"/>
    </g>
   </g>
   <g id="text_5">
    <!-- $X_4$ -->
    <g style="fill: #274b78" transform="translate(397.367658 131.138437) scale(0.14 -0.14)">
     <defs>
      <path id="DejaVuSans-34" d="M 2419 4116 
L 825 1625 
L 2419 1625 
L 2419 4116 
z
M 2253 4666 
L 3047 4666 
L 3047 1625 
L 3713 1625 
L 3713 1100 
L 3047 1100 
L 3047 0 
L 2419 0 
L 2419 1100 
L 313 1100 
L 313 1709 
L 2253 4666 
z
" transform="scale(0.015625)"/>
     </defs>
     <use xlink:href="#DejaVuSans-Oblique-58" transform="translate(0 0.09375)"/>
     <use xlink:href="#DejaVuSans-34" transform="translate(68.505859 -16.3125) scale(0.7)"/>
    </g>
   </g>
   <g id="line2d_2">
    <path d="M 54.057372 187.8 
L 171.2008 58.8 
L 288.344229 209.3 
L 405.487658 144.8 
" clip-path="url(#pfd456b450a)" style="fill: none; stroke: #274b78; stroke-width: 2.5; stroke-linecap: square"/>
    <defs>
     <path id="m531dc23460" d="M 0 3.5 
C 0.928211 3.5 1.81853 3.131218 2.474874 2.474874 
C 3.131218 1.81853 3.5 0.928211 3.5 0 
C 3.5 -0.928211 3.131218 -1.81853 2.474874 -2.474874 
C 1.81853 -3.131218 0.928211 -3.5 0 -3.5 
C -0.928211 -3.5 -1.81853 -3.131218 -2.474874 -2.474874 
C -3.131218 -1.81853 -3.5 -0.928211 -3.5 0 
C -3.5 0.928211 -3.131218 1.81853 -2.474874 2.474874 
C -1.81853 3.131218 -0.928211 3.5 0 3.5 
z
" style="stroke: #274b78"/>
    </defs>
    <g clip-path="url(#pfd456b450a)">
     <use xlink:href="#m531dc23460" x="54.057372" y="187.8" style="fill: #274b78; stroke: #274b78"/>
     <use xlink:href="#m531dc23460" x="171.2008" y="58.8" style="fill: #274b78; stroke: #274b78"/>
     <use xlink:href="#m531dc23460" x="288.344229" y="209.3" style="fill: #274b78; stroke: #274b78"/>
     <use xlink:href="#m531dc23460" x="405.487658" y="144.8" style="fill: #274b78; stroke: #274b78"/>
    </g>
   </g>
   <g id="line2d_3">
    <path d="M 54.057372 144.8 
L 405.487658 144.8 
" clip-path="url(#pfd456b450a)" style="fill: none; stroke-dasharray: 7.4,3.2; stroke-dashoffset: 0; stroke: #c0392b; stroke-width: 2"/>
   </g>
  </g>
 </g>
 <defs>
  <clipPath id="pfd456b450a">
   <rect x="7.2" y="7.2" width="503.716744" height="309.6"/>
  </clipPath>
 </defs>
</svg>
