<svg xmlns="http://www.w3.org/2000/svg" width="640" height="210" viewBox="0 0 640 210" font-family="-apple-system, Segoe UI, Helvetica, Arial, sans-serif">
  <defs>
    <marker id="ciArrow" markerWidth="12" markerHeight="12" refX="9" refY="5" orient="auto">
      <path d="M0,0 L10,5 L0,10 z" fill="#1f4e79"/>
    </marker>
  </defs>
  <line x1="70" y1="140" x2="615" y2="140" stroke="#1f4e79" stroke-width="2.5" marker-end="url(#ciArrow)"/>
  <line x1="70.0" y1="135" x2="70.0" y2="145" stroke="#1f4e79" stroke-width="1.5"/>
  <text x="70.0" y="164" fill="#444" font-size="13" text-anchor="middle">0</text>
  <line x1="174.0" y1="135" x2="174.0" y2="145" stroke="#1f4e79" stroke-width="1.5"/>
  <text x="174.0" y="164" fill="#444" font-size="13" text-anchor="middle">0.1</text>
  <line x1="278.0" y1="135" x2="278.0" y2="145" stroke="#1f4e79" stroke-width="1.5"/>
  <text x="278.0" y="164" fill="#444" font-size="13" text-anchor="middle">0.2</text>
  <line x1="382.0" y1="135" x2="382.0" y2="145" stroke="#1f4e79" stroke-width="1.5"/>
  <text x="382.0" y="164" fill="#444" font-size="13" text-anchor="middle">0.3</text>
  <line x1="486.0" y1="135" x2="486.0" y2="145" stroke="#1f4e79" stroke-width="1.5"/>
  <text x="486.0" y="164" fill="#444" font-size="13" text-anchor="middle">0.4</text>
  <line x1="590.0" y1="135" x2="590.0" y2="145" stroke="#1f4e79" stroke-width="1.5"/>
  <text x="590.0" y="164" fill="#444" font-size="13" text-anchor="middle">0.5</text>
  <line x1="311.3" y1="140" x2="465.2" y2="140" stroke="#2e75b6" stroke-width="7" stroke-linecap="round"/>
  <line x1="311.3" y1="127" x2="311.3" y2="153" stroke="#2e75b6" stroke-width="3"/>
  <line x1="465.2" y1="127" x2="465.2" y2="153" stroke="#2e75b6" stroke-width="3"/>
  <circle cx="388.2" cy="140" r="6" fill="#c55a11"/>
  <text x="311.3" y="118" fill="#1f4e79" font-size="17" font-weight="bold" text-anchor="middle">0,232</text>
  <text x="465.2" y="118" fill="#1f4e79" font-size="17" font-weight="bold" text-anchor="middle">0,38</text>
  <path d="M311.3,78 C311.3,62 388.2,62 388.2,54 C388.2,62 465.2,62 465.2,78" fill="none" stroke="#1f4e79" stroke-width="1.6"/>
  <text x="388.2" y="40" fill="#1f4e79" font-size="15" text-anchor="middle">параметр здесь</text>
  <text x="388.2" y="22" fill="#1f4e79" font-size="15" text-anchor="middle">с вероятностью 95%</text>
</svg>
