<?xml version="1.0" encoding="utf-8" standalone="no"?>
<!DOCTYPE svg PUBLIC "-//W3C//DTD SVG 1.1//EN"
  "http://www.w3.org/Graphics/SVG/1.1/DTD/svg11.dtd">
<svg xmlns:xlink="http://www.w3.org/1999/xlink" width="576pt" height="345.6pt" viewBox="0 0 576 345.6" xmlns="http://www.w3.org/2000/svg" version="1.1">
 <metadata>
  <rdf:RDF xmlns:dc="http://purl.org/dc/elements/1.1/" xmlns:cc="http://creativecommons.org/ns#" xmlns:rdf="http://www.w3.org/1999/02/22-rdf-syntax-ns#">
   <cc:Work>
    <dc:type rdf:resource="http://purl.org/dc/dcmitype/StillImage"/>
    <dc:date>2026-06-28T02:48:15.180632</dc:date>
    <dc:format>image/svg+xml</dc:format>
    <dc:creator>
     <cc:Agent>
      <dc:title>Matplotlib v3.10.8, https://matplotlib.org/</dc:title>
     </cc:Agent>
    </dc:creator>
   </cc:Work>
  </rdf:RDF>
 </metadata>
 <defs>
  <style type="text/css">*{stroke-linejoin: round; stroke-linecap: butt}</style>
 </defs>
 <g id="figure_1">
  <g id="patch_1">
   <path d="M 0 345.6 
L 576 345.6 
L 576 0 
L 0 0 
z
" style="fill: #ffffff"/>
  </g>
  <g id="axes_1">
   <g id="patch_2">
    <path d="M 45.148864 304.163636 
L 565.2 304.163636 
L 565.2 25.963636 
L 45.148864 25.963636 
z
" style="fill: #ffffff"/>
   </g>
   <g id="line2d_1">
    <path d="M 68.787552 271.285455 
L 68.787552 291.518182 
" clip-path="url(#p9c1502f7da)" style="fill: none; stroke-dasharray: 5.18,2.24; stroke-dashoffset: 0; stroke: #c0392b; stroke-width: 1.4"/>
   </g>
   <g id="line2d_2">
    <path d="M 163.342304 230.82 
L 163.342304 240.936364 
" clip-path="url(#p9c1502f7da)" style="fill: none; stroke-dasharray: 5.18,2.24; stroke-dashoffset: 0; stroke: #c0392b; stroke-width: 1.4"/>
   </g>
   <g id="line2d_3">
    <path d="M 257.897056 251.052727 
L 257.897056 190.354545 
" clip-path="url(#p9c1502f7da)" style="fill: none; stroke-dasharray: 5.18,2.24; stroke-dashoffset: 0; stroke: #c0392b; stroke-width: 1.4"/>
   </g>
   <g id="line2d_4">
    <path d="M 352.451808 129.656364 
L 352.451808 139.772727 
" clip-path="url(#p9c1502f7da)" style="fill: none; stroke-dasharray: 5.18,2.24; stroke-dashoffset: 0; stroke: #c0392b; stroke-width: 1.4"/>
   </g>
   <g id="line2d_5">
    <path d="M 447.00656 68.958182 
L 447.00656 89.190909 
" clip-path="url(#p9c1502f7da)" style="fill: none; stroke-dasharray: 5.18,2.24; stroke-dashoffset: 0; stroke: #c0392b; stroke-width: 1.4"/>
   </g>
   <g id="matplotlib.axis_1">
    <g id="xtick_1">
     <g id="line2d_6">
      <path d="M 68.787552 304.163636 
L 68.787552 25.963636 
" clip-path="url(#p9c1502f7da)" style="fill: none; stroke: #b0b0b0; stroke-opacity: 0.25; stroke-width: 0.8; stroke-linecap: square"/>
     </g>
     <g id="line2d_7">
      <defs>
       <path id="m33bb9a9cfa" d="M 0 0 
L 0 3.5 
" style="stroke: #000000; stroke-width: 0.8"/>
      </defs>
      <g>
       <use xlink:href="#m33bb9a9cfa" x="68.787552" y="304.163636" style="stroke: #000000; stroke-width: 0.8"/>
      </g>
     </g>
     <g id="text_1">
      <!-- 2020 -->
      <g transform="translate(56.062552 318.762074) scale(0.1 -0.1)">
       <defs>
        <path id="DejaVuSans-32" d="M 1228 531 
L 3431 531 
L 3431 0 
L 469 0 
L 469 531 
Q 828 903 1448 1529 
Q 2069 2156 2228 2338 
Q 2531 2678 2651 2914 
Q 2772 3150 2772 3378 
Q 2772 3750 2511 3984 
Q 2250 4219 1831 4219 
Q 1534 4219 1204 4116 
Q 875 4013 500 3803 
L 500 4441 
Q 881 4594 1212 4672 
Q 1544 4750 1819 4750 
Q 2544 4750 2975 4387 
Q 3406 4025 3406 3419 
Q 3406 3131 3298 2873 
Q 3191 2616 2906 2266 
Q 2828 2175 2409 1742 
Q 1991 1309 1228 531 
z
" transform="scale(0.015625)"/>
        <path id="DejaVuSans-30" d="M 2034 4250 
Q 1547 4250 1301 3770 
Q 1056 3291 1056 2328 
Q 1056 1369 1301 889 
Q 1547 409 2034 409 
Q 2525 409 2770 889 
Q 3016 1369 3016 2328 
Q 3016 3291 2770 3770 
Q 2525 4250 2034 4250 
z
M 2034 4750 
Q 2819 4750 3233 4129 
Q 3647 3509 3647 2328 
Q 3647 1150 3233 529 
Q 2819 -91 2034 -91 
Q 1250 -91 836 529 
Q 422 1150 422 2328 
Q 422 3509 836 4129 
Q 1250 4750 2034 4750 
z
" transform="scale(0.015625)"/>
       </defs>
       <use xlink:href="#DejaVuSans-32"/>
       <use xlink:href="#DejaVuSans-30" transform="translate(63.623047 0)"/>
       <use xlink:href="#DejaVuSans-32" transform="translate(127.246094 0)"/>
       <use xlink:href="#DejaVuSans-30" transform="translate(190.869141 0)"/>
      </g>
     </g>
    </g>
    <g id="xtick_2">
     <g id="line2d_8">
      <path d="M 163.342304 304.163636 
L 163.342304 25.963636 
" clip-path="url(#p9c1502f7da)" style="fill: none; stroke: #b0b0b0; stroke-opacity: 0.25; stroke-width: 0.8; stroke-linecap: square"/>
     </g>
     <g id="line2d_9">
      <g>
       <use xlink:href="#m33bb9a9cfa" x="163.342304" y="304.163636" style="stroke: #000000; stroke-width: 0.8"/>
      </g>
     </g>
     <g id="text_2">
      <!-- 2021 -->
      <g transform="translate(150.617304 318.762074) scale(0.1 -0.1)">
       <defs>
        <path id="DejaVuSans-31" d="M 794 531 
L 1825 531 
L 1825 4091 
L 703 3866 
L 703 4441 
L 1819 4666 
L 2450 4666 
L 2450 531 
L 3481 531 
L 3481 0 
L 794 0 
L 794 531 
z
" transform="scale(0.015625)"/>
       </defs>
       <use xlink:href="#DejaVuSans-32"/>
       <use xlink:href="#DejaVuSans-30" transform="translate(63.623047 0)"/>
       <use xlink:href="#DejaVuSans-32" transform="translate(127.246094 0)"/>
       <use xlink:href="#DejaVuSans-31" transform="translate(190.869141 0)"/>
      </g>
     </g>
    </g>
    <g id="xtick_3">
     <g id="line2d_10">
      <path d="M 257.897056 304.163636 
L 257.897056 25.963636 
" clip-path="url(#p9c1502f7da)" style="fill: none; stroke: #b0b0b0; stroke-opacity: 0.25; stroke-width: 0.8; stroke-linecap: square"/>
     </g>
     <g id="line2d_11">
      <g>
       <use xlink:href="#m33bb9a9cfa" x="257.897056" y="304.163636" style="stroke: #000000; stroke-width: 0.8"/>
      </g>
     </g>
     <g id="text_3">
      <!-- 2022 -->
      <g transform="translate(245.172056 318.762074) scale(0.1 -0.1)">
       <use xlink:href="#DejaVuSans-32"/>
       <use xlink:href="#DejaVuSans-30" transform="translate(63.623047 0)"/>
       <use xlink:href="#DejaVuSans-32" transform="translate(127.246094 0)"/>
       <use xlink:href="#DejaVuSans-32" transform="translate(190.869141 0)"/>
      </g>
     </g>
    </g>
    <g id="xtick_4">
     <g id="line2d_12">
      <path d="M 352.451808 304.163636 
L 352.451808 25.963636 
" clip-path="url(#p9c1502f7da)" style="fill: none; stroke: #b0b0b0; stroke-opacity: 0.25; stroke-width: 0.8; stroke-linecap: square"/>
     </g>
     <g id="line2d_13">
      <g>
       <use xlink:href="#m33bb9a9cfa" x="352.451808" y="304.163636" style="stroke: #000000; stroke-width: 0.8"/>
      </g>
     </g>
     <g id="text_4">
      <!-- 2023 -->
      <g transform="translate(339.726808 318.762074) scale(0.1 -0.1)">
       <defs>
        <path id="DejaVuSans-33" d="M 2597 2516 
Q 3050 2419 3304 2112 
Q 3559 1806 3559 1356 
Q 3559 666 3084 287 
Q 2609 -91 1734 -91 
Q 1441 -91 1130 -33 
Q 819 25 488 141 
L 488 750 
Q 750 597 1062 519 
Q 1375 441 1716 441 
Q 2309 441 2620 675 
Q 2931 909 2931 1356 
Q 2931 1769 2642 2001 
Q 2353 2234 1838 2234 
L 1294 2234 
L 1294 2753 
L 1863 2753 
Q 2328 2753 2575 2939 
Q 2822 3125 2822 3475 
Q 2822 3834 2567 4026 
Q 2313 4219 1838 4219 
Q 1578 4219 1281 4162 
Q 984 4106 628 3988 
L 628 4550 
Q 988 4650 1302 4700 
Q 1616 4750 1894 4750 
Q 2613 4750 3031 4423 
Q 3450 4097 3450 3541 
Q 3450 3153 3228 2886 
Q 3006 2619 2597 2516 
z
" transform="scale(0.015625)"/>
       </defs>
       <use xlink:href="#DejaVuSans-32"/>
       <use xlink:href="#DejaVuSans-30" transform="translate(63.623047 0)"/>
       <use xlink:href="#DejaVuSans-32" transform="translate(127.246094 0)"/>
       <use xlink:href="#DejaVuSans-33" transform="translate(190.869141 0)"/>
      </g>
     </g>
    </g>
    <g id="xtick_5">
     <g id="line2d_14">
      <path d="M 447.00656 304.163636 
L 447.00656 25.963636 
" clip-path="url(#p9c1502f7da)" style="fill: none; stroke: #b0b0b0; stroke-opacity: 0.25; stroke-width: 0.8; stroke-linecap: square"/>
     </g>
     <g id="line2d_15">
      <g>
       <use xlink:href="#m33bb9a9cfa" x="447.00656" y="304.163636" style="stroke: #000000; stroke-width: 0.8"/>
      </g>
     </g>
     <g id="text_5">
      <!-- 2024 -->
      <g transform="translate(434.28156 318.762074) scale(0.1 -0.1)">
       <defs>
        <path id="DejaVuSans-34" d="M 2419 4116 
L 825 1625 
L 2419 1625 
L 2419 4116 
z
M 2253 4666 
L 3047 4666 
L 3047 1625 
L 3713 1625 
L 3713 1100 
L 3047 1100 
L 3047 0 
L 2419 0 
L 2419 1100 
L 313 1100 
L 313 1709 
L 2253 4666 
z
" transform="scale(0.015625)"/>
       </defs>
       <use xlink:href="#DejaVuSans-32"/>
       <use xlink:href="#DejaVuSans-30" transform="translate(63.623047 0)"/>
       <use xlink:href="#DejaVuSans-32" transform="translate(127.246094 0)"/>
       <use xlink:href="#DejaVuSans-34" transform="translate(190.869141 0)"/>
      </g>
     </g>
    </g>
    <g id="xtick_6">
     <g id="line2d_16">
      <path d="M 541.561312 304.163636 
L 541.561312 25.963636 
" clip-path="url(#p9c1502f7da)" style="fill: none; stroke: #b0b0b0; stroke-opacity: 0.25; stroke-width: 0.8; stroke-linecap: square"/>
     </g>
     <g id="line2d_17">
      <g>
       <use xlink:href="#m33bb9a9cfa" x="541.561312" y="304.163636" style="stroke: #000000; stroke-width: 0.8"/>
      </g>
     </g>
     <g id="text_6">
      <!-- 2025 -->
      <g transform="translate(528.836312 318.762074) scale(0.1 -0.1)">
       <defs>
        <path id="DejaVuSans-35" d="M 691 4666 
L 3169 4666 
L 3169 4134 
L 1269 4134 
L 1269 2991 
Q 1406 3038 1543 3061 
Q 1681 3084 1819 3084 
Q 2600 3084 3056 2656 
Q 3513 2228 3513 1497 
Q 3513 744 3044 326 
Q 2575 -91 1722 -91 
Q 1428 -91 1123 -41 
Q 819 9 494 109 
L 494 744 
Q 775 591 1075 516 
Q 1375 441 1709 441 
Q 2250 441 2565 725 
Q 2881 1009 2881 1497 
Q 2881 1984 2565 2268 
Q 2250 2553 1709 2553 
Q 1456 2553 1204 2497 
Q 953 2441 691 2322 
L 691 4666 
z
" transform="scale(0.015625)"/>
       </defs>
       <use xlink:href="#DejaVuSans-32"/>
       <use xlink:href="#DejaVuSans-30" transform="translate(63.623047 0)"/>
       <use xlink:href="#DejaVuSans-32" transform="translate(127.246094 0)"/>
       <use xlink:href="#DejaVuSans-35" transform="translate(190.869141 0)"/>
      </g>
     </g>
    </g>
    <g id="text_7">
     <!-- Год -->
     <g transform="translate(295.608807 332.440199) scale(0.1 -0.1)">
      <defs>
       <path id="DejaVuSans-413" d="M 628 0 
L 628 4666 
L 3531 4666 
L 3531 4134 
L 1259 4134 
L 1259 0 
L 628 0 
z
" transform="scale(0.015625)"/>
       <path id="DejaVuSans-43e" d="M 1959 3097 
Q 1497 3097 1228 2736 
Q 959 2375 959 1747 
Q 959 1119 1226 758 
Q 1494 397 1959 397 
Q 2419 397 2687 759 
Q 2956 1122 2956 1747 
Q 2956 2369 2687 2733 
Q 2419 3097 1959 3097 
z
M 1959 3584 
Q 2709 3584 3137 3096 
Q 3566 2609 3566 1747 
Q 3566 888 3137 398 
Q 2709 -91 1959 -91 
Q 1206 -91 779 398 
Q 353 888 353 1747 
Q 353 2609 779 3096 
Q 1206 3584 1959 3584 
z
" transform="scale(0.015625)"/>
       <path id="DejaVuSans-434" d="M 1384 459 
L 3053 459 
L 3053 3041 
L 1844 3041 
L 1844 2603 
Q 1844 1316 1475 628 
L 1384 459 
z
M 550 459 
Q 834 584 959 850 
Q 1266 1509 1266 2838 
L 1266 3500 
L 3631 3500 
L 3631 459 
L 4091 459 
L 4091 -884 
L 3631 -884 
L 3631 0 
L 794 0 
L 794 -884 
L 334 -884 
L 334 459 
L 550 459 
z
" transform="scale(0.015625)"/>
      </defs>
      <use xlink:href="#DejaVuSans-413"/>
      <use xlink:href="#DejaVuSans-43e" transform="translate(60.986328 0)"/>
      <use xlink:href="#DejaVuSans-434" transform="translate(122.167969 0)"/>
     </g>
    </g>
   </g>
   <g id="matplotlib.axis_2">
    <g id="ytick_1">
     <g id="line2d_18">
      <path d="M 45.148864 271.285455 
L 565.2 271.285455 
" clip-path="url(#p9c1502f7da)" style="fill: none; stroke: #b0b0b0; stroke-opacity: 0.25; stroke-width: 0.8; stroke-linecap: square"/>
     </g>
     <g id="line2d_19">
      <defs>
       <path id="m24582a358d" d="M 0 0 
L -3.5 0 
" style="stroke: #000000; stroke-width: 0.8"/>
      </defs>
      <g>
       <use xlink:href="#m24582a358d" x="45.148864" y="271.285455" style="stroke: #000000; stroke-width: 0.8"/>
      </g>
     </g>
     <g id="text_8">
      <!-- 14 -->
      <g transform="translate(25.423864 275.084673) scale(0.1 -0.1)">
       <use xlink:href="#DejaVuSans-31"/>
       <use xlink:href="#DejaVuSans-34" transform="translate(63.623047 0)"/>
      </g>
     </g>
    </g>
    <g id="ytick_2">
     <g id="line2d_20">
      <path d="M 45.148864 230.82 
L 565.2 230.82 
" clip-path="url(#p9c1502f7da)" style="fill: none; stroke: #b0b0b0; stroke-opacity: 0.25; stroke-width: 0.8; stroke-linecap: square"/>
     </g>
     <g id="line2d_21">
      <g>
       <use xlink:href="#m24582a358d" x="45.148864" y="230.82" style="stroke: #000000; stroke-width: 0.8"/>
      </g>
     </g>
     <g id="text_9">
      <!-- 16 -->
      <g transform="translate(25.423864 234.619219) scale(0.1 -0.1)">
       <defs>
        <path id="DejaVuSans-36" d="M 2113 2584 
Q 1688 2584 1439 2293 
Q 1191 2003 1191 1497 
Q 1191 994 1439 701 
Q 1688 409 2113 409 
Q 2538 409 2786 701 
Q 3034 994 3034 1497 
Q 3034 2003 2786 2293 
Q 2538 2584 2113 2584 
z
M 3366 4563 
L 3366 3988 
Q 3128 4100 2886 4159 
Q 2644 4219 2406 4219 
Q 1781 4219 1451 3797 
Q 1122 3375 1075 2522 
Q 1259 2794 1537 2939 
Q 1816 3084 2150 3084 
Q 2853 3084 3261 2657 
Q 3669 2231 3669 1497 
Q 3669 778 3244 343 
Q 2819 -91 2113 -91 
Q 1303 -91 875 529 
Q 447 1150 447 2328 
Q 447 3434 972 4092 
Q 1497 4750 2381 4750 
Q 2619 4750 2861 4703 
Q 3103 4656 3366 4563 
z
" transform="scale(0.015625)"/>
       </defs>
       <use xlink:href="#DejaVuSans-31"/>
       <use xlink:href="#DejaVuSans-36" transform="translate(63.623047 0)"/>
      </g>
     </g>
    </g>
    <g id="ytick_3">
     <g id="line2d_22">
      <path d="M 45.148864 190.354545 
L 565.2 190.354545 
" clip-path="url(#p9c1502f7da)" style="fill: none; stroke: #b0b0b0; stroke-opacity: 0.25; stroke-width: 0.8; stroke-linecap: square"/>
     </g>
     <g id="line2d_23">
      <g>
       <use xlink:href="#m24582a358d" x="45.148864" y="190.354545" style="stroke: #000000; stroke-width: 0.8"/>
      </g>
     </g>
     <g id="text_10">
      <!-- 18 -->
      <g transform="translate(25.423864 194.153764) scale(0.1 -0.1)">
       <defs>
        <path id="DejaVuSans-38" d="M 2034 2216 
Q 1584 2216 1326 1975 
Q 1069 1734 1069 1313 
Q 1069 891 1326 650 
Q 1584 409 2034 409 
Q 2484 409 2743 651 
Q 3003 894 3003 1313 
Q 3003 1734 2745 1975 
Q 2488 2216 2034 2216 
z
M 1403 2484 
Q 997 2584 770 2862 
Q 544 3141 544 3541 
Q 544 4100 942 4425 
Q 1341 4750 2034 4750 
Q 2731 4750 3128 4425 
Q 3525 4100 3525 3541 
Q 3525 3141 3298 2862 
Q 3072 2584 2669 2484 
Q 3125 2378 3379 2068 
Q 3634 1759 3634 1313 
Q 3634 634 3220 271 
Q 2806 -91 2034 -91 
Q 1263 -91 848 271 
Q 434 634 434 1313 
Q 434 1759 690 2068 
Q 947 2378 1403 2484 
z
M 1172 3481 
Q 1172 3119 1398 2916 
Q 1625 2713 2034 2713 
Q 2441 2713 2670 2916 
Q 2900 3119 2900 3481 
Q 2900 3844 2670 4047 
Q 2441 4250 2034 4250 
Q 1625 4250 1398 4047 
Q 1172 3844 1172 3481 
z
" transform="scale(0.015625)"/>
       </defs>
       <use xlink:href="#DejaVuSans-31"/>
       <use xlink:href="#DejaVuSans-38" transform="translate(63.623047 0)"/>
      </g>
     </g>
    </g>
    <g id="ytick_4">
     <g id="line2d_24">
      <path d="M 45.148864 149.889091 
L 565.2 149.889091 
" clip-path="url(#p9c1502f7da)" style="fill: none; stroke: #b0b0b0; stroke-opacity: 0.25; stroke-width: 0.8; stroke-linecap: square"/>
     </g>
     <g id="line2d_25">
      <g>
       <use xlink:href="#m24582a358d" x="45.148864" y="149.889091" style="stroke: #000000; stroke-width: 0.8"/>
      </g>
     </g>
     <g id="text_11">
      <!-- 20 -->
      <g transform="translate(25.423864 153.68831) scale(0.1 -0.1)">
       <use xlink:href="#DejaVuSans-32"/>
       <use xlink:href="#DejaVuSans-30" transform="translate(63.623047 0)"/>
      </g>
     </g>
    </g>
    <g id="ytick_5">
     <g id="line2d_26">
      <path d="M 45.148864 109.423636 
L 565.2 109.423636 
" clip-path="url(#p9c1502f7da)" style="fill: none; stroke: #b0b0b0; stroke-opacity: 0.25; stroke-width: 0.8; stroke-linecap: square"/>
     </g>
     <g id="line2d_27">
      <g>
       <use xlink:href="#m24582a358d" x="45.148864" y="109.423636" style="stroke: #000000; stroke-width: 0.8"/>
      </g>
     </g>
     <g id="text_12">
      <!-- 22 -->
      <g transform="translate(25.423864 113.222855) scale(0.1 -0.1)">
       <use xlink:href="#DejaVuSans-32"/>
       <use xlink:href="#DejaVuSans-32" transform="translate(63.623047 0)"/>
      </g>
     </g>
    </g>
    <g id="ytick_6">
     <g id="line2d_28">
      <path d="M 45.148864 68.958182 
L 565.2 68.958182 
" clip-path="url(#p9c1502f7da)" style="fill: none; stroke: #b0b0b0; stroke-opacity: 0.25; stroke-width: 0.8; stroke-linecap: square"/>
     </g>
     <g id="line2d_29">
      <g>
       <use xlink:href="#m24582a358d" x="45.148864" y="68.958182" style="stroke: #000000; stroke-width: 0.8"/>
      </g>
     </g>
     <g id="text_13">
      <!-- 24 -->
      <g transform="translate(25.423864 72.757401) scale(0.1 -0.1)">
       <use xlink:href="#DejaVuSans-32"/>
       <use xlink:href="#DejaVuSans-34" transform="translate(63.623047 0)"/>
      </g>
     </g>
    </g>
    <g id="ytick_7">
     <g id="line2d_30">
      <path d="M 45.148864 28.492727 
L 565.2 28.492727 
" clip-path="url(#p9c1502f7da)" style="fill: none; stroke: #b0b0b0; stroke-opacity: 0.25; stroke-width: 0.8; stroke-linecap: square"/>
     </g>
     <g id="line2d_31">
      <g>
       <use xlink:href="#m24582a358d" x="45.148864" y="28.492727" style="stroke: #000000; stroke-width: 0.8"/>
      </g>
     </g>
     <g id="text_14">
      <!-- 26 -->
      <g transform="translate(25.423864 32.291946) scale(0.1 -0.1)">
       <use xlink:href="#DejaVuSans-32"/>
       <use xlink:href="#DejaVuSans-36" transform="translate(63.623047 0)"/>
      </g>
     </g>
    </g>
    <g id="text_15">
     <!-- Объём продаж, тыс. шт. -->
     <g transform="translate(19.344176 229.623793) rotate(-90) scale(0.1 -0.1)">
      <defs>
       <path id="DejaVuSans-41e" d="M 2522 4238 
Q 1834 4238 1429 3725 
Q 1025 3213 1025 2328 
Q 1025 1447 1429 934 
Q 1834 422 2522 422 
Q 3209 422 3611 934 
Q 4013 1447 4013 2328 
Q 4013 3213 3611 3725 
Q 3209 4238 2522 4238 
z
M 2522 4750 
Q 3503 4750 4090 4092 
Q 4678 3434 4678 2328 
Q 4678 1225 4090 567 
Q 3503 -91 2522 -91 
Q 1538 -91 948 565 
Q 359 1222 359 2328 
Q 359 3434 948 4092 
Q 1538 4750 2522 4750 
z
" transform="scale(0.015625)"/>
       <path id="DejaVuSans-431" d="M 1991 3584 
Q 2741 3584 3169 3096 
Q 3597 2609 3597 1747 
Q 3597 888 3169 398 
Q 2741 -91 1991 -91 
Q 1238 -91 822 384 
Q 406 859 384 1747 
L 366 2463 
Q 350 2834 350 2963 
Q 350 3463 531 3831 
Q 816 4409 1308 4659 
Q 1800 4909 2625 4916 
Q 3006 4919 3175 4972 
L 3334 4516 
Q 3181 4453 3041 4450 
L 2259 4397 
Q 1866 4369 1628 4231 
Q 1006 3866 947 3388 
L 925 3213 
Q 1331 3584 1991 3584 
z
M 1991 3097 
Q 1528 3097 1259 2736 
Q 991 2375 991 1747 
Q 991 1119 1258 758 
Q 1525 397 1991 397 
Q 2450 397 2719 759 
Q 2988 1122 2988 1747 
Q 2988 2369 2719 2733 
Q 2450 3097 1991 3097 
z
" transform="scale(0.015625)"/>
       <path id="DejaVuSans-44a" d="M 2753 2072 
Q 3422 2072 3783 1817 
Q 4144 1563 4144 1038 
Q 4144 513 3783 256 
Q 3422 0 2753 0 
L 1328 0 
L 1328 3041 
L 194 3041 
L 194 3500 
L 1906 3500 
L 1906 2072 
L 2753 2072 
z
M 2728 1613 
L 1906 1613 
L 1906 459 
L 2728 459 
Q 3122 459 3326 607 
Q 3531 756 3531 1038 
Q 3531 1319 3326 1466 
Q 3122 1613 2728 1613 
z
" transform="scale(0.015625)"/>
       <path id="DejaVuSans-451" d="M 3597 1894 
L 3597 1613 
L 953 1613 
Q 991 1019 1311 708 
Q 1631 397 2203 397 
Q 2534 397 2845 478 
Q 3156 559 3463 722 
L 3463 178 
Q 3153 47 2828 -22 
Q 2503 -91 2169 -91 
Q 1331 -91 842 396 
Q 353 884 353 1716 
Q 353 2575 817 3079 
Q 1281 3584 2069 3584 
Q 2775 3584 3186 3129 
Q 3597 2675 3597 1894 
z
M 3022 2063 
Q 3016 2534 2758 2815 
Q 2500 3097 2075 3097 
Q 1594 3097 1305 2825 
Q 1016 2553 972 2059 
L 3022 2063 
z
M 2363 4850 
L 2997 4850 
L 2997 4219 
L 2363 4219 
L 2363 4850 
z
M 1141 4850 
L 1775 4850 
L 1775 4219 
L 1141 4219 
L 1141 4850 
z
" transform="scale(0.015625)"/>
       <path id="DejaVuSans-43c" d="M 581 3500 
L 1422 3500 
L 2416 1156 
L 3413 3500 
L 4247 3500 
L 4247 0 
L 3669 0 
L 3669 2950 
L 2703 672 
L 2128 672 
L 1159 2950 
L 1159 0 
L 581 0 
L 581 3500 
z
" transform="scale(0.015625)"/>
       <path id="DejaVuSans-20" transform="scale(0.015625)"/>
       <path id="DejaVuSans-43f" d="M 3603 3500 
L 3603 0 
L 3025 0 
L 3025 3041 
L 1159 3041 
L 1159 0 
L 581 0 
L 581 3500 
L 3603 3500 
z
" transform="scale(0.015625)"/>
       <path id="DejaVuSans-440" d="M 1159 525 
L 1159 -1331 
L 581 -1331 
L 581 3500 
L 1159 3500 
L 1159 2969 
Q 1341 3281 1617 3432 
Q 1894 3584 2278 3584 
Q 2916 3584 3314 3078 
Q 3713 2572 3713 1747 
Q 3713 922 3314 415 
Q 2916 -91 2278 -91 
Q 1894 -91 1617 61 
Q 1341 213 1159 525 
z
M 3116 1747 
Q 3116 2381 2855 2742 
Q 2594 3103 2138 3103 
Q 1681 3103 1420 2742 
Q 1159 2381 1159 1747 
Q 1159 1113 1420 752 
Q 1681 391 2138 391 
Q 2594 391 2855 752 
Q 3116 1113 3116 1747 
z
" transform="scale(0.015625)"/>
       <path id="DejaVuSans-430" d="M 2194 1759 
Q 1497 1759 1228 1600 
Q 959 1441 959 1056 
Q 959 750 1161 570 
Q 1363 391 1709 391 
Q 2188 391 2477 730 
Q 2766 1069 2766 1631 
L 2766 1759 
L 2194 1759 
z
M 3341 1997 
L 3341 0 
L 2766 0 
L 2766 531 
Q 2569 213 2275 61 
Q 1981 -91 1556 -91 
Q 1019 -91 701 211 
Q 384 513 384 1019 
Q 384 1609 779 1909 
Q 1175 2209 1959 2209 
L 2766 2209 
L 2766 2266 
Q 2766 2663 2505 2880 
Q 2244 3097 1772 3097 
Q 1472 3097 1187 3025 
Q 903 2953 641 2809 
L 641 3341 
Q 956 3463 1253 3523 
Q 1550 3584 1831 3584 
Q 2591 3584 2966 3190 
Q 3341 2797 3341 1997 
z
" transform="scale(0.015625)"/>
       <path id="DejaVuSans-436" d="M 2597 3500 
L 3169 3500 
L 3169 1856 
L 4697 3500 
L 5366 3500 
L 4109 2153 
L 5547 0 
L 4931 0 
L 3753 1769 
L 3169 1141 
L 3169 0 
L 2597 0 
L 2597 1141 
L 2013 1769 
L 834 0 
L 219 0 
L 1656 2153 
L 400 3500 
L 1069 3500 
L 2597 1856 
L 2597 3500 
z
" transform="scale(0.015625)"/>
       <path id="DejaVuSans-2c" d="M 750 794 
L 1409 794 
L 1409 256 
L 897 -744 
L 494 -744 
L 750 256 
L 750 794 
z
" transform="scale(0.015625)"/>
       <path id="DejaVuSans-442" d="M 188 3500 
L 3541 3500 
L 3541 3041 
L 2147 3041 
L 2147 0 
L 1581 0 
L 1581 3041 
L 188 3041 
L 188 3500 
z
" transform="scale(0.015625)"/>
       <path id="DejaVuSans-44b" d="M 3909 3500 
L 4484 3500 
L 4484 0 
L 3909 0 
L 3909 3500 
z
M 4197 3584 
L 4197 3584 
z
M 2781 1038 
Q 2781 1319 2576 1466 
Q 2372 1613 1978 1613 
L 1159 1613 
L 1159 459 
L 1978 459 
Q 2372 459 2576 607 
Q 2781 756 2781 1038 
z
M 581 3500 
L 1159 3500 
L 1159 2072 
L 2003 2072 
Q 2672 2072 3033 1817 
Q 3394 1563 3394 1038 
Q 3394 513 3033 256 
Q 2672 0 2003 0 
L 581 0 
L 581 3500 
z
" transform="scale(0.015625)"/>
       <path id="DejaVuSans-441" d="M 3122 3366 
L 3122 2828 
Q 2878 2963 2633 3030 
Q 2388 3097 2138 3097 
Q 1578 3097 1268 2742 
Q 959 2388 959 1747 
Q 959 1106 1268 751 
Q 1578 397 2138 397 
Q 2388 397 2633 464 
Q 2878 531 3122 666 
L 3122 134 
Q 2881 22 2623 -34 
Q 2366 -91 2075 -91 
Q 1284 -91 818 406 
Q 353 903 353 1747 
Q 353 2603 823 3093 
Q 1294 3584 2113 3584 
Q 2378 3584 2631 3529 
Q 2884 3475 3122 3366 
z
" transform="scale(0.015625)"/>
       <path id="DejaVuSans-2e" d="M 684 794 
L 1344 794 
L 1344 0 
L 684 0 
L 684 794 
z
" transform="scale(0.015625)"/>
       <path id="DejaVuSans-448" d="M 3216 459 
L 4697 459 
L 4697 3500 
L 5275 3500 
L 5275 0 
L 581 0 
L 581 3500 
L 1159 3500 
L 1159 459 
L 2638 459 
L 2638 3500 
L 3216 3500 
L 3216 459 
z
" transform="scale(0.015625)"/>
      </defs>
      <use xlink:href="#DejaVuSans-41e"/>
      <use xlink:href="#DejaVuSans-431" transform="translate(78.710938 0)"/>
      <use xlink:href="#DejaVuSans-44a" transform="translate(140.380859 0)"/>
      <use xlink:href="#DejaVuSans-451" transform="translate(211.035156 0)"/>
      <use xlink:href="#DejaVuSans-43c" transform="translate(272.558594 0)"/>
      <use xlink:href="#DejaVuSans-20" transform="translate(347.998047 0)"/>
      <use xlink:href="#DejaVuSans-43f" transform="translate(379.785156 0)"/>
      <use xlink:href="#DejaVuSans-440" transform="translate(445.166016 0)"/>
      <use xlink:href="#DejaVuSans-43e" transform="translate(508.642578 0)"/>
      <use xlink:href="#DejaVuSans-434" transform="translate(569.824219 0)"/>
      <use xlink:href="#DejaVuSans-430" transform="translate(638.964844 0)"/>
      <use xlink:href="#DejaVuSans-436" transform="translate(700.244141 0)"/>
      <use xlink:href="#DejaVuSans-2c" transform="translate(790.332031 0)"/>
      <use xlink:href="#DejaVuSans-20" transform="translate(822.119141 0)"/>
      <use xlink:href="#DejaVuSans-442" transform="translate(853.90625 0)"/>
      <use xlink:href="#DejaVuSans-44b" transform="translate(912.158203 0)"/>
      <use xlink:href="#DejaVuSans-441" transform="translate(991.113281 0)"/>
      <use xlink:href="#DejaVuSans-2e" transform="translate(1046.09375 0)"/>
      <use xlink:href="#DejaVuSans-20" transform="translate(1077.880859 0)"/>
      <use xlink:href="#DejaVuSans-448" transform="translate(1109.667969 0)"/>
      <use xlink:href="#DejaVuSans-442" transform="translate(1201.171875 0)"/>
      <use xlink:href="#DejaVuSans-2e" transform="translate(1259.423828 0)"/>
     </g>
    </g>
   </g>
   <g id="line2d_32">
    <path d="M 68.787552 291.518182 
L 163.342304 240.936364 
L 257.897056 190.354545 
L 352.451808 139.772727 
L 447.00656 89.190909 
L 541.561312 38.609091 
" clip-path="url(#p9c1502f7da)" style="fill: none; stroke: #1a3a5c; stroke-width: 2.4; stroke-linecap: square"/>
   </g>
   <g id="patch_3">
    <path d="M 45.148864 304.163636 
L 45.148864 25.963636 
" style="fill: none; stroke: #000000; stroke-width: 0.8; stroke-linejoin: miter; stroke-linecap: square"/>
   </g>
   <g id="patch_4">
    <path d="M 45.148864 304.163636 
L 565.2 304.163636 
" style="fill: none; stroke: #000000; stroke-width: 0.8; stroke-linejoin: miter; stroke-linecap: square"/>
   </g>
   <g id="PathCollection_1">
    <defs>
     <path id="mb2c810c81c" d="M 0 3.708099 
C 0.983399 3.708099 1.926654 3.317391 2.622022 2.622022 
C 3.317391 1.926654 3.708099 0.983399 3.708099 0 
C 3.708099 -0.983399 3.317391 -1.926654 2.622022 -2.622022 
C 1.926654 -3.317391 0.983399 -3.708099 0 -3.708099 
C -0.983399 -3.708099 -1.926654 -3.317391 -2.622022 -2.622022 
C -3.317391 -1.926654 -3.708099 -0.983399 -3.708099 0 
C -3.708099 0.983399 -3.317391 1.926654 -2.622022 2.622022 
C -1.926654 3.317391 -0.983399 3.708099 0 3.708099 
z
" style="stroke: #ffffff"/>
    </defs>
    <g clip-path="url(#p9c1502f7da)">
     <use xlink:href="#mb2c810c81c" x="68.787552" y="271.285455" style="fill: #2e86c1; stroke: #ffffff"/>
     <use xlink:href="#mb2c810c81c" x="163.342304" y="230.82" style="fill: #2e86c1; stroke: #ffffff"/>
     <use xlink:href="#mb2c810c81c" x="257.897056" y="251.052727" style="fill: #2e86c1; stroke: #ffffff"/>
     <use xlink:href="#mb2c810c81c" x="352.451808" y="129.656364" style="fill: #2e86c1; stroke: #ffffff"/>
     <use xlink:href="#mb2c810c81c" x="447.00656" y="68.958182" style="fill: #2e86c1; stroke: #ffffff"/>
    </g>
   </g>
   <g id="text_16">
    <!-- Выравнивание ряда по прямой методом наименьших квадратов -->
    <g transform="translate(89.715643 19.963636) scale(0.115 -0.115)">
     <defs>
      <path id="DejaVuSans-Bold-412" d="M 2456 2859 
Q 2741 2859 2887 2984 
Q 3034 3109 3034 3353 
Q 3034 3594 2887 3720 
Q 2741 3847 2456 3847 
L 1791 3847 
L 1791 2859 
L 2456 2859 
z
M 2497 819 
Q 2859 819 3042 972 
Q 3225 1125 3225 1434 
Q 3225 1738 3044 1889 
Q 2863 2041 2497 2041 
L 1791 2041 
L 1791 819 
L 2497 819 
z
M 3616 2497 
Q 4003 2384 4215 2081 
Q 4428 1778 4428 1338 
Q 4428 663 3972 331 
Q 3516 0 2584 0 
L 588 0 
L 588 4666 
L 2394 4666 
Q 3366 4666 3802 4372 
Q 4238 4078 4238 3431 
Q 4238 3091 4078 2852 
Q 3919 2613 3616 2497 
z
" transform="scale(0.015625)"/>
      <path id="DejaVuSans-Bold-44b" d="M 4150 3500 
L 5269 3500 
L 5269 0 
L 4150 0 
L 4150 3500 
z
M 2719 1094 
Q 2719 1291 2594 1388 
Q 2472 1481 2222 1481 
L 1656 1481 
L 1656 700 
L 2222 700 
Q 2469 700 2594 800 
Q 2719 897 2719 1094 
z
M 538 3500 
L 1656 3500 
L 1656 2172 
L 2291 2172 
Q 3000 2172 3381 1913 
Q 3766 1650 3766 1081 
Q 3766 513 3381 256 
Q 3000 0 2291 0 
L 538 0 
L 538 3500 
z
" transform="scale(0.015625)"/>
      <path id="DejaVuSans-Bold-440" d="M 1656 506 
L 1656 -1331 
L 538 -1331 
L 538 3500 
L 1656 3500 
L 1656 2988 
Q 1888 3294 2169 3439 
Q 2450 3584 2816 3584 
Q 3463 3584 3878 3070 
Q 4294 2556 4294 1747 
Q 4294 938 3878 423 
Q 3463 -91 2816 -91 
Q 2450 -91 2169 54 
Q 1888 200 1656 506 
z
M 2400 2772 
Q 2041 2772 1848 2508 
Q 1656 2244 1656 1747 
Q 1656 1250 1848 986 
Q 2041 722 2400 722 
Q 2759 722 2948 984 
Q 3138 1247 3138 1747 
Q 3138 2247 2948 2509 
Q 2759 2772 2400 2772 
z
" transform="scale(0.015625)"/>
      <path id="DejaVuSans-Bold-430" d="M 2106 1575 
Q 1756 1575 1579 1456 
Q 1403 1338 1403 1106 
Q 1403 894 1545 773 
Q 1688 653 1941 653 
Q 2256 653 2472 879 
Q 2688 1106 2688 1447 
L 2688 1575 
L 2106 1575 
z
M 3816 1997 
L 3816 0 
L 2688 0 
L 2688 519 
Q 2463 200 2181 54 
Q 1900 -91 1497 -91 
Q 953 -91 614 226 
Q 275 544 275 1050 
Q 275 1666 698 1953 
Q 1122 2241 2028 2241 
L 2688 2241 
L 2688 2328 
Q 2688 2594 2478 2717 
Q 2269 2841 1825 2841 
Q 1466 2841 1156 2769 
Q 847 2697 581 2553 
L 581 3406 
Q 941 3494 1303 3539 
Q 1666 3584 2028 3584 
Q 2975 3584 3395 3211 
Q 3816 2838 3816 1997 
z
" transform="scale(0.015625)"/>
      <path id="DejaVuSans-Bold-432" d="M 2184 2181 
Q 2378 2181 2478 2261 
Q 2578 2341 2578 2497 
Q 2578 2653 2478 2731 
Q 2378 2809 2184 2809 
L 1656 2809 
L 1656 2181 
L 2184 2181 
z
M 2222 700 
Q 2469 700 2594 798 
Q 2719 897 2719 1094 
Q 2719 1288 2594 1384 
Q 2469 1481 2222 1481 
L 1656 1481 
L 1656 700 
L 2222 700 
z
M 538 3500 
L 2141 3500 
Q 2919 3500 3267 3279 
Q 3616 3059 3616 2575 
Q 3616 2319 3487 2139 
Q 3359 1959 3119 1872 
Q 3428 1788 3598 1561 
Q 3769 1334 3769 1003 
Q 3769 497 3403 248 
Q 3038 0 2294 0 
L 538 0 
L 538 3500 
z
" transform="scale(0.015625)"/>
      <path id="DejaVuSans-Bold-43d" d="M 538 3500 
L 1656 3500 
L 1656 2169 
L 2766 2169 
L 2766 3500 
L 3884 3500 
L 3884 0 
L 2766 0 
L 2766 1478 
L 1656 1478 
L 1656 0 
L 538 0 
L 538 3500 
z
" transform="scale(0.015625)"/>
      <path id="DejaVuSans-Bold-438" d="M 3947 3500 
L 3947 0 
L 2828 0 
L 2828 1863 
L 1700 0 
L 538 0 
L 538 3500 
L 1656 3500 
L 1656 1638 
L 2784 3500 
L 3947 3500 
z
" transform="scale(0.015625)"/>
      <path id="DejaVuSans-Bold-435" d="M 4031 1759 
L 4031 1441 
L 1416 1441 
Q 1456 1047 1700 850 
Q 1944 653 2381 653 
Q 2734 653 3104 758 
Q 3475 863 3866 1075 
L 3866 213 
Q 3469 63 3072 -14 
Q 2675 -91 2278 -91 
Q 1328 -91 801 392 
Q 275 875 275 1747 
Q 275 2603 792 3093 
Q 1309 3584 2216 3584 
Q 3041 3584 3536 3087 
Q 4031 2591 4031 1759 
z
M 2881 2131 
Q 2881 2450 2695 2645 
Q 2509 2841 2209 2841 
Q 1884 2841 1681 2658 
Q 1478 2475 1428 2131 
L 2881 2131 
z
" transform="scale(0.015625)"/>
      <path id="DejaVuSans-Bold-20" transform="scale(0.015625)"/>
      <path id="DejaVuSans-Bold-44f" d="M 1528 2394 
Q 1528 2169 1651 2069 
Q 1775 1969 2059 1969 
L 2463 1969 
L 2463 2816 
L 2059 2816 
Q 1775 2816 1651 2719 
Q 1528 2622 1528 2394 
z
M 197 0 
L 1113 1497 
Q 847 1650 650 1917 
Q 453 2184 453 2516 
Q 453 3013 789 3256 
Q 1125 3500 1878 3500 
L 3581 3500 
L 3581 0 
L 2463 0 
L 2463 1278 
L 2069 1278 
L 1288 0 
L 197 0 
z
" transform="scale(0.015625)"/>
      <path id="DejaVuSans-Bold-434" d="M 547 800 
Q 903 919 1053 1314 
Q 1203 1709 1203 2838 
L 1203 3500 
L 4228 3500 
L 4228 800 
L 4809 800 
L 4809 -884 
L 4009 -884 
L 4009 0 
L 1159 0 
L 1159 -884 
L 359 -884 
L 359 800 
L 547 800 
z
M 3109 2700 
L 2322 2700 
L 2322 2603 
Q 2322 1456 2063 800 
L 3109 800 
L 3109 2700 
z
" transform="scale(0.015625)"/>
      <path id="DejaVuSans-Bold-43f" d="M 3884 3500 
L 3884 0 
L 2766 0 
L 2766 2700 
L 1656 2700 
L 1656 0 
L 538 0 
L 538 3500 
L 3884 3500 
z
" transform="scale(0.015625)"/>
      <path id="DejaVuSans-Bold-43e" d="M 2203 2784 
Q 1831 2784 1636 2517 
Q 1441 2250 1441 1747 
Q 1441 1244 1636 976 
Q 1831 709 2203 709 
Q 2569 709 2762 976 
Q 2956 1244 2956 1747 
Q 2956 2250 2762 2517 
Q 2569 2784 2203 2784 
z
M 2203 3584 
Q 3106 3584 3614 3096 
Q 4122 2609 4122 1747 
Q 4122 884 3614 396 
Q 3106 -91 2203 -91 
Q 1297 -91 786 396 
Q 275 884 275 1747 
Q 275 2609 786 3096 
Q 1297 3584 2203 3584 
z
" transform="scale(0.015625)"/>
      <path id="DejaVuSans-Bold-43c" d="M 538 3500 
L 1825 3500 
L 2613 1750 
L 3400 3500 
L 4691 3500 
L 4691 0 
L 3575 0 
L 3575 1984 
L 2984 672 
L 2250 672 
L 1656 1984 
L 1656 0 
L 538 0 
L 538 3500 
z
" transform="scale(0.015625)"/>
      <path id="DejaVuSans-Bold-439" d="M 3947 3500 
L 3947 0 
L 2828 0 
L 2828 1863 
L 1700 0 
L 538 0 
L 538 3500 
L 1656 3500 
L 1656 1638 
L 2784 3500 
L 3947 3500 
z
M 1194 4894 
L 1641 4894 
Q 1675 4675 1829 4559 
Q 1984 4444 2244 4444 
Q 2503 4444 2658 4559 
Q 2813 4675 2847 4894 
L 3294 4894 
Q 3275 4444 3003 4205 
Q 2731 3966 2244 3966 
Q 1756 3966 1484 4205 
Q 1213 4444 1194 4894 
z
" transform="scale(0.015625)"/>
      <path id="DejaVuSans-Bold-442" d="M 25 3500 
L 3681 3500 
L 3681 2809 
L 2413 2809 
L 2413 0 
L 1297 0 
L 1297 2809 
L 25 2809 
L 25 3500 
z
" transform="scale(0.015625)"/>
      <path id="DejaVuSans-Bold-44c" d="M 2719 1094 
Q 2719 1291 2594 1388 
Q 2472 1481 2222 1481 
L 1656 1481 
L 1656 700 
L 2222 700 
Q 2469 700 2594 800 
Q 2719 897 2719 1094 
z
M 538 3500 
L 1656 3500 
L 1656 2172 
L 2291 2172 
Q 3000 2172 3381 1913 
Q 3766 1650 3766 1081 
Q 3766 513 3381 256 
Q 3000 0 2291 0 
L 538 0 
L 538 3500 
z
" transform="scale(0.015625)"/>
      <path id="DejaVuSans-Bold-448" d="M 3938 800 
L 5100 800 
L 5100 3500 
L 6219 3500 
L 6219 0 
L 538 0 
L 538 3500 
L 1656 3500 
L 1656 800 
L 2819 800 
L 2819 3500 
L 3938 3500 
L 3938 800 
z
" transform="scale(0.015625)"/>
      <path id="DejaVuSans-Bold-445" d="M 1422 1791 
L 159 3500 
L 1344 3500 
L 2059 2463 
L 2784 3500 
L 3969 3500 
L 2706 1797 
L 4031 0 
L 2847 0 
L 2059 1106 
L 1281 0 
L 97 0 
L 1422 1791 
z
" transform="scale(0.015625)"/>
      <path id="DejaVuSans-Bold-43a" d="M 538 3500 
L 1656 3500 
L 1656 2316 
L 2903 3500 
L 4128 3500 
L 2634 2078 
L 4250 0 
L 3094 0 
L 1972 1447 
L 1656 1147 
L 1656 0 
L 538 0 
L 538 3500 
z
" transform="scale(0.015625)"/>
     </defs>
     <use xlink:href="#DejaVuSans-Bold-412"/>
     <use xlink:href="#DejaVuSans-Bold-44b" transform="translate(76.220703 0)"/>
     <use xlink:href="#DejaVuSans-Bold-440" transform="translate(166.650391 0)"/>
     <use xlink:href="#DejaVuSans-Bold-430" transform="translate(238.232422 0)"/>
     <use xlink:href="#DejaVuSans-Bold-432" transform="translate(305.712891 0)"/>
     <use xlink:href="#DejaVuSans-Bold-43d" transform="translate(368.994141 0)"/>
     <use xlink:href="#DejaVuSans-Bold-438" transform="translate(438.085938 0)"/>
     <use xlink:href="#DejaVuSans-Bold-432" transform="translate(508.154297 0)"/>
     <use xlink:href="#DejaVuSans-Bold-430" transform="translate(571.435547 0)"/>
     <use xlink:href="#DejaVuSans-Bold-43d" transform="translate(638.916016 0)"/>
     <use xlink:href="#DejaVuSans-Bold-438" transform="translate(708.007812 0)"/>
     <use xlink:href="#DejaVuSans-Bold-435" transform="translate(778.076172 0)"/>
     <use xlink:href="#DejaVuSans-Bold-20" transform="translate(845.898438 0)"/>
     <use xlink:href="#DejaVuSans-Bold-440" transform="translate(880.712891 0)"/>
     <use xlink:href="#DejaVuSans-Bold-44f" transform="translate(952.294922 0)"/>
     <use xlink:href="#DejaVuSans-Bold-434" transform="translate(1016.503906 0)"/>
     <use xlink:href="#DejaVuSans-Bold-430" transform="translate(1097.265625 0)"/>
     <use xlink:href="#DejaVuSans-Bold-20" transform="translate(1164.746094 0)"/>
     <use xlink:href="#DejaVuSans-Bold-43f" transform="translate(1199.560547 0)"/>
     <use xlink:href="#DejaVuSans-Bold-43e" transform="translate(1268.652344 0)"/>
     <use xlink:href="#DejaVuSans-Bold-20" transform="translate(1337.353516 0)"/>
     <use xlink:href="#DejaVuSans-Bold-43f" transform="translate(1372.167969 0)"/>
     <use xlink:href="#DejaVuSans-Bold-440" transform="translate(1441.259766 0)"/>
     <use xlink:href="#DejaVuSans-Bold-44f" transform="translate(1512.841797 0)"/>
     <use xlink:href="#DejaVuSans-Bold-43c" transform="translate(1577.050781 0)"/>
     <use xlink:href="#DejaVuSans-Bold-43e" transform="translate(1658.789062 0)"/>
     <use xlink:href="#DejaVuSans-Bold-439" transform="translate(1727.490234 0)"/>
     <use xlink:href="#DejaVuSans-Bold-20" transform="translate(1797.558594 0)"/>
     <use xlink:href="#DejaVuSans-Bold-43c" transform="translate(1832.373047 0)"/>
     <use xlink:href="#DejaVuSans-Bold-435" transform="translate(1914.111328 0)"/>
     <use xlink:href="#DejaVuSans-Bold-442" transform="translate(1981.933594 0)"/>
     <use xlink:href="#DejaVuSans-Bold-43e" transform="translate(2039.892578 0)"/>
     <use xlink:href="#DejaVuSans-Bold-434" transform="translate(2108.59375 0)"/>
     <use xlink:href="#DejaVuSans-Bold-43e" transform="translate(2189.355469 0)"/>
     <use xlink:href="#DejaVuSans-Bold-43c" transform="translate(2258.056641 0)"/>
     <use xlink:href="#DejaVuSans-Bold-20" transform="translate(2339.794922 0)"/>
     <use xlink:href="#DejaVuSans-Bold-43d" transform="translate(2374.609375 0)"/>
     <use xlink:href="#DejaVuSans-Bold-430" transform="translate(2443.701172 0)"/>
     <use xlink:href="#DejaVuSans-Bold-438" transform="translate(2511.181641 0)"/>
     <use xlink:href="#DejaVuSans-Bold-43c" transform="translate(2581.25 0)"/>
     <use xlink:href="#DejaVuSans-Bold-435" transform="translate(2662.988281 0)"/>
     <use xlink:href="#DejaVuSans-Bold-43d" transform="translate(2730.810547 0)"/>
     <use xlink:href="#DejaVuSans-Bold-44c" transform="translate(2799.902344 0)"/>
     <use xlink:href="#DejaVuSans-Bold-448" transform="translate(2863.134766 0)"/>
     <use xlink:href="#DejaVuSans-Bold-438" transform="translate(2969.335938 0)"/>
     <use xlink:href="#DejaVuSans-Bold-445" transform="translate(3039.404297 0)"/>
     <use xlink:href="#DejaVuSans-Bold-20" transform="translate(3103.90625 0)"/>
     <use xlink:href="#DejaVuSans-Bold-43a" transform="translate(3138.720703 0)"/>
     <use xlink:href="#DejaVuSans-Bold-432" transform="translate(3206.591797 0)"/>
     <use xlink:href="#DejaVuSans-Bold-430" transform="translate(3269.873047 0)"/>
     <use xlink:href="#DejaVuSans-Bold-434" transform="translate(3337.353516 0)"/>
     <use xlink:href="#DejaVuSans-Bold-440" transform="translate(3418.115234 0)"/>
     <use xlink:href="#DejaVuSans-Bold-430" transform="translate(3489.697266 0)"/>
     <use xlink:href="#DejaVuSans-Bold-442" transform="translate(3557.177734 0)"/>
     <use xlink:href="#DejaVuSans-Bold-43e" transform="translate(3615.136719 0)"/>
     <use xlink:href="#DejaVuSans-Bold-432" transform="translate(3683.837891 0)"/>
    </g>
   </g>
   <g id="PathCollection_2">
    <defs>
     <path id="m23cbd5986a" d="M -0 6.324555 
L 6.324555 0 
L 0 -6.324555 
L -6.324555 -0 
z
" style="stroke: #ffffff"/>
    </defs>
    <g clip-path="url(#p9c1502f7da)">
     <use xlink:href="#m23cbd5986a" x="541.561312" y="38.609091" style="fill: #27ae60; stroke: #ffffff"/>
    </g>
   </g>
   <g id="legend_1">
    <g id="line2d_33">
     <path d="M 53.698864 39.928636 
L 63.198864 39.928636 
L 72.698864 39.928636 
" style="fill: none; stroke: #1a3a5c; stroke-width: 2.4; stroke-linecap: square"/>
    </g>
    <g id="text_17">
     <!-- $\hat y_t = 10{,}5 + 2{,}5\,t$ -->
     <g transform="translate(80.298864 43.253636) scale(0.095 -0.095)">
      <defs>
       <path id="DejaVuSans-302" d="M -1831 5119 
L -1369 5119 
L -603 3944 
L -1038 3944 
L -1600 4709 
L -2163 3944 
L -2597 3944 
L -1831 5119 
z
M -1600 3584 
L -1600 3584 
z
" transform="scale(0.015625)"/>
       <path id="DejaVuSans-Oblique-79" d="M 1588 -325 
Q 1188 -997 936 -1164 
Q 684 -1331 294 -1331 
L -159 -1331 
L -63 -850 
L 269 -850 
Q 509 -850 678 -719 
Q 847 -588 1056 -206 
L 1234 128 
L 459 3500 
L 1069 3500 
L 1650 819 
L 3256 3500 
L 3859 3500 
L 1588 -325 
z
" transform="scale(0.015625)"/>
       <path id="DejaVuSans-Oblique-74" d="M 2706 3500 
L 2619 3053 
L 1472 3053 
L 1100 1153 
Q 1081 1047 1072 975 
Q 1063 903 1063 863 
Q 1063 663 1183 572 
Q 1303 481 1569 481 
L 2150 481 
L 2053 0 
L 1503 0 
Q 991 0 739 200 
Q 488 400 488 806 
Q 488 878 497 964 
Q 506 1050 525 1153 
L 897 3053 
L 409 3053 
L 500 3500 
L 978 3500 
L 1172 4494 
L 1747 4494 
L 1556 3500 
L 2706 3500 
z
" transform="scale(0.015625)"/>
       <path id="DejaVuSans-3d" d="M 678 2906 
L 4684 2906 
L 4684 2381 
L 678 2381 
L 678 2906 
z
M 678 1631 
L 4684 1631 
L 4684 1100 
L 678 1100 
L 678 1631 
z
" transform="scale(0.015625)"/>
       <path id="DejaVuSans-2b" d="M 2944 4013 
L 2944 2272 
L 4684 2272 
L 4684 1741 
L 2944 1741 
L 2944 0 
L 2419 0 
L 2419 1741 
L 678 1741 
L 678 2272 
L 2419 2272 
L 2419 4013 
L 2944 4013 
z
" transform="scale(0.015625)"/>
      </defs>
      <use xlink:href="#DejaVuSans-302" transform="translate(64.273438 12.015625)"/>
      <use xlink:href="#DejaVuSans-Oblique-79" transform="translate(0 0.828125)"/>
      <use xlink:href="#DejaVuSans-Oblique-74" transform="translate(63.738281 -15.578125) scale(0.7)"/>
      <use xlink:href="#DejaVuSans-3d" transform="translate(113.401367 0.828125)"/>
      <use xlink:href="#DejaVuSans-31" transform="translate(216.672852 0.828125)"/>
      <use xlink:href="#DejaVuSans-30" transform="translate(280.295898 0.828125)"/>
      <use xlink:href="#DejaVuSans-2c" transform="translate(343.918945 0.828125)"/>
      <use xlink:href="#DejaVuSans-35" transform="translate(375.706055 0.828125)"/>
      <use xlink:href="#DejaVuSans-2b" transform="translate(458.811523 0.828125)"/>
      <use xlink:href="#DejaVuSans-32" transform="translate(562.083008 0.828125)"/>
      <use xlink:href="#DejaVuSans-2c" transform="translate(625.706055 0.828125)"/>
      <use xlink:href="#DejaVuSans-35" transform="translate(657.493164 0.828125)"/>
      <use xlink:href="#DejaVuSans-Oblique-74" transform="translate(737.351887 0.828125)"/>
     </g>
    </g>
    <g id="PathCollection_3">
     <g>
      <use xlink:href="#mb2c810c81c" x="63.198864" y="54.723402" style="fill: #2e86c1; stroke: #ffffff"/>
     </g>
    </g>
    <g id="text_18">
     <!-- Фактические уровни $y$ -->
     <g transform="translate(80.298864 57.217152) scale(0.095 -0.095)">
      <defs>
       <path id="DejaVuSans-424" d="M 2441 3706 
Q 1763 3644 1403 3325 
Q 1044 3006 1044 2391 
Q 1044 1775 1403 1458 
Q 1763 1141 2441 1078 
L 2441 3706 
z
M 3075 1078 
Q 3753 1141 4109 1458 
Q 4466 1775 4466 2391 
Q 4466 3006 4109 3325 
Q 3753 3644 3075 3706 
L 3075 1078 
z
M 2441 556 
Q 1450 628 914 1095 
Q 378 1563 378 2391 
Q 378 3219 914 3689 
Q 1450 4159 2441 4231 
L 2441 4666 
L 3075 4666 
L 3075 4231 
Q 4066 4159 4598 3692 
Q 5131 3225 5131 2391 
Q 5131 1563 4598 1095 
Q 4066 628 3075 556 
L 3075 0 
L 2441 0 
L 2441 556 
z
" transform="scale(0.015625)"/>
       <path id="DejaVuSans-43a" d="M 581 3500 
L 1153 3500 
L 1153 1856 
L 2775 3500 
L 3481 3500 
L 2144 2147 
L 3653 0 
L 3009 0 
L 1769 1766 
L 1153 1141 
L 1153 0 
L 581 0 
L 581 3500 
z
" transform="scale(0.015625)"/>
       <path id="DejaVuSans-438" d="M 3578 3500 
L 3578 0 
L 3006 0 
L 3006 2809 
L 1319 0 
L 581 0 
L 581 3500 
L 1153 3500 
L 1153 697 
L 2838 3500 
L 3578 3500 
z
" transform="scale(0.015625)"/>
       <path id="DejaVuSans-447" d="M 2625 0 
L 2625 1472 
L 1553 1472 
Q 1075 1472 756 1769 
Q 469 2038 469 2613 
L 469 3500 
L 1044 3500 
L 1044 2666 
Q 1044 2300 1206 2116 
Q 1372 1931 1697 1931 
L 2625 1931 
L 2625 3500 
L 3200 3500 
L 3200 0 
L 2625 0 
z
" transform="scale(0.015625)"/>
       <path id="DejaVuSans-435" d="M 3597 1894 
L 3597 1613 
L 953 1613 
Q 991 1019 1311 708 
Q 1631 397 2203 397 
Q 2534 397 2845 478 
Q 3156 559 3463 722 
L 3463 178 
Q 3153 47 2828 -22 
Q 2503 -91 2169 -91 
Q 1331 -91 842 396 
Q 353 884 353 1716 
Q 353 2575 817 3079 
Q 1281 3584 2069 3584 
Q 2775 3584 3186 3129 
Q 3597 2675 3597 1894 
z
M 3022 2063 
Q 3016 2534 2758 2815 
Q 2500 3097 2075 3097 
Q 1594 3097 1305 2825 
Q 1016 2553 972 2059 
L 3022 2063 
z
" transform="scale(0.015625)"/>
       <path id="DejaVuSans-443" d="M 2059 -325 
Q 1816 -950 1584 -1140 
Q 1353 -1331 966 -1331 
L 506 -1331 
L 506 -850 
L 844 -850 
Q 1081 -850 1212 -737 
Q 1344 -625 1503 -206 
L 1606 56 
L 191 3500 
L 800 3500 
L 1894 763 
L 2988 3500 
L 3597 3500 
L 2059 -325 
z
" transform="scale(0.015625)"/>
       <path id="DejaVuSans-432" d="M 1156 1613 
L 1156 459 
L 1975 459 
Q 2369 459 2575 607 
Q 2781 756 2781 1038 
Q 2781 1319 2575 1466 
Q 2369 1613 1975 1613 
L 1156 1613 
z
M 1156 3041 
L 1156 2072 
L 1913 2072 
Q 2238 2072 2444 2201 
Q 2650 2331 2650 2563 
Q 2650 2794 2444 2917 
Q 2238 3041 1913 3041 
L 1156 3041 
z
M 581 3500 
L 1950 3500 
Q 2566 3500 2897 3275 
Q 3228 3050 3228 2634 
Q 3228 2313 3059 2123 
Q 2891 1934 2559 1888 
Q 2956 1813 3175 1575 
Q 3394 1338 3394 981 
Q 3394 513 3033 256 
Q 2672 0 2003 0 
L 581 0 
L 581 3500 
z
" transform="scale(0.015625)"/>
       <path id="DejaVuSans-43d" d="M 581 3500 
L 1159 3500 
L 1159 2072 
L 3025 2072 
L 3025 3500 
L 3603 3500 
L 3603 0 
L 3025 0 
L 3025 1613 
L 1159 1613 
L 1159 0 
L 581 0 
L 581 3500 
z
" transform="scale(0.015625)"/>
      </defs>
      <use xlink:href="#DejaVuSans-424" transform="translate(0 0.09375)"/>
      <use xlink:href="#DejaVuSans-430" transform="translate(86.083984 0.09375)"/>
      <use xlink:href="#DejaVuSans-43a" transform="translate(147.363281 0.09375)"/>
      <use xlink:href="#DejaVuSans-442" transform="translate(207.763672 0.09375)"/>
      <use xlink:href="#DejaVuSans-438" transform="translate(266.015625 0.09375)"/>
      <use xlink:href="#DejaVuSans-447" transform="translate(331.005859 0.09375)"/>
      <use xlink:href="#DejaVuSans-435" transform="translate(390.087891 0.09375)"/>
      <use xlink:href="#DejaVuSans-441" transform="translate(451.611328 0.09375)"/>
      <use xlink:href="#DejaVuSans-43a" transform="translate(506.591797 0.09375)"/>
      <use xlink:href="#DejaVuSans-438" transform="translate(566.992188 0.09375)"/>
      <use xlink:href="#DejaVuSans-435" transform="translate(631.982422 0.09375)"/>
      <use xlink:href="#DejaVuSans-20" transform="translate(693.505859 0.09375)"/>
      <use xlink:href="#DejaVuSans-443" transform="translate(725.292969 0.09375)"/>
      <use xlink:href="#DejaVuSans-440" transform="translate(784.472656 0.09375)"/>
      <use xlink:href="#DejaVuSans-43e" transform="translate(847.949219 0.09375)"/>
      <use xlink:href="#DejaVuSans-432" transform="translate(909.130859 0.09375)"/>
      <use xlink:href="#DejaVuSans-43d" transform="translate(968.066406 0.09375)"/>
      <use xlink:href="#DejaVuSans-438" transform="translate(1033.447266 0.09375)"/>
      <use xlink:href="#DejaVuSans-20" transform="translate(1098.4375 0.09375)"/>
      <use xlink:href="#DejaVuSans-Oblique-79" transform="translate(1130.224609 0.09375)"/>
     </g>
    </g>
    <g id="PathCollection_4">
     <g>
      <use xlink:href="#m23cbd5986a" x="63.198864" y="68.686918" style="fill: #27ae60; stroke: #ffffff"/>
     </g>
    </g>
    <g id="text_19">
     <!-- Прогноз 2025: 25,5 -->
     <g transform="translate(80.298864 71.180668) scale(0.095 -0.095)">
      <defs>
       <path id="DejaVuSans-41f" d="M 4184 4666 
L 4184 0 
L 3553 0 
L 3553 4134 
L 1259 4134 
L 1259 0 
L 628 0 
L 628 4666 
L 4184 4666 
z
" transform="scale(0.015625)"/>
       <path id="DejaVuSans-433" d="M 581 0 
L 581 3500 
L 3050 3500 
L 3050 3041 
L 1159 3041 
L 1159 0 
L 581 0 
z
" transform="scale(0.015625)"/>
       <path id="DejaVuSans-437" d="M 2206 1888 
Q 2594 1813 2809 1584 
Q 3025 1356 3025 1019 
Q 3025 478 2622 193 
Q 2219 -91 1475 -91 
Q 1225 -91 961 -47 
Q 697 -3 416 84 
L 416 619 
Q 638 503 903 445 
Q 1169 388 1459 388 
Q 1931 388 2195 563 
Q 2459 738 2459 1019 
Q 2459 1294 2225 1461 
Q 1991 1628 1563 1628 
L 1100 1628 
L 1100 2103 
L 1584 2103 
Q 1947 2103 2158 2242 
Q 2369 2381 2369 2600 
Q 2369 2800 2151 2944 
Q 1934 3088 1563 3088 
Q 1341 3088 1089 3047 
Q 838 3006 534 2916 
L 534 3438 
Q 841 3513 1106 3550 
Q 1372 3588 1609 3588 
Q 2222 3588 2576 3342 
Q 2931 3097 2931 2656 
Q 2931 2366 2743 2164 
Q 2556 1963 2206 1888 
z
" transform="scale(0.015625)"/>
       <path id="DejaVuSans-3a" d="M 750 794 
L 1409 794 
L 1409 0 
L 750 0 
L 750 794 
z
M 750 3309 
L 1409 3309 
L 1409 2516 
L 750 2516 
L 750 3309 
z
" transform="scale(0.015625)"/>
      </defs>
      <use xlink:href="#DejaVuSans-41f"/>
      <use xlink:href="#DejaVuSans-440" transform="translate(75.195312 0)"/>
      <use xlink:href="#DejaVuSans-43e" transform="translate(138.671875 0)"/>
      <use xlink:href="#DejaVuSans-433" transform="translate(199.853516 0)"/>
      <use xlink:href="#DejaVuSans-43d" transform="translate(252.392578 0)"/>
      <use xlink:href="#DejaVuSans-43e" transform="translate(317.773438 0)"/>
      <use xlink:href="#DejaVuSans-437" transform="translate(378.955078 0)"/>
      <use xlink:href="#DejaVuSans-20" transform="translate(432.128906 0)"/>
      <use xlink:href="#DejaVuSans-32" transform="translate(463.916016 0)"/>
      <use xlink:href="#DejaVuSans-30" transform="translate(527.539062 0)"/>
      <use xlink:href="#DejaVuSans-32" transform="translate(591.162109 0)"/>
      <use xlink:href="#DejaVuSans-35" transform="translate(654.785156 0)"/>
      <use xlink:href="#DejaVuSans-3a" transform="translate(718.408203 0)"/>
      <use xlink:href="#DejaVuSans-20" transform="translate(752.099609 0)"/>
      <use xlink:href="#DejaVuSans-32" transform="translate(783.886719 0)"/>
      <use xlink:href="#DejaVuSans-35" transform="translate(847.509766 0)"/>
      <use xlink:href="#DejaVuSans-2c" transform="translate(911.132812 0)"/>
      <use xlink:href="#DejaVuSans-35" transform="translate(942.919922 0)"/>
     </g>
    </g>
   </g>
  </g>
 </g>
 <defs>
  <clipPath id="p9c1502f7da">
   <rect x="45.148864" y="25.963636" width="520.051136" height="278.2"/>
  </clipPath>
 </defs>
</svg>
