<svg xmlns="http://www.w3.org/2000/svg" width="640" height="360" viewBox="0 0 640 360" font-family="-apple-system, Segoe UI, Helvetica, Arial, sans-serif">
  <polygon points="197.7,320.0 197.7,281.0 201.1,277.1 204.5,272.8 207.9,268.2 211.3,263.4 214.7,258.2 218.1,252.8 221.4,247.0 224.8,241.0 228.2,234.6 231.6,228.0 235.0,221.2 238.4,214.1 241.8,206.7 245.2,199.2 248.6,191.5 252.0,183.6 255.4,175.7 258.8,167.6 262.2,159.5 265.5,151.4 268.9,143.3 272.3,135.4 275.7,127.5 279.1,119.8 282.5,112.4 285.9,105.2 289.3,98.3 292.7,91.7 296.1,85.6 299.5,79.9 302.9,74.7 306.3,70.0 309.6,65.9 313.0,62.3 316.4,59.4 319.8,57.0 323.2,55.4 326.6,54.4 330.0,54.0 333.4,54.4 336.8,55.4 340.2,57.0 343.6,59.4 347.0,62.3 350.4,65.9 353.7,70.0 357.1,74.7 360.5,79.9 363.9,85.6 367.3,91.7 370.7,98.3 374.1,105.2 377.5,112.4 380.9,119.8 384.3,127.5 387.7,135.4 391.1,143.3 394.5,151.4 397.8,159.5 401.2,167.6 404.6,175.7 408.0,183.6 411.4,191.5 414.8,199.2 418.2,206.7 421.6,214.1 425.0,221.2 428.4,228.0 431.8,234.6 435.2,241.0 438.6,247.0 441.9,252.8 445.3,258.2 448.7,263.4 452.1,268.2 455.5,272.8 458.9,277.1 462.3,281.0 462.3,320.0" fill="#9db8d2" fill-opacity="0.55"/>
  <polyline points="60.0,319.9 63.4,319.9 66.8,319.9 70.1,319.8 73.5,319.8 76.9,319.8 80.2,319.7 83.6,319.7 87.0,319.6 90.4,319.5 93.8,319.4 97.1,319.3 100.5,319.2 103.9,319.0 107.3,318.9 110.6,318.6 114.0,318.4 117.4,318.1 120.8,317.8 124.1,317.5 127.5,317.0 130.9,316.6 134.2,316.0 137.6,315.4 141.0,314.7 144.4,313.9 147.8,313.1 151.1,312.1 154.5,310.9 157.9,309.7 161.2,308.3 164.6,306.8 168.0,305.1 171.4,303.2 174.8,301.1 178.1,298.8 181.5,296.4 184.9,293.6 188.2,290.7 191.6,287.5 195.0,284.0 198.4,280.3 201.8,276.3 205.1,272.0 208.5,267.4 211.9,262.5 215.2,257.3 218.6,251.8 222.0,246.1 225.4,240.0 228.8,233.7 232.1,227.0 235.5,220.2 238.9,213.1 242.2,205.8 245.6,198.2 249.0,190.5 252.4,182.7 255.8,174.8 259.1,166.7 262.5,158.7 265.9,150.6 269.2,142.6 272.6,134.7 276.0,126.9 279.4,119.2 282.8,111.8 286.1,104.7 289.5,97.9 292.9,91.4 296.2,85.3 299.6,79.6 303.0,74.5 306.4,69.8 309.8,65.7 313.1,62.2 316.5,59.3 319.9,57.0 323.2,55.4 326.6,54.4 330.0,54.0 333.4,54.4 336.8,55.4 340.1,57.0 343.5,59.3 346.9,62.2 350.2,65.7 353.6,69.8 357.0,74.5 360.4,79.6 363.8,85.3 367.1,91.4 370.5,97.9 373.9,104.7 377.2,111.8 380.6,119.2 384.0,126.9 387.4,134.7 390.8,142.6 394.1,150.6 397.5,158.7 400.9,166.7 404.2,174.8 407.6,182.7 411.0,190.5 414.4,198.2 417.8,205.8 421.1,213.1 424.5,220.2 427.9,227.0 431.2,233.7 434.6,240.0 438.0,246.1 441.4,251.8 444.8,257.3 448.1,262.5 451.5,267.4 454.9,272.0 458.2,276.3 461.6,280.3 465.0,284.0 468.4,287.5 471.8,290.7 475.1,293.6 478.5,296.4 481.9,298.8 485.2,301.1 488.6,303.2 492.0,305.1 495.4,306.8 498.8,308.3 502.1,309.7 505.5,310.9 508.9,312.1 512.2,313.1 515.6,313.9 519.0,314.7 522.4,315.4 525.8,316.0 529.1,316.6 532.5,317.0 535.9,317.5 539.2,317.8 542.6,318.1 546.0,318.4 549.4,318.6 552.8,318.9 556.1,319.0 559.5,319.2 562.9,319.3 566.2,319.4 569.6,319.5 573.0,319.6 576.4,319.7 579.8,319.7 583.1,319.8 586.5,319.8 589.9,319.8 593.2,319.9 596.6,319.9 600.0,319.9" fill="none" stroke="#2e5b8a" stroke-width="2.5"/>
  <line x1="55" y1="320" x2="608" y2="320" stroke="#1f4e79" stroke-width="1.5"/>
  <line x1="60.0" y1="320" x2="60.0" y2="324" stroke="#1f4e79" stroke-width="1"/><text x="60.0" y="338" font-size="11" fill="#444" text-anchor="middle">-4</text><line x1="127.5" y1="320" x2="127.5" y2="324" stroke="#1f4e79" stroke-width="1"/><text x="127.5" y="338" font-size="11" fill="#444" text-anchor="middle">-3</text><line x1="195.0" y1="320" x2="195.0" y2="324" stroke="#1f4e79" stroke-width="1"/><text x="195.0" y="338" font-size="11" fill="#444" text-anchor="middle">-2</text><line x1="262.5" y1="320" x2="262.5" y2="324" stroke="#1f4e79" stroke-width="1"/><text x="262.5" y="338" font-size="11" fill="#444" text-anchor="middle">-1</text><line x1="330.0" y1="320" x2="330.0" y2="324" stroke="#1f4e79" stroke-width="1"/><text x="330.0" y="338" font-size="11" fill="#444" text-anchor="middle">0</text><line x1="397.5" y1="320" x2="397.5" y2="324" stroke="#1f4e79" stroke-width="1"/><text x="397.5" y="338" font-size="11" fill="#444" text-anchor="middle">1</text><line x1="465.0" y1="320" x2="465.0" y2="324" stroke="#1f4e79" stroke-width="1"/><text x="465.0" y="338" font-size="11" fill="#444" text-anchor="middle">2</text><line x1="532.5" y1="320" x2="532.5" y2="324" stroke="#1f4e79" stroke-width="1"/><text x="532.5" y="338" font-size="11" fill="#444" text-anchor="middle">3</text><line x1="600.0" y1="320" x2="600.0" y2="324" stroke="#1f4e79" stroke-width="1"/><text x="600.0" y="338" font-size="11" fill="#444" text-anchor="middle">4</text>
  <line x1="330.0" y1="320" x2="330.0" y2="54.0" stroke="#888" stroke-width="1" stroke-dasharray="4 3"/>
  <circle cx="197.7" cy="320.0" r="4" fill="#2e5b8a"/>
  <circle cx="462.3" cy="320.0" r="4" fill="#2e5b8a"/>
  <rect x="308.0" y="120.0" width="44" height="20" fill="#fff" stroke="#c00" stroke-width="1.2"/>
  <text x="330.0" y="134.0" font-size="13" fill="#1f4e79" text-anchor="middle">0,95</text>
  <rect x="157.7" y="263.3" width="42" height="18" fill="#fff" stroke="#c00" stroke-width="1.2"/>
  <text x="178.7" y="276.3" font-size="12" fill="#1f4e79" text-anchor="middle">-1,96</text>
  <rect x="460.3" y="263.3" width="38" height="18" fill="#fff" stroke="#c00" stroke-width="1.2"/>
  <text x="479.3" y="276.3" font-size="12" fill="#1f4e79" text-anchor="middle">1,96</text>
</svg>
