<svg xmlns="http://www.w3.org/2000/svg" width="640" height="340" viewBox="0 0 640 340" font-family="-apple-system, Segoe UI, Helvetica, Arial, sans-serif">
  <line x1="55" y1="300" x2="608" y2="300" stroke="#1f4e79" stroke-width="1.5"/>
  <line x1="60.0" y1="300" x2="60.0" y2="304" stroke="#1f4e79" stroke-width="1"/><text x="60.0" y="318" font-size="11" fill="#444" text-anchor="middle">-4</text><line x1="127.5" y1="300" x2="127.5" y2="304" stroke="#1f4e79" stroke-width="1"/><text x="127.5" y="318" font-size="11" fill="#444" text-anchor="middle">-3</text><line x1="195.0" y1="300" x2="195.0" y2="304" stroke="#1f4e79" stroke-width="1"/><text x="195.0" y="318" font-size="11" fill="#444" text-anchor="middle">-2</text><line x1="262.5" y1="300" x2="262.5" y2="304" stroke="#1f4e79" stroke-width="1"/><text x="262.5" y="318" font-size="11" fill="#444" text-anchor="middle">-1</text><line x1="330.0" y1="300" x2="330.0" y2="304" stroke="#1f4e79" stroke-width="1"/><text x="330.0" y="318" font-size="11" fill="#444" text-anchor="middle">0</text><line x1="397.5" y1="300" x2="397.5" y2="304" stroke="#1f4e79" stroke-width="1"/><text x="397.5" y="318" font-size="11" fill="#444" text-anchor="middle">1</text><line x1="465.0" y1="300" x2="465.0" y2="304" stroke="#1f4e79" stroke-width="1"/><text x="465.0" y="318" font-size="11" fill="#444" text-anchor="middle">2</text><line x1="532.5" y1="300" x2="532.5" y2="304" stroke="#1f4e79" stroke-width="1"/><text x="532.5" y="318" font-size="11" fill="#444" text-anchor="middle">3</text><line x1="600.0" y1="300" x2="600.0" y2="304" stroke="#1f4e79" stroke-width="1"/><text x="600.0" y="318" font-size="11" fill="#444" text-anchor="middle">4</text>
  <polyline points="60.0,288.4 62.7,288.2 65.4,288.0 68.1,287.7 70.8,287.5 73.5,287.2 76.2,287.0 78.9,286.7 81.6,286.5 84.3,286.2 87.0,285.9 89.7,285.6 92.4,285.3 95.1,285.0 97.8,284.6 100.5,284.3 103.2,284.0 105.9,283.6 108.6,283.2 111.3,282.9 114.0,282.5 116.7,282.1 119.4,281.6 122.1,281.2 124.8,280.8 127.5,280.3 130.2,279.8 132.9,279.3 135.6,278.8 138.3,278.3 141.0,277.7 143.7,277.1 146.4,276.5 149.1,275.9 151.8,275.3 154.5,274.6 157.2,273.9 159.9,273.2 162.6,272.4 165.3,271.7 168.0,270.9 170.7,270.0 173.4,269.1 176.1,268.2 178.8,267.3 181.5,266.3 184.2,265.2 186.9,264.1 189.6,263.0 192.3,261.8 195.0,260.6 197.7,259.3 200.4,258.0 203.1,256.5 205.8,255.1 208.5,253.5 211.2,251.9 213.9,250.2 216.6,248.4 219.3,246.6 222.0,244.6 224.7,242.6 227.4,240.5 230.1,238.2 232.8,235.9 235.5,233.4 238.2,230.9 240.9,228.1 243.6,225.3 246.3,222.3 249.0,219.2 251.7,216.0 254.4,212.6 257.1,209.0 259.8,205.3 262.5,201.5 265.2,197.5 267.9,193.3 270.6,188.9 273.3,184.5 276.0,179.8 278.7,175.1 281.4,170.2 284.1,165.3 286.8,160.2 289.5,155.1 292.2,150.0 294.9,144.9 297.6,139.8 300.3,134.9 303.0,130.1 305.7,125.6 308.4,121.3 311.1,117.3 313.8,113.7 316.5,110.5 319.2,107.9 321.9,105.7 324.6,104.2 327.3,103.3 330.0,103.0 332.7,103.3 335.4,104.2 338.1,105.7 340.8,107.9 343.5,110.5 346.2,113.7 348.9,117.3 351.6,121.3 354.3,125.6 357.0,130.1 359.7,134.9 362.4,139.8 365.1,144.9 367.8,150.0 370.5,155.1 373.2,160.2 375.9,165.3 378.6,170.2 381.3,175.1 384.0,179.8 386.7,184.5 389.4,188.9 392.1,193.3 394.8,197.5 397.5,201.5 400.2,205.3 402.9,209.0 405.6,212.6 408.3,216.0 411.0,219.2 413.7,222.3 416.4,225.3 419.1,228.1 421.8,230.9 424.5,233.4 427.2,235.9 429.9,238.2 432.6,240.5 435.3,242.6 438.0,244.6 440.7,246.6 443.4,248.4 446.1,250.2 448.8,251.9 451.5,253.5 454.2,255.1 456.9,256.5 459.6,258.0 462.3,259.3 465.0,260.6 467.7,261.8 470.4,263.0 473.1,264.1 475.8,265.2 478.5,266.3 481.2,267.3 483.9,268.2 486.6,269.1 489.3,270.0 492.0,270.9 494.7,271.7 497.4,272.4 500.1,273.2 502.8,273.9 505.5,274.6 508.2,275.3 510.9,275.9 513.6,276.5 516.3,277.1 519.0,277.7 521.7,278.3 524.4,278.8 527.1,279.3 529.8,279.8 532.5,280.3 535.2,280.8 537.9,281.2 540.6,281.6 543.3,282.1 546.0,282.5 548.7,282.9 551.4,283.2 554.1,283.6 556.8,284.0 559.5,284.3 562.2,284.6 564.9,285.0 567.6,285.3 570.3,285.6 573.0,285.9 575.7,286.2 578.4,286.5 581.1,286.7 583.8,287.0 586.5,287.2 589.2,287.5 591.9,287.7 594.6,288.0 597.3,288.2 600.0,288.4" fill="none" stroke="#c00000" stroke-width="2"/>
  <polyline points="60.0,294.3 62.7,294.1 65.4,293.9 68.1,293.7 70.8,293.5 73.5,293.3 76.2,293.0 78.9,292.8 81.6,292.5 84.3,292.2 87.0,292.0 89.7,291.7 92.4,291.4 95.1,291.0 97.8,290.7 100.5,290.3 103.2,290.0 105.9,289.6 108.6,289.2 111.3,288.8 114.0,288.3 116.7,287.9 119.4,287.4 122.1,286.9 124.8,286.3 127.5,285.8 130.2,285.2 132.9,284.6 135.6,283.9 138.3,283.3 141.0,282.6 143.7,281.8 146.4,281.1 149.1,280.2 151.8,279.4 154.5,278.5 157.2,277.6 159.9,276.6 162.6,275.5 165.3,274.5 168.0,273.3 170.7,272.1 173.4,270.9 176.1,269.5 178.8,268.1 181.5,266.7 184.2,265.2 186.9,263.5 189.6,261.8 192.3,260.1 195.0,258.2 197.7,256.3 200.4,254.2 203.1,252.0 205.8,249.8 208.5,247.4 211.2,244.9 213.9,242.3 216.6,239.6 219.3,236.7 222.0,233.8 224.7,230.6 227.4,227.4 230.1,224.0 232.8,220.4 235.5,216.8 238.2,212.9 240.9,208.9 243.6,204.8 246.3,200.5 249.0,196.1 251.7,191.6 254.4,186.9 257.1,182.0 259.8,177.1 262.5,172.0 265.2,166.8 267.9,161.6 270.6,156.3 273.3,150.9 276.0,145.4 278.7,140.0 281.4,134.6 284.1,129.2 286.8,123.9 289.5,118.6 292.2,113.5 294.9,108.5 297.6,103.8 300.3,99.2 303.0,94.9 305.7,90.9 308.4,87.2 311.1,83.9 313.8,81.0 316.5,78.4 319.2,76.3 321.9,74.6 324.6,73.4 327.3,72.7 330.0,72.5 332.7,72.7 335.4,73.4 338.1,74.6 340.8,76.3 343.5,78.4 346.2,81.0 348.9,83.9 351.6,87.2 354.3,90.9 357.0,94.9 359.7,99.2 362.4,103.8 365.1,108.5 367.8,113.5 370.5,118.6 373.2,123.9 375.9,129.2 378.6,134.6 381.3,140.0 384.0,145.4 386.7,150.9 389.4,156.3 392.1,161.6 394.8,166.8 397.5,172.0 400.2,177.1 402.9,182.0 405.6,186.9 408.3,191.6 411.0,196.1 413.7,200.5 416.4,204.8 419.1,208.9 421.8,212.9 424.5,216.8 427.2,220.4 429.9,224.0 432.6,227.4 435.3,230.6 438.0,233.8 440.7,236.7 443.4,239.6 446.1,242.3 448.8,244.9 451.5,247.4 454.2,249.8 456.9,252.0 459.6,254.2 462.3,256.3 465.0,258.2 467.7,260.1 470.4,261.8 473.1,263.5 475.8,265.2 478.5,266.7 481.2,268.1 483.9,269.5 486.6,270.9 489.3,272.1 492.0,273.3 494.7,274.5 497.4,275.5 500.1,276.6 502.8,277.6 505.5,278.5 508.2,279.4 510.9,280.2 513.6,281.1 516.3,281.8 519.0,282.6 521.7,283.3 524.4,283.9 527.1,284.6 529.8,285.2 532.5,285.8 535.2,286.3 537.9,286.9 540.6,287.4 543.3,287.9 546.0,288.3 548.7,288.8 551.4,289.2 554.1,289.6 556.8,290.0 559.5,290.3 562.2,290.7 564.9,291.0 567.6,291.4 570.3,291.7 573.0,292.0 575.7,292.2 578.4,292.5 581.1,292.8 583.8,293.0 586.5,293.3 589.2,293.5 591.9,293.7 594.6,293.9 597.3,294.1 600.0,294.3" fill="none" stroke="#e08a00" stroke-width="2"/>
  <polyline points="60.0,298.7 62.7,298.7 65.4,298.6 68.1,298.5 70.8,298.3 73.5,298.2 76.2,298.1 78.9,298.0 81.6,297.8 84.3,297.7 87.0,297.5 89.7,297.3 92.4,297.1 95.1,296.9 97.8,296.7 100.5,296.5 103.2,296.2 105.9,296.0 108.6,295.7 111.3,295.4 114.0,295.0 116.7,294.7 119.4,294.3 122.1,293.9 124.8,293.4 127.5,292.9 130.2,292.4 132.9,291.9 135.6,291.3 138.3,290.7 141.0,290.0 143.7,289.3 146.4,288.5 149.1,287.7 151.8,286.9 154.5,285.9 157.2,284.9 159.9,283.9 162.6,282.8 165.3,281.5 168.0,280.3 170.7,278.9 173.4,277.4 176.1,275.9 178.8,274.3 181.5,272.5 184.2,270.7 186.9,268.7 189.6,266.7 192.3,264.5 195.0,262.1 197.7,259.7 200.4,257.1 203.1,254.4 205.8,251.6 208.5,248.5 211.2,245.4 213.9,242.1 216.6,238.6 219.3,235.0 222.0,231.2 224.7,227.3 227.4,223.2 230.1,219.0 232.8,214.6 235.5,210.0 238.2,205.3 240.9,200.4 243.6,195.4 246.3,190.3 249.0,185.1 251.7,179.7 254.4,174.2 257.1,168.7 259.8,163.1 262.5,157.4 265.2,151.7 267.9,145.9 270.6,140.2 273.3,134.4 276.0,128.8 278.7,123.1 281.4,117.6 284.1,112.1 286.8,106.8 289.5,101.7 292.2,96.7 294.9,92.0 297.6,87.5 300.3,83.2 303.0,79.3 305.7,75.6 308.4,72.2 311.1,69.3 313.8,66.6 316.5,64.4 319.2,62.5 321.9,61.0 324.6,60.0 327.3,59.3 330.0,59.1 332.7,59.3 335.4,60.0 338.1,61.0 340.8,62.5 343.5,64.4 346.2,66.6 348.9,69.3 351.6,72.2 354.3,75.6 357.0,79.3 359.7,83.2 362.4,87.5 365.1,92.0 367.8,96.7 370.5,101.7 373.2,106.8 375.9,112.1 378.6,117.6 381.3,123.1 384.0,128.8 386.7,134.4 389.4,140.2 392.1,145.9 394.8,151.7 397.5,157.4 400.2,163.1 402.9,168.7 405.6,174.2 408.3,179.7 411.0,185.1 413.7,190.3 416.4,195.4 419.1,200.4 421.8,205.3 424.5,210.0 427.2,214.6 429.9,219.0 432.6,223.2 435.3,227.3 438.0,231.2 440.7,235.0 443.4,238.6 446.1,242.1 448.8,245.4 451.5,248.5 454.2,251.6 456.9,254.4 459.6,257.1 462.3,259.7 465.0,262.1 467.7,264.5 470.4,266.7 473.1,268.7 475.8,270.7 478.5,272.5 481.2,274.3 483.9,275.9 486.6,277.4 489.3,278.9 492.0,280.3 494.7,281.5 497.4,282.8 500.1,283.9 502.8,284.9 505.5,285.9 508.2,286.9 510.9,287.7 513.6,288.5 516.3,289.3 519.0,290.0 521.7,290.7 524.4,291.3 527.1,291.9 529.8,292.4 532.5,292.9 535.2,293.4 537.9,293.9 540.6,294.3 543.3,294.7 546.0,295.0 548.7,295.4 551.4,295.7 554.1,296.0 556.8,296.2 559.5,296.5 562.2,296.7 564.9,296.9 567.6,297.1 570.3,297.3 573.0,297.5 575.7,297.7 578.4,297.8 581.1,298.0 583.8,298.1 586.5,298.2 589.2,298.3 591.9,298.5 594.6,298.6 597.3,298.7 600.0,298.7" fill="none" stroke="#2e8b57" stroke-width="2"/>
  <polyline points="60.0,299.9 62.7,299.9 65.4,299.9 68.1,299.9 70.8,299.8 73.5,299.8 76.2,299.8 78.9,299.8 81.6,299.7 84.3,299.7 87.0,299.6 89.7,299.6 92.4,299.5 95.1,299.4 97.8,299.3 100.5,299.2 103.2,299.1 105.9,299.0 108.6,298.9 111.3,298.7 114.0,298.5 116.7,298.3 119.4,298.1 122.1,297.8 124.8,297.6 127.5,297.3 130.2,296.9 132.9,296.5 135.6,296.1 138.3,295.6 141.0,295.1 143.7,294.5 146.4,293.9 149.1,293.2 151.8,292.4 154.5,291.6 157.2,290.7 159.9,289.7 162.6,288.6 165.3,287.4 168.0,286.1 170.7,284.8 173.4,283.3 176.1,281.6 178.8,279.9 181.5,278.0 184.2,276.0 186.9,273.9 189.6,271.6 192.3,269.2 195.0,266.6 197.7,263.8 200.4,260.9 203.1,257.8 205.8,254.6 208.5,251.1 211.2,247.5 213.9,243.7 216.6,239.8 219.3,235.6 222.0,231.3 224.7,226.9 227.4,222.2 230.1,217.4 232.8,212.4 235.5,207.3 238.2,202.1 240.9,196.7 243.6,191.1 246.3,185.5 249.0,179.8 251.7,174.0 254.4,168.1 257.1,162.2 259.8,156.2 262.5,150.2 265.2,144.2 267.9,138.3 270.6,132.3 273.3,126.5 276.0,120.7 278.7,115.0 281.4,109.4 284.1,104.0 286.8,98.8 289.5,93.7 292.2,88.9 294.9,84.3 297.6,79.9 300.3,75.8 303.0,72.0 305.7,68.5 308.4,65.4 311.1,62.5 313.8,60.0 316.5,57.9 319.2,56.2 321.9,54.8 324.6,53.8 327.3,53.2 330.0,53.0 332.7,53.2 335.4,53.8 338.1,54.8 340.8,56.2 343.5,57.9 346.2,60.0 348.9,62.5 351.6,65.4 354.3,68.5 357.0,72.0 359.7,75.8 362.4,79.9 365.1,84.3 367.8,88.9 370.5,93.7 373.2,98.8 375.9,104.0 378.6,109.4 381.3,115.0 384.0,120.7 386.7,126.5 389.4,132.3 392.1,138.3 394.8,144.2 397.5,150.2 400.2,156.2 402.9,162.2 405.6,168.1 408.3,174.0 411.0,179.8 413.7,185.5 416.4,191.1 419.1,196.7 421.8,202.1 424.5,207.3 427.2,212.4 429.9,217.4 432.6,222.2 435.3,226.9 438.0,231.3 440.7,235.6 443.4,239.8 446.1,243.7 448.8,247.5 451.5,251.1 454.2,254.6 456.9,257.8 459.6,260.9 462.3,263.8 465.0,266.6 467.7,269.2 470.4,271.6 473.1,273.9 475.8,276.0 478.5,278.0 481.2,279.9 483.9,281.6 486.6,283.3 489.3,284.8 492.0,286.1 494.7,287.4 497.4,288.6 500.1,289.7 502.8,290.7 505.5,291.6 508.2,292.4 510.9,293.2 513.6,293.9 516.3,294.5 519.0,295.1 521.7,295.6 524.4,296.1 527.1,296.5 529.8,296.9 532.5,297.3 535.2,297.6 537.9,297.8 540.6,298.1 543.3,298.3 546.0,298.5 548.7,298.7 551.4,298.9 554.1,299.0 556.8,299.1 559.5,299.2 562.2,299.3 564.9,299.4 567.6,299.5 570.3,299.6 573.0,299.6 575.7,299.7 578.4,299.7 581.1,299.8 583.8,299.8 586.5,299.8 589.2,299.8 591.9,299.9 594.6,299.9 597.3,299.9 600.0,299.9" fill="none" stroke="#1f4e79" stroke-width="3"/>
  
  <line x1="410" y1="70" x2="438" y2="70" stroke="#1f4e79" stroke-width="3"/>
  <text x="444" y="74" font-size="13" fill="#222">нормальное (z)</text>
  <line x1="410" y1="92" x2="438" y2="92" stroke="#2e8b57" stroke-width="2.2"/>
  <text x="444" y="96" font-size="13" fill="#222">t, df = 10</text>
  <line x1="410" y1="114" x2="438" y2="114" stroke="#e08a00" stroke-width="2.2"/>
  <text x="444" y="118" font-size="13" fill="#222">t, df = 3</text>
  <line x1="410" y1="136" x2="438" y2="136" stroke="#c00000" stroke-width="2.2"/>
  <text x="444" y="140" font-size="13" fill="#222">t, df = 1</text>

</svg>
