<?xml version="1.0" encoding="utf-8" standalone="no"?>
<!DOCTYPE svg PUBLIC "-//W3C//DTD SVG 1.1//EN"
  "http://www.w3.org/Graphics/SVG/1.1/DTD/svg11.dtd">
<svg xmlns:xlink="http://www.w3.org/1999/xlink" width="792pt" height="374.4pt" viewBox="0 0 792 374.4" xmlns="http://www.w3.org/2000/svg" version="1.1">
 <metadata>
  <rdf:RDF xmlns:dc="http://purl.org/dc/elements/1.1/" xmlns:cc="http://creativecommons.org/ns#" xmlns:rdf="http://www.w3.org/1999/02/22-rdf-syntax-ns#">
   <cc:Work>
    <dc:type rdf:resource="http://purl.org/dc/dcmitype/StillImage"/>
    <dc:date>2026-06-27T19:52:56.394887</dc:date>
    <dc:format>image/svg+xml</dc:format>
    <dc:creator>
     <cc:Agent>
      <dc:title>Matplotlib v3.10.8, https://matplotlib.org/</dc:title>
     </cc:Agent>
    </dc:creator>
   </cc:Work>
  </rdf:RDF>
 </metadata>
 <defs>
  <style type="text/css">*{stroke-linejoin: round; stroke-linecap: butt}</style>
 </defs>
 <g id="figure_1">
  <g id="patch_1">
   <path d="M 0 374.4 
L 792 374.4 
L 792 0 
L 0 0 
z
" style="fill: #ffffff"/>
  </g>
  <g id="axes_1">
   <g id="patch_2">
    <path d="M 10.8 201.146523 
L 195.3 201.146523 
L 195.3 63.347591 
L 10.8 63.347591 
z
" style="fill: #ffffff"/>
   </g>
   <g id="matplotlib.axis_1"/>
   <g id="matplotlib.axis_2"/>
   <g id="line2d_1">
    <path d="M 19.186364 194.882935 
L 20.880579 193.617564 
L 22.574793 192.352192 
L 24.269008 191.086821 
L 25.963223 189.82145 
L 27.657438 188.556079 
L 29.351653 187.290707 
L 31.045868 186.025336 
L 32.740083 184.759965 
L 34.434298 183.494593 
L 36.128512 182.229222 
L 37.822727 180.963851 
L 39.516942 179.69848 
L 41.211157 178.433108 
L 42.905372 177.167737 
L 44.599587 175.902366 
L 46.293802 174.636995 
L 47.988017 173.371623 
L 49.682231 172.106252 
L 51.376446 170.840881 
L 53.070661 169.575509 
L 54.764876 168.310138 
L 56.459091 167.044767 
L 58.153306 165.779396 
L 59.847521 164.514024 
L 61.541736 163.248653 
L 63.23595 161.983282 
L 64.930165 160.71791 
L 66.62438 159.452539 
L 68.318595 158.187168 
L 70.01281 156.921797 
L 71.707025 155.656425 
L 73.40124 154.391054 
L 75.095455 153.125683 
L 76.789669 151.860312 
L 78.483884 150.59494 
L 80.178099 149.329569 
L 81.872314 148.064198 
L 83.566529 146.798826 
L 85.260744 145.533455 
L 86.954959 144.268084 
L 88.649174 143.002713 
L 90.343388 141.737341 
L 92.037603 140.47197 
L 93.731818 139.206599 
L 95.426033 137.941228 
L 97.120248 136.675856 
L 98.814463 135.410485 
L 100.508678 134.145114 
L 102.202893 132.879742 
L 103.897107 131.614371 
L 105.591322 130.349 
L 107.285537 129.083629 
L 108.979752 127.818257 
L 110.673967 126.552886 
L 112.368182 125.287515 
L 114.062397 124.022144 
L 115.756612 122.756772 
L 117.450826 121.491401 
L 119.145041 120.22603 
L 120.839256 118.960658 
L 122.533471 117.695287 
L 124.227686 116.429916 
L 125.921901 115.164545 
L 127.616116 113.899173 
L 129.310331 112.633802 
L 131.004545 111.368431 
L 132.69876 110.10306 
L 134.392975 108.837688 
L 136.08719 107.572317 
L 137.781405 106.306946 
L 139.47562 105.041574 
L 141.169835 103.776203 
L 142.86405 102.510832 
L 144.558264 101.245461 
L 146.252479 99.980089 
L 147.946694 98.714718 
L 149.640909 97.449347 
L 151.335124 96.183975 
L 153.029339 94.918604 
L 154.723554 93.653233 
L 156.417769 92.387862 
L 158.111983 91.12249 
L 159.806198 89.857119 
L 161.500413 88.591748 
L 163.194628 87.326377 
L 164.888843 86.061005 
L 166.583058 84.795634 
L 168.277273 83.530263 
L 169.971488 82.264891 
L 171.665702 80.99952 
L 173.359917 79.734149 
L 175.054132 78.468778 
L 176.748347 77.203406 
L 178.442562 75.938035 
L 180.136777 74.672664 
L 181.830992 73.407293 
L 183.525207 72.141921 
L 185.219421 70.87655 
L 186.913636 69.611179 
" clip-path="url(#pe93ddaed18)" style="fill: none; stroke: #1a3a5c; stroke-width: 2.2; stroke-linecap: square"/>
   </g>
   <g id="patch_3">
    <path d="M 10.8 201.146523 
L 10.8 63.347591 
" style="fill: none; stroke: #bbbbbb; stroke-width: 0.8; stroke-linejoin: miter; stroke-linecap: square"/>
   </g>
   <g id="patch_4">
    <path d="M 10.8 201.146523 
L 195.3 201.146523 
" style="fill: none; stroke: #bbbbbb; stroke-width: 0.8; stroke-linejoin: miter; stroke-linecap: square"/>
   </g>
   <g id="text_1">
    <!-- Прямая линия -->
    <g style="fill: #1a3a5c" transform="translate(60.295312 57.347591) scale(0.105 -0.105)">
     <defs>
      <path id="DejaVuSans-Bold-41f" d="M 4769 4666 
L 4769 0 
L 3566 0 
L 3566 3756 
L 1791 3756 
L 1791 0 
L 588 0 
L 588 4666 
L 4769 4666 
z
" transform="scale(0.015625)"/>
      <path id="DejaVuSans-Bold-440" d="M 1656 506 
L 1656 -1331 
L 538 -1331 
L 538 3500 
L 1656 3500 
L 1656 2988 
Q 1888 3294 2169 3439 
Q 2450 3584 2816 3584 
Q 3463 3584 3878 3070 
Q 4294 2556 4294 1747 
Q 4294 938 3878 423 
Q 3463 -91 2816 -91 
Q 2450 -91 2169 54 
Q 1888 200 1656 506 
z
M 2400 2772 
Q 2041 2772 1848 2508 
Q 1656 2244 1656 1747 
Q 1656 1250 1848 986 
Q 2041 722 2400 722 
Q 2759 722 2948 984 
Q 3138 1247 3138 1747 
Q 3138 2247 2948 2509 
Q 2759 2772 2400 2772 
z
" transform="scale(0.015625)"/>
      <path id="DejaVuSans-Bold-44f" d="M 1528 2394 
Q 1528 2169 1651 2069 
Q 1775 1969 2059 1969 
L 2463 1969 
L 2463 2816 
L 2059 2816 
Q 1775 2816 1651 2719 
Q 1528 2622 1528 2394 
z
M 197 0 
L 1113 1497 
Q 847 1650 650 1917 
Q 453 2184 453 2516 
Q 453 3013 789 3256 
Q 1125 3500 1878 3500 
L 3581 3500 
L 3581 0 
L 2463 0 
L 2463 1278 
L 2069 1278 
L 1288 0 
L 197 0 
z
" transform="scale(0.015625)"/>
      <path id="DejaVuSans-Bold-43c" d="M 538 3500 
L 1825 3500 
L 2613 1750 
L 3400 3500 
L 4691 3500 
L 4691 0 
L 3575 0 
L 3575 1984 
L 2984 672 
L 2250 672 
L 1656 1984 
L 1656 0 
L 538 0 
L 538 3500 
z
" transform="scale(0.015625)"/>
      <path id="DejaVuSans-Bold-430" d="M 2106 1575 
Q 1756 1575 1579 1456 
Q 1403 1338 1403 1106 
Q 1403 894 1545 773 
Q 1688 653 1941 653 
Q 2256 653 2472 879 
Q 2688 1106 2688 1447 
L 2688 1575 
L 2106 1575 
z
M 3816 1997 
L 3816 0 
L 2688 0 
L 2688 519 
Q 2463 200 2181 54 
Q 1900 -91 1497 -91 
Q 953 -91 614 226 
Q 275 544 275 1050 
Q 275 1666 698 1953 
Q 1122 2241 2028 2241 
L 2688 2241 
L 2688 2328 
Q 2688 2594 2478 2717 
Q 2269 2841 1825 2841 
Q 1466 2841 1156 2769 
Q 847 2697 581 2553 
L 581 3406 
Q 941 3494 1303 3539 
Q 1666 3584 2028 3584 
Q 2975 3584 3395 3211 
Q 3816 2838 3816 1997 
z
" transform="scale(0.015625)"/>
      <path id="DejaVuSans-Bold-20" transform="scale(0.015625)"/>
      <path id="DejaVuSans-Bold-43b" d="M 353 0 
L 353 800 
Q 906 913 1031 1278 
Q 1125 1556 1125 2928 
L 1125 3500 
L 4150 3500 
L 4150 0 
L 3031 0 
L 3031 2700 
L 2244 2700 
L 2244 2584 
Q 2244 1213 2028 813 
Q 1591 0 353 0 
z
" transform="scale(0.015625)"/>
      <path id="DejaVuSans-Bold-438" d="M 3947 3500 
L 3947 0 
L 2828 0 
L 2828 1863 
L 1700 0 
L 538 0 
L 538 3500 
L 1656 3500 
L 1656 1638 
L 2784 3500 
L 3947 3500 
z
" transform="scale(0.015625)"/>
      <path id="DejaVuSans-Bold-43d" d="M 538 3500 
L 1656 3500 
L 1656 2169 
L 2766 2169 
L 2766 3500 
L 3884 3500 
L 3884 0 
L 2766 0 
L 2766 1478 
L 1656 1478 
L 1656 0 
L 538 0 
L 538 3500 
z
" transform="scale(0.015625)"/>
     </defs>
     <use xlink:href="#DejaVuSans-Bold-41f"/>
     <use xlink:href="#DejaVuSans-Bold-440" transform="translate(83.691406 0)"/>
     <use xlink:href="#DejaVuSans-Bold-44f" transform="translate(155.273438 0)"/>
     <use xlink:href="#DejaVuSans-Bold-43c" transform="translate(219.482422 0)"/>
     <use xlink:href="#DejaVuSans-Bold-430" transform="translate(301.220703 0)"/>
     <use xlink:href="#DejaVuSans-Bold-44f" transform="translate(368.701172 0)"/>
     <use xlink:href="#DejaVuSans-Bold-20" transform="translate(432.910156 0)"/>
     <use xlink:href="#DejaVuSans-Bold-43b" transform="translate(467.724609 0)"/>
     <use xlink:href="#DejaVuSans-Bold-438" transform="translate(540.966797 0)"/>
     <use xlink:href="#DejaVuSans-Bold-43d" transform="translate(611.035156 0)"/>
     <use xlink:href="#DejaVuSans-Bold-438" transform="translate(680.126953 0)"/>
     <use xlink:href="#DejaVuSans-Bold-44f" transform="translate(750.195312 0)"/>
    </g>
   </g>
  </g>
  <g id="axes_2">
   <g id="patch_5">
    <path d="M 206.1 201.146523 
L 390.6 201.146523 
L 390.6 63.347591 
L 206.1 63.347591 
z
" style="fill: #ffffff"/>
   </g>
   <g id="matplotlib.axis_3"/>
   <g id="matplotlib.axis_4"/>
   <g id="line2d_2">
    <path d="M 214.486364 69.611179 
L 216.180579 74.622049 
L 217.874793 79.530657 
L 219.569008 84.337001 
L 221.263223 89.041084 
L 222.957438 93.642903 
L 224.651653 98.14246 
L 226.345868 102.539755 
L 228.040083 106.834786 
L 229.734298 111.027555 
L 231.428512 115.118062 
L 233.122727 119.106305 
L 234.816942 122.992286 
L 236.511157 126.776005 
L 238.205372 130.45746 
L 239.899587 134.036653 
L 241.593802 137.513584 
L 243.288017 140.888251 
L 244.982231 144.160656 
L 246.676446 147.330799 
L 248.370661 150.398679 
L 250.064876 153.364296 
L 251.759091 156.22765 
L 253.453306 158.988742 
L 255.147521 161.647571 
L 256.841736 164.204137 
L 258.53595 166.658441 
L 260.230165 169.010482 
L 261.92438 171.260261 
L 263.618595 173.407777 
L 265.31281 175.45303 
L 267.007025 177.39602 
L 268.70124 179.236748 
L 270.395455 180.975213 
L 272.089669 182.611416 
L 273.783884 184.145356 
L 275.478099 185.577033 
L 277.172314 186.906448 
L 278.866529 188.133599 
L 280.560744 189.258489 
L 282.254959 190.281115 
L 283.949174 191.201479 
L 285.643388 192.01958 
L 287.337603 192.735419 
L 289.031818 193.348995 
L 290.726033 193.860308 
L 292.420248 194.269359 
L 294.114463 194.576147 
L 295.808678 194.780672 
L 297.502893 194.882935 
L 299.197107 194.882935 
L 300.891322 194.780672 
L 302.585537 194.576147 
L 304.279752 194.269359 
L 305.973967 193.860308 
L 307.668182 193.348995 
L 309.362397 192.735419 
L 311.056612 192.01958 
L 312.750826 191.201479 
L 314.445041 190.281115 
L 316.139256 189.258489 
L 317.833471 188.133599 
L 319.527686 186.906448 
L 321.221901 185.577033 
L 322.916116 184.145356 
L 324.610331 182.611416 
L 326.304545 180.975213 
L 327.99876 179.236748 
L 329.692975 177.39602 
L 331.38719 175.45303 
L 333.081405 173.407777 
L 334.77562 171.260261 
L 336.469835 169.010482 
L 338.16405 166.658441 
L 339.858264 164.204137 
L 341.552479 161.647571 
L 343.246694 158.988742 
L 344.940909 156.22765 
L 346.635124 153.364296 
L 348.329339 150.398679 
L 350.023554 147.330799 
L 351.717769 144.160656 
L 353.411983 140.888251 
L 355.106198 137.513584 
L 356.800413 134.036653 
L 358.494628 130.45746 
L 360.188843 126.776005 
L 361.883058 122.992286 
L 363.577273 119.106305 
L 365.271488 115.118062 
L 366.965702 111.027555 
L 368.659917 106.834786 
L 370.354132 102.539755 
L 372.048347 98.14246 
L 373.742562 93.642903 
L 375.436777 89.041084 
L 377.130992 84.337001 
L 378.825207 79.530657 
L 380.519421 74.622049 
L 382.213636 69.611179 
" clip-path="url(#p822c3d40d0)" style="fill: none; stroke: #1a3a5c; stroke-width: 2.2; stroke-linecap: square"/>
   </g>
   <g id="patch_6">
    <path d="M 206.1 201.146523 
L 206.1 63.347591 
" style="fill: none; stroke: #bbbbbb; stroke-width: 0.8; stroke-linejoin: miter; stroke-linecap: square"/>
   </g>
   <g id="patch_7">
    <path d="M 206.1 201.146523 
L 390.6 201.146523 
" style="fill: none; stroke: #bbbbbb; stroke-width: 0.8; stroke-linejoin: miter; stroke-linecap: square"/>
   </g>
   <g id="text_2">
    <!-- Парабола 2-го порядка -->
    <g style="fill: #1a3a5c" transform="translate(226.904883 57.347591) scale(0.105 -0.105)">
     <defs>
      <path id="DejaVuSans-Bold-431" d="M 344 1941 
L 322 2463 
Q 275 2672 275 2881 
Q 275 3494 456 3894 
Q 791 4631 1238 4781 
Q 1606 4909 3141 5031 
Q 3297 5044 3475 5072 
L 3725 4378 
Q 3488 4316 2269 4209 
Q 1734 4163 1516 4013 
Q 1153 3766 1125 3300 
Q 1584 3584 2275 3584 
Q 3178 3584 3686 3096 
Q 4194 2609 4194 1747 
Q 4194 884 3687 396 
Q 3181 -91 2275 -91 
Q 1369 -91 858 396 
Q 347 884 347 1747 
Q 347 1866 344 1941 
z
M 2272 2784 
Q 1903 2784 1708 2517 
Q 1513 2250 1513 1747 
Q 1513 1244 1708 976 
Q 1903 709 2272 709 
Q 2641 709 2834 976 
Q 3028 1244 3028 1747 
Q 3028 2250 2834 2517 
Q 2641 2784 2272 2784 
z
" transform="scale(0.015625)"/>
      <path id="DejaVuSans-Bold-43e" d="M 2203 2784 
Q 1831 2784 1636 2517 
Q 1441 2250 1441 1747 
Q 1441 1244 1636 976 
Q 1831 709 2203 709 
Q 2569 709 2762 976 
Q 2956 1244 2956 1747 
Q 2956 2250 2762 2517 
Q 2569 2784 2203 2784 
z
M 2203 3584 
Q 3106 3584 3614 3096 
Q 4122 2609 4122 1747 
Q 4122 884 3614 396 
Q 3106 -91 2203 -91 
Q 1297 -91 786 396 
Q 275 884 275 1747 
Q 275 2609 786 3096 
Q 1297 3584 2203 3584 
z
" transform="scale(0.015625)"/>
      <path id="DejaVuSans-Bold-32" d="M 1844 884 
L 3897 884 
L 3897 0 
L 506 0 
L 506 884 
L 2209 2388 
Q 2438 2594 2547 2791 
Q 2656 2988 2656 3200 
Q 2656 3528 2436 3728 
Q 2216 3928 1850 3928 
Q 1569 3928 1234 3808 
Q 900 3688 519 3450 
L 519 4475 
Q 925 4609 1322 4679 
Q 1719 4750 2100 4750 
Q 2938 4750 3402 4381 
Q 3866 4013 3866 3353 
Q 3866 2972 3669 2642 
Q 3472 2313 2841 1759 
L 1844 884 
z
" transform="scale(0.015625)"/>
      <path id="DejaVuSans-Bold-2d" d="M 347 2297 
L 2309 2297 
L 2309 1388 
L 347 1388 
L 347 2297 
z
" transform="scale(0.015625)"/>
      <path id="DejaVuSans-Bold-433" d="M 538 0 
L 538 3500 
L 3191 3500 
L 3191 2809 
L 1656 2809 
L 1656 0 
L 538 0 
z
" transform="scale(0.015625)"/>
      <path id="DejaVuSans-Bold-43f" d="M 3884 3500 
L 3884 0 
L 2766 0 
L 2766 2700 
L 1656 2700 
L 1656 0 
L 538 0 
L 538 3500 
L 3884 3500 
z
" transform="scale(0.015625)"/>
      <path id="DejaVuSans-Bold-434" d="M 547 800 
Q 903 919 1053 1314 
Q 1203 1709 1203 2838 
L 1203 3500 
L 4228 3500 
L 4228 800 
L 4809 800 
L 4809 -884 
L 4009 -884 
L 4009 0 
L 1159 0 
L 1159 -884 
L 359 -884 
L 359 800 
L 547 800 
z
M 3109 2700 
L 2322 2700 
L 2322 2603 
Q 2322 1456 2063 800 
L 3109 800 
L 3109 2700 
z
" transform="scale(0.015625)"/>
      <path id="DejaVuSans-Bold-43a" d="M 538 3500 
L 1656 3500 
L 1656 2316 
L 2903 3500 
L 4128 3500 
L 2634 2078 
L 4250 0 
L 3094 0 
L 1972 1447 
L 1656 1147 
L 1656 0 
L 538 0 
L 538 3500 
z
" transform="scale(0.015625)"/>
     </defs>
     <use xlink:href="#DejaVuSans-Bold-41f"/>
     <use xlink:href="#DejaVuSans-Bold-430" transform="translate(83.691406 0)"/>
     <use xlink:href="#DejaVuSans-Bold-440" transform="translate(151.171875 0)"/>
     <use xlink:href="#DejaVuSans-Bold-430" transform="translate(222.753906 0)"/>
     <use xlink:href="#DejaVuSans-Bold-431" transform="translate(290.234375 0)"/>
     <use xlink:href="#DejaVuSans-Bold-43e" transform="translate(360.058594 0)"/>
     <use xlink:href="#DejaVuSans-Bold-43b" transform="translate(428.759766 0)"/>
     <use xlink:href="#DejaVuSans-Bold-430" transform="translate(502.001953 0)"/>
     <use xlink:href="#DejaVuSans-Bold-20" transform="translate(569.482422 0)"/>
     <use xlink:href="#DejaVuSans-Bold-32" transform="translate(604.296875 0)"/>
     <use xlink:href="#DejaVuSans-Bold-2d" transform="translate(673.876953 0)"/>
     <use xlink:href="#DejaVuSans-Bold-433" transform="translate(715.380859 0)"/>
     <use xlink:href="#DejaVuSans-Bold-43e" transform="translate(767.626953 0)"/>
     <use xlink:href="#DejaVuSans-Bold-20" transform="translate(836.328125 0)"/>
     <use xlink:href="#DejaVuSans-Bold-43f" transform="translate(871.142578 0)"/>
     <use xlink:href="#DejaVuSans-Bold-43e" transform="translate(940.234375 0)"/>
     <use xlink:href="#DejaVuSans-Bold-440" transform="translate(1008.935547 0)"/>
     <use xlink:href="#DejaVuSans-Bold-44f" transform="translate(1080.517578 0)"/>
     <use xlink:href="#DejaVuSans-Bold-434" transform="translate(1144.726562 0)"/>
     <use xlink:href="#DejaVuSans-Bold-43a" transform="translate(1225.488281 0)"/>
     <use xlink:href="#DejaVuSans-Bold-430" transform="translate(1293.359375 0)"/>
    </g>
   </g>
  </g>
  <g id="axes_3">
   <g id="patch_8">
    <path d="M 401.4 201.146523 
L 585.9 201.146523 
L 585.9 63.347591 
L 401.4 63.347591 
z
" style="fill: #ffffff"/>
   </g>
   <g id="matplotlib.axis_5"/>
   <g id="matplotlib.axis_6"/>
   <g id="line2d_3">
    <path d="M 409.786364 194.882935 
L 411.480579 188.514177 
L 413.174793 182.457872 
L 414.869008 176.707577 
L 416.563223 171.256849 
L 418.257438 166.099247 
L 419.951653 161.228327 
L 421.645868 156.637648 
L 423.340083 152.320768 
L 425.034298 148.271243 
L 426.728512 144.482633 
L 428.422727 140.948493 
L 430.116942 137.662383 
L 431.811157 134.617859 
L 433.505372 131.80848 
L 435.199587 129.227803 
L 436.893802 126.869386 
L 438.588017 124.726786 
L 440.282231 122.793562 
L 441.976446 121.06327 
L 443.670661 119.529469 
L 445.364876 118.185717 
L 447.059091 117.02557 
L 448.753306 116.042587 
L 450.447521 115.230325 
L 452.141736 114.582342 
L 453.83595 114.092196 
L 455.530165 113.753444 
L 457.22438 113.559644 
L 458.918595 113.504354 
L 460.61281 113.581131 
L 462.307025 113.783534 
L 464.00124 114.105119 
L 465.695455 114.539445 
L 467.389669 115.080069 
L 469.083884 115.720549 
L 470.778099 116.454442 
L 472.472314 117.275307 
L 474.166529 118.176701 
L 475.860744 119.152181 
L 477.554959 120.195305 
L 479.249174 121.299632 
L 480.943388 122.458718 
L 482.637603 123.666121 
L 484.331818 124.9154 
L 486.026033 126.200111 
L 487.720248 127.513813 
L 489.414463 128.850062 
L 491.108678 130.202418 
L 492.802893 131.564437 
L 494.497107 132.929677 
L 496.191322 134.291696 
L 497.885537 135.644051 
L 499.579752 136.980301 
L 501.273967 138.294003 
L 502.968182 139.578714 
L 504.662397 140.827992 
L 506.356612 142.035396 
L 508.050826 143.194482 
L 509.745041 144.298808 
L 511.439256 145.341933 
L 513.133471 146.317413 
L 514.827686 147.218807 
L 516.521901 148.039671 
L 518.216116 148.773565 
L 519.910331 149.414045 
L 521.604545 149.954669 
L 523.29876 150.388994 
L 524.992975 150.71058 
L 526.68719 150.912982 
L 528.381405 150.98976 
L 530.07562 150.93447 
L 531.769835 150.74067 
L 533.46405 150.401918 
L 535.158264 149.911772 
L 536.852479 149.263789 
L 538.546694 148.451527 
L 540.240909 147.468544 
L 541.935124 146.308397 
L 543.629339 144.964644 
L 545.323554 143.430843 
L 547.017769 141.700552 
L 548.711983 139.767327 
L 550.406198 137.624728 
L 552.100413 135.26631 
L 553.794628 132.685633 
L 555.488843 129.876254 
L 557.183058 126.831731 
L 558.877273 123.54562 
L 560.571488 120.011481 
L 562.265702 116.22287 
L 563.959917 112.173346 
L 565.654132 107.856465 
L 567.348347 103.265786 
L 569.042562 98.394867 
L 570.736777 93.237264 
L 572.430992 87.786537 
L 574.125207 82.036241 
L 575.819421 75.979936 
L 577.513636 69.611179 
" clip-path="url(#p6b0e9e2f3b)" style="fill: none; stroke: #1a3a5c; stroke-width: 2.2; stroke-linecap: square"/>
   </g>
   <g id="patch_9">
    <path d="M 401.4 201.146523 
L 401.4 63.347591 
" style="fill: none; stroke: #bbbbbb; stroke-width: 0.8; stroke-linejoin: miter; stroke-linecap: square"/>
   </g>
   <g id="patch_10">
    <path d="M 401.4 201.146523 
L 585.9 201.146523 
" style="fill: none; stroke: #bbbbbb; stroke-width: 0.8; stroke-linejoin: miter; stroke-linecap: square"/>
   </g>
   <g id="text_3">
    <!-- Парабола 3-го порядка -->
    <g style="fill: #1a3a5c" transform="translate(422.204883 57.347591) scale(0.105 -0.105)">
     <defs>
      <path id="DejaVuSans-Bold-33" d="M 2981 2516 
Q 3453 2394 3698 2092 
Q 3944 1791 3944 1325 
Q 3944 631 3412 270 
Q 2881 -91 1863 -91 
Q 1503 -91 1142 -33 
Q 781 25 428 141 
L 428 1069 
Q 766 900 1098 814 
Q 1431 728 1753 728 
Q 2231 728 2486 893 
Q 2741 1059 2741 1369 
Q 2741 1688 2480 1852 
Q 2219 2016 1709 2016 
L 1228 2016 
L 1228 2791 
L 1734 2791 
Q 2188 2791 2409 2933 
Q 2631 3075 2631 3366 
Q 2631 3634 2415 3781 
Q 2200 3928 1806 3928 
Q 1516 3928 1219 3862 
Q 922 3797 628 3669 
L 628 4550 
Q 984 4650 1334 4700 
Q 1684 4750 2022 4750 
Q 2931 4750 3382 4451 
Q 3834 4153 3834 3553 
Q 3834 3144 3618 2883 
Q 3403 2622 2981 2516 
z
" transform="scale(0.015625)"/>
     </defs>
     <use xlink:href="#DejaVuSans-Bold-41f"/>
     <use xlink:href="#DejaVuSans-Bold-430" transform="translate(83.691406 0)"/>
     <use xlink:href="#DejaVuSans-Bold-440" transform="translate(151.171875 0)"/>
     <use xlink:href="#DejaVuSans-Bold-430" transform="translate(222.753906 0)"/>
     <use xlink:href="#DejaVuSans-Bold-431" transform="translate(290.234375 0)"/>
     <use xlink:href="#DejaVuSans-Bold-43e" transform="translate(360.058594 0)"/>
     <use xlink:href="#DejaVuSans-Bold-43b" transform="translate(428.759766 0)"/>
     <use xlink:href="#DejaVuSans-Bold-430" transform="translate(502.001953 0)"/>
     <use xlink:href="#DejaVuSans-Bold-20" transform="translate(569.482422 0)"/>
     <use xlink:href="#DejaVuSans-Bold-33" transform="translate(604.296875 0)"/>
     <use xlink:href="#DejaVuSans-Bold-2d" transform="translate(673.876953 0)"/>
     <use xlink:href="#DejaVuSans-Bold-433" transform="translate(715.380859 0)"/>
     <use xlink:href="#DejaVuSans-Bold-43e" transform="translate(767.626953 0)"/>
     <use xlink:href="#DejaVuSans-Bold-20" transform="translate(836.328125 0)"/>
     <use xlink:href="#DejaVuSans-Bold-43f" transform="translate(871.142578 0)"/>
     <use xlink:href="#DejaVuSans-Bold-43e" transform="translate(940.234375 0)"/>
     <use xlink:href="#DejaVuSans-Bold-440" transform="translate(1008.935547 0)"/>
     <use xlink:href="#DejaVuSans-Bold-44f" transform="translate(1080.517578 0)"/>
     <use xlink:href="#DejaVuSans-Bold-434" transform="translate(1144.726562 0)"/>
     <use xlink:href="#DejaVuSans-Bold-43a" transform="translate(1225.488281 0)"/>
     <use xlink:href="#DejaVuSans-Bold-430" transform="translate(1293.359375 0)"/>
    </g>
   </g>
  </g>
  <g id="axes_4">
   <g id="patch_11">
    <path d="M 596.7 201.146523 
L 781.2 201.146523 
L 781.2 63.347591 
L 596.7 63.347591 
z
" style="fill: #ffffff"/>
   </g>
   <g id="matplotlib.axis_7"/>
   <g id="matplotlib.axis_8"/>
   <g id="line2d_4">
    <path d="M 605.086364 69.611179 
L 606.780579 82.694391 
L 608.474793 93.500906 
L 610.169008 102.57743 
L 611.863223 110.308602 
L 613.557438 116.972901 
L 615.251653 122.776911 
L 616.945868 127.877112 
L 618.640083 132.394205 
L 620.334298 136.422782 
L 622.028512 140.038027 
L 623.722727 143.300447 
L 625.416942 146.25929 
L 627.111157 148.955044 
L 628.805372 151.421305 
L 630.499587 153.686183 
L 632.193802 155.773375 
L 633.888017 157.703003 
L 635.582231 159.492259 
L 637.276446 161.155924 
L 638.970661 162.706771 
L 640.664876 164.1559 
L 642.359091 165.513002 
L 644.053306 166.786571 
L 645.747521 167.984092 
L 647.441736 169.112176 
L 649.13595 170.176695 
L 650.830165 171.182873 
L 652.52438 172.135378 
L 654.218595 173.038394 
L 655.91281 173.895679 
L 657.607025 174.710622 
L 659.30124 175.486285 
L 660.995455 176.225439 
L 662.689669 176.930605 
L 664.383884 177.604072 
L 666.078099 178.247932 
L 667.772314 178.864095 
L 669.466529 179.454311 
L 671.160744 180.020184 
L 672.854959 180.563191 
L 674.549174 181.084689 
L 676.243388 181.585933 
L 677.937603 182.068079 
L 679.631818 182.532198 
L 681.326033 182.979284 
L 683.020248 183.410256 
L 684.714463 183.825971 
L 686.408678 184.227224 
L 688.102893 184.614758 
L 689.797107 184.989264 
L 691.491322 185.351388 
L 693.185537 185.701735 
L 694.879752 186.040869 
L 696.573967 186.36932 
L 698.268182 186.687586 
L 699.962397 186.996133 
L 701.656612 187.2954 
L 703.350826 187.585798 
L 705.045041 187.867717 
L 706.739256 188.141522 
L 708.433471 188.407558 
L 710.127686 188.666153 
L 711.821901 188.917613 
L 713.516116 189.16223 
L 715.210331 189.40028 
L 716.904545 189.632023 
L 718.59876 189.857707 
L 720.292975 190.077566 
L 721.98719 190.291823 
L 723.681405 190.50069 
L 725.37562 190.704367 
L 727.069835 190.903046 
L 728.76405 191.096907 
L 730.458264 191.286125 
L 732.152479 191.470864 
L 733.846694 191.651281 
L 735.540909 191.827526 
L 737.235124 191.999743 
L 738.929339 192.168067 
L 740.623554 192.33263 
L 742.317769 192.493555 
L 744.011983 192.650963 
L 745.706198 192.804967 
L 747.400413 192.955677 
L 749.094628 193.103197 
L 750.788843 193.247627 
L 752.483058 193.389064 
L 754.177273 193.527599 
L 755.871488 193.663321 
L 757.565702 193.796315 
L 759.259917 193.926662 
L 760.954132 194.05444 
L 762.648347 194.179725 
L 764.342562 194.302589 
L 766.036777 194.423102 
L 767.730992 194.541329 
L 769.425207 194.657336 
L 771.119421 194.771185 
L 772.813636 194.882935 
" clip-path="url(#p0be90455f8)" style="fill: none; stroke: #1a3a5c; stroke-width: 2.2; stroke-linecap: square"/>
   </g>
   <g id="patch_12">
    <path d="M 596.7 201.146523 
L 596.7 63.347591 
" style="fill: none; stroke: #bbbbbb; stroke-width: 0.8; stroke-linejoin: miter; stroke-linecap: square"/>
   </g>
   <g id="patch_13">
    <path d="M 596.7 201.146523 
L 781.2 201.146523 
" style="fill: none; stroke: #bbbbbb; stroke-width: 0.8; stroke-linejoin: miter; stroke-linecap: square"/>
   </g>
   <g id="text_4">
    <!-- Гипербола -->
    <g style="fill: #1a3a5c" transform="translate(656.318789 57.347591) scale(0.105 -0.105)">
     <defs>
      <path id="DejaVuSans-Bold-413" d="M 588 0 
L 588 4666 
L 3903 4666 
L 3903 3756 
L 1791 3756 
L 1791 0 
L 588 0 
z
" transform="scale(0.015625)"/>
      <path id="DejaVuSans-Bold-435" d="M 4031 1759 
L 4031 1441 
L 1416 1441 
Q 1456 1047 1700 850 
Q 1944 653 2381 653 
Q 2734 653 3104 758 
Q 3475 863 3866 1075 
L 3866 213 
Q 3469 63 3072 -14 
Q 2675 -91 2278 -91 
Q 1328 -91 801 392 
Q 275 875 275 1747 
Q 275 2603 792 3093 
Q 1309 3584 2216 3584 
Q 3041 3584 3536 3087 
Q 4031 2591 4031 1759 
z
M 2881 2131 
Q 2881 2450 2695 2645 
Q 2509 2841 2209 2841 
Q 1884 2841 1681 2658 
Q 1478 2475 1428 2131 
L 2881 2131 
z
" transform="scale(0.015625)"/>
     </defs>
     <use xlink:href="#DejaVuSans-Bold-413"/>
     <use xlink:href="#DejaVuSans-Bold-438" transform="translate(63.720703 0)"/>
     <use xlink:href="#DejaVuSans-Bold-43f" transform="translate(133.789062 0)"/>
     <use xlink:href="#DejaVuSans-Bold-435" transform="translate(202.880859 0)"/>
     <use xlink:href="#DejaVuSans-Bold-440" transform="translate(270.703125 0)"/>
     <use xlink:href="#DejaVuSans-Bold-431" transform="translate(342.285156 0)"/>
     <use xlink:href="#DejaVuSans-Bold-43e" transform="translate(412.109375 0)"/>
     <use xlink:href="#DejaVuSans-Bold-43b" transform="translate(480.810547 0)"/>
     <use xlink:href="#DejaVuSans-Bold-430" transform="translate(554.052734 0)"/>
    </g>
   </g>
  </g>
  <g id="axes_5">
   <g id="patch_14">
    <path d="M 10.8 363.6 
L 195.3 363.6 
L 195.3 225.801068 
L 10.8 225.801068 
z
" style="fill: #ffffff"/>
   </g>
   <g id="matplotlib.axis_9"/>
   <g id="matplotlib.axis_10"/>
   <g id="line2d_5">
    <path d="M 19.186364 357.336412 
L 20.880579 356.933598 
L 22.574793 356.522606 
L 24.269008 356.10327 
L 25.963223 355.675421 
L 27.657438 355.238886 
L 29.351653 354.793488 
L 31.045868 354.339048 
L 32.740083 353.875382 
L 34.434298 353.402303 
L 36.128512 352.91962 
L 37.822727 352.427137 
L 39.516942 351.924656 
L 41.211157 351.411973 
L 42.905372 350.888882 
L 44.599587 350.355172 
L 46.293802 349.810626 
L 47.988017 349.255025 
L 49.682231 348.688144 
L 51.376446 348.109755 
L 53.070661 347.519623 
L 54.764876 346.917511 
L 56.459091 346.303174 
L 58.153306 345.676366 
L 59.847521 345.036832 
L 61.541736 344.384314 
L 63.23595 343.718549 
L 64.930165 343.039268 
L 66.62438 342.346197 
L 68.318595 341.639054 
L 70.01281 340.917556 
L 71.707025 340.18141 
L 73.40124 339.430318 
L 75.095455 338.663978 
L 76.789669 337.88208 
L 78.483884 337.084309 
L 80.178099 336.270341 
L 81.872314 335.439848 
L 83.566529 334.592494 
L 85.260744 333.727938 
L 86.954959 332.845829 
L 88.649174 331.945813 
L 90.343388 331.027524 
L 92.037603 330.090592 
L 93.731818 329.134639 
L 95.426033 328.159279 
L 97.120248 327.164117 
L 98.814463 326.148751 
L 100.508678 325.112772 
L 102.202893 324.05576 
L 103.897107 322.977289 
L 105.591322 321.876923 
L 107.285537 320.754218 
L 108.979752 319.60872 
L 110.673967 318.439966 
L 112.368182 317.247485 
L 114.062397 316.030794 
L 115.756612 314.789402 
L 117.450826 313.522807 
L 119.145041 312.230498 
L 120.839256 310.911954 
L 122.533471 309.56664 
L 124.227686 308.194014 
L 125.921901 306.793521 
L 127.616116 305.364596 
L 129.310331 303.906661 
L 131.004545 302.419127 
L 132.69876 300.901394 
L 134.392975 299.352848 
L 136.08719 297.772864 
L 137.781405 296.160803 
L 139.47562 294.516015 
L 141.169835 292.837835 
L 142.86405 291.125584 
L 144.558264 289.378572 
L 146.252479 287.596092 
L 147.946694 285.777424 
L 149.640909 283.921835 
L 151.335124 282.028573 
L 153.029339 280.096875 
L 154.723554 278.125961 
L 156.417769 276.115033 
L 158.111983 274.063279 
L 159.806198 271.969872 
L 161.500413 269.833964 
L 163.194628 267.654694 
L 164.888843 265.43118 
L 166.583058 263.162525 
L 168.277273 260.847813 
L 169.971488 258.486108 
L 171.665702 256.076456 
L 173.359917 253.617883 
L 175.054132 251.109397 
L 176.748347 248.549985 
L 178.442562 245.938612 
L 180.136777 243.274223 
L 181.830992 240.555742 
L 183.525207 237.782072 
L 185.219421 234.952091 
L 186.913636 232.064656 
" clip-path="url(#pa747d4cda2)" style="fill: none; stroke: #1a3a5c; stroke-width: 2.2; stroke-linecap: square"/>
   </g>
   <g id="patch_15">
    <path d="M 10.8 363.6 
L 10.8 225.801068 
" style="fill: none; stroke: #bbbbbb; stroke-width: 0.8; stroke-linejoin: miter; stroke-linecap: square"/>
   </g>
   <g id="patch_16">
    <path d="M 10.8 363.6 
L 195.3 363.6 
" style="fill: none; stroke: #bbbbbb; stroke-width: 0.8; stroke-linejoin: miter; stroke-linecap: square"/>
   </g>
   <g id="text_5">
    <!-- Показательная -->
    <g style="fill: #1a3a5c" transform="translate(57.039492 219.801068) scale(0.105 -0.105)">
     <defs>
      <path id="DejaVuSans-Bold-437" d="M 900 2181 
L 1413 2181 
Q 1872 2181 2039 2281 
Q 2206 2381 2206 2519 
Q 2206 2841 1469 2841 
Q 853 2841 472 2625 
L 472 3434 
Q 1041 3584 1713 3584 
Q 2500 3584 2862 3361 
Q 3225 3138 3225 2666 
Q 3225 2047 2541 1888 
Q 3313 1697 3313 994 
Q 3313 453 2888 181 
Q 2463 -91 1553 -91 
Q 875 -91 313 84 
L 313 947 
Q 1013 653 1428 653 
Q 1884 653 2089 776 
Q 2294 900 2294 1056 
Q 2294 1491 1394 1491 
L 900 1491 
L 900 2181 
z
" transform="scale(0.015625)"/>
      <path id="DejaVuSans-Bold-442" d="M 25 3500 
L 3681 3500 
L 3681 2809 
L 2413 2809 
L 2413 0 
L 1297 0 
L 1297 2809 
L 25 2809 
L 25 3500 
z
" transform="scale(0.015625)"/>
      <path id="DejaVuSans-Bold-44c" d="M 2719 1094 
Q 2719 1291 2594 1388 
Q 2472 1481 2222 1481 
L 1656 1481 
L 1656 700 
L 2222 700 
Q 2469 700 2594 800 
Q 2719 897 2719 1094 
z
M 538 3500 
L 1656 3500 
L 1656 2172 
L 2291 2172 
Q 3000 2172 3381 1913 
Q 3766 1650 3766 1081 
Q 3766 513 3381 256 
Q 3000 0 2291 0 
L 538 0 
L 538 3500 
z
" transform="scale(0.015625)"/>
     </defs>
     <use xlink:href="#DejaVuSans-Bold-41f"/>
     <use xlink:href="#DejaVuSans-Bold-43e" transform="translate(83.691406 0)"/>
     <use xlink:href="#DejaVuSans-Bold-43a" transform="translate(152.392578 0)"/>
     <use xlink:href="#DejaVuSans-Bold-430" transform="translate(220.263672 0)"/>
     <use xlink:href="#DejaVuSans-Bold-437" transform="translate(287.744141 0)"/>
     <use xlink:href="#DejaVuSans-Bold-430" transform="translate(345.849609 0)"/>
     <use xlink:href="#DejaVuSans-Bold-442" transform="translate(413.330078 0)"/>
     <use xlink:href="#DejaVuSans-Bold-435" transform="translate(471.289062 0)"/>
     <use xlink:href="#DejaVuSans-Bold-43b" transform="translate(539.111328 0)"/>
     <use xlink:href="#DejaVuSans-Bold-44c" transform="translate(612.353516 0)"/>
     <use xlink:href="#DejaVuSans-Bold-43d" transform="translate(675.585938 0)"/>
     <use xlink:href="#DejaVuSans-Bold-430" transform="translate(744.677734 0)"/>
     <use xlink:href="#DejaVuSans-Bold-44f" transform="translate(812.158203 0)"/>
    </g>
   </g>
  </g>
  <g id="axes_6">
   <g id="patch_17">
    <path d="M 206.1 363.6 
L 390.6 363.6 
L 390.6 225.801068 
L 206.1 225.801068 
z
" style="fill: #ffffff"/>
   </g>
   <g id="matplotlib.axis_11"/>
   <g id="matplotlib.axis_12"/>
   <g id="line2d_6">
    <path d="M 214.486364 357.336412 
L 216.180579 352.629682 
L 217.874793 348.809096 
L 219.569008 345.491357 
L 221.263223 342.51037 
L 222.957438 339.775876 
L 224.651653 337.232218 
L 226.345868 334.842159 
L 228.040083 332.5793 
L 229.734298 330.424107 
L 231.428512 328.361634 
L 233.122727 326.380137 
L 234.816942 324.470187 
L 236.511157 322.624072 
L 238.205372 320.835389 
L 239.899587 319.09875 
L 241.593802 317.40957 
L 243.288017 315.763908 
L 244.982231 314.158344 
L 246.676446 312.589892 
L 248.370661 311.055922 
L 250.064876 309.554104 
L 251.759091 308.082363 
L 253.453306 306.63884 
L 255.147521 305.221862 
L 256.841736 303.829919 
L 258.53595 302.461639 
L 260.230165 301.115772 
L 261.92438 299.791176 
L 263.618595 298.486806 
L 265.31281 297.201698 
L 267.007025 295.934966 
L 268.70124 294.685787 
L 270.395455 293.453402 
L 272.089669 292.237105 
L 273.783884 291.036237 
L 275.478099 289.850186 
L 277.172314 288.678377 
L 278.866529 287.520274 
L 280.560744 286.375374 
L 282.254959 285.243203 
L 283.949174 284.123317 
L 285.643388 283.015295 
L 287.337603 281.918743 
L 289.031818 280.833286 
L 290.726033 279.75857 
L 292.420248 278.69426 
L 294.114463 277.640039 
L 295.808678 276.595605 
L 297.502893 275.56067 
L 299.197107 274.534963 
L 300.891322 273.518222 
L 302.585537 272.5102 
L 304.279752 271.510661 
L 305.973967 270.519379 
L 307.668182 269.536138 
L 309.362397 268.560732 
L 311.056612 267.592962 
L 312.750826 266.632641 
L 314.445041 265.679585 
L 316.139256 264.733621 
L 317.833471 263.794581 
L 319.527686 262.862305 
L 321.221901 261.936639 
L 322.916116 261.017433 
L 324.610331 260.104544 
L 326.304545 259.197836 
L 327.99876 258.297174 
L 329.692975 257.402431 
L 331.38719 256.513483 
L 333.081405 255.630212 
L 334.77562 254.752502 
L 336.469835 253.880241 
L 338.16405 253.013322 
L 339.858264 252.151642 
L 341.552479 251.295099 
L 343.246694 250.443596 
L 344.940909 249.597039 
L 346.635124 248.755336 
L 348.329339 247.918399 
L 350.023554 247.086142 
L 351.717769 246.258481 
L 353.411983 245.435337 
L 355.106198 244.61663 
L 356.800413 243.802284 
L 358.494628 242.992225 
L 360.188843 242.186382 
L 361.883058 241.384684 
L 363.577273 240.587063 
L 365.271488 239.793455 
L 366.965702 239.003793 
L 368.659917 238.218016 
L 370.354132 237.436062 
L 372.048347 236.657873 
L 373.742562 235.883391 
L 375.436777 235.112559 
L 377.130992 234.345322 
L 378.825207 233.581627 
L 380.519421 232.821422 
L 382.213636 232.064656 
" clip-path="url(#p65877c43cd)" style="fill: none; stroke: #1a3a5c; stroke-width: 2.2; stroke-linecap: square"/>
   </g>
   <g id="patch_18">
    <path d="M 206.1 363.6 
L 206.1 225.801068 
" style="fill: none; stroke: #bbbbbb; stroke-width: 0.8; stroke-linejoin: miter; stroke-linecap: square"/>
   </g>
   <g id="patch_19">
    <path d="M 206.1 363.6 
L 390.6 363.6 
" style="fill: none; stroke: #bbbbbb; stroke-width: 0.8; stroke-linejoin: miter; stroke-linecap: square"/>
   </g>
   <g id="text_6">
    <!-- Степенная -->
    <g style="fill: #1a3a5c" transform="translate(266.536641 219.801068) scale(0.105 -0.105)">
     <defs>
      <path id="DejaVuSans-Bold-421" d="M 4288 256 
Q 3956 84 3597 -3 
Q 3238 -91 2847 -91 
Q 1681 -91 1000 561 
Q 319 1213 319 2328 
Q 319 3447 1000 4098 
Q 1681 4750 2847 4750 
Q 3238 4750 3597 4662 
Q 3956 4575 4288 4403 
L 4288 3438 
Q 3953 3666 3628 3772 
Q 3303 3878 2944 3878 
Q 2300 3878 1931 3465 
Q 1563 3053 1563 2328 
Q 1563 1606 1931 1193 
Q 2300 781 2944 781 
Q 3303 781 3628 887 
Q 3953 994 4288 1222 
L 4288 256 
z
" transform="scale(0.015625)"/>
     </defs>
     <use xlink:href="#DejaVuSans-Bold-421"/>
     <use xlink:href="#DejaVuSans-Bold-442" transform="translate(73.388672 0)"/>
     <use xlink:href="#DejaVuSans-Bold-435" transform="translate(131.347656 0)"/>
     <use xlink:href="#DejaVuSans-Bold-43f" transform="translate(199.169922 0)"/>
     <use xlink:href="#DejaVuSans-Bold-435" transform="translate(268.261719 0)"/>
     <use xlink:href="#DejaVuSans-Bold-43d" transform="translate(336.083984 0)"/>
     <use xlink:href="#DejaVuSans-Bold-43d" transform="translate(405.175781 0)"/>
     <use xlink:href="#DejaVuSans-Bold-430" transform="translate(474.267578 0)"/>
     <use xlink:href="#DejaVuSans-Bold-44f" transform="translate(541.748047 0)"/>
    </g>
   </g>
  </g>
  <g id="axes_7">
   <g id="patch_20">
    <path d="M 401.4 363.6 
L 585.9 363.6 
L 585.9 225.801068 
L 401.4 225.801068 
z
" style="fill: #ffffff"/>
   </g>
   <g id="matplotlib.axis_13"/>
   <g id="matplotlib.axis_14"/>
   <g id="line2d_7">
    <path d="M 409.786364 294.700534 
L 413.152128 270.445757 
L 414.835011 259.568664 
L 416.517893 250.115157 
L 417.639815 244.781099 
L 418.761736 240.319126 
L 419.883658 236.789565 
L 421.005579 234.230697 
L 421.56654 233.321036 
L 422.127501 232.65811 
L 422.688462 232.240314 
L 423.249422 232.064656 
L 423.810383 232.126782 
L 424.371344 232.421021 
L 424.932305 232.940435 
L 425.493265 233.676874 
L 426.615187 235.762568 
L 427.737109 238.591352 
L 428.85903 242.062008 
L 430.541912 248.222692 
L 432.785756 257.572888 
L 436.712481 274.273878 
L 438.395363 280.588792 
L 440.078246 285.978805 
L 441.200167 288.965937 
L 442.322089 291.430862 
L 443.44401 293.363612 
L 444.565932 294.773634 
L 445.687853 295.689069 
L 446.809775 296.155481 
L 447.931697 296.234071 
L 449.053618 295.999419 
L 450.17554 295.536848 
L 454.663226 293.318129 
L 455.785147 293.15416 
L 456.907069 293.323193 
L 458.028991 293.8967 
L 459.150912 294.932164 
L 460.272834 296.470942 
L 461.394755 298.536601 
L 462.516677 301.133778 
L 463.638598 304.247608 
L 465.321481 309.806714 
L 467.004363 316.252039 
L 469.809167 328.171579 
L 472.613971 340.064526 
L 474.296853 346.384102 
L 475.418775 349.997997 
L 476.540696 352.99724 
L 477.662618 355.277453 
L 478.223579 356.118987 
L 478.784539 356.748005 
L 479.3455 357.155776 
L 479.906461 357.334748 
L 480.467422 357.278609 
L 481.028382 356.982343 
L 481.589343 356.44227 
L 482.150304 355.656089 
L 482.711265 354.622899 
L 483.833186 351.819005 
L 484.955108 348.051876 
L 486.077029 343.365387 
L 487.198951 337.825207 
L 488.881833 328.107675 
L 490.564716 317.033248 
L 493.36952 296.778337 
L 496.735284 272.367821 
L 498.418167 261.293393 
L 500.101049 251.575861 
L 501.222971 246.035681 
L 502.344892 241.349193 
L 503.466814 237.582063 
L 504.588735 234.778169 
L 505.149696 233.744979 
L 505.710657 232.958798 
L 506.271618 232.418726 
L 506.832578 232.122459 
L 507.393539 232.06632 
L 507.9545 232.245292 
L 508.515461 232.653063 
L 509.076421 233.282081 
L 509.637382 234.123615 
L 510.759304 236.403828 
L 511.881225 239.403071 
L 513.003147 243.016966 
L 514.686029 249.336542 
L 516.929872 258.788522 
L 520.856598 275.380275 
L 522.53948 281.557339 
L 524.222362 286.773262 
L 525.344284 289.63185 
L 526.466206 291.9639 
L 527.588127 293.764336 
L 528.710049 295.047366 
L 529.83197 295.845628 
L 530.953892 296.208784 
L 532.075813 296.201603 
L 533.197735 295.901616 
L 534.880617 295.096147 
L 537.685421 293.610117 
L 538.807343 293.250282 
L 539.929264 293.162191 
L 541.051186 293.426148 
L 542.173107 294.110352 
L 543.295029 295.268437 
L 544.41695 296.93745 
L 545.538872 299.13631 
L 546.660794 301.864811 
L 547.782715 305.103188 
L 549.465597 310.825962 
L 551.14848 317.393892 
L 554.514244 331.82818 
L 556.758088 341.178376 
L 558.44097 347.33906 
L 559.562891 350.809716 
L 560.684813 353.6385 
L 561.806735 355.724194 
L 562.367695 356.460633 
L 562.928656 356.980047 
L 563.489617 357.274286 
L 564.050578 357.336412 
L 564.611538 357.160754 
L 565.172499 356.742959 
L 565.73346 356.080032 
L 566.294421 355.170371 
L 567.416342 352.611503 
L 568.538264 349.081943 
L 569.660185 344.619969 
L 570.782107 339.285911 
L 572.464989 329.832404 
L 574.147872 318.955311 
L 576.952676 298.853742 
L 577.513636 294.700534 
L 577.513636 294.700534 
" clip-path="url(#p4506998bef)" style="fill: none; stroke: #1a3a5c; stroke-width: 2.2; stroke-linecap: square"/>
   </g>
   <g id="patch_21">
    <path d="M 401.4 363.6 
L 401.4 225.801068 
" style="fill: none; stroke: #bbbbbb; stroke-width: 0.8; stroke-linejoin: miter; stroke-linecap: square"/>
   </g>
   <g id="patch_22">
    <path d="M 401.4 363.6 
L 585.9 363.6 
" style="fill: none; stroke: #bbbbbb; stroke-width: 0.8; stroke-linejoin: miter; stroke-linecap: square"/>
   </g>
   <g id="text_7">
    <!-- Ряд Фурье -->
    <g style="fill: #1a3a5c" transform="translate(461.095898 219.801068) scale(0.105 -0.105)">
     <defs>
      <path id="DejaVuSans-Bold-420" d="M 588 4666 
L 2584 4666 
Q 3475 4666 3951 4270 
Q 4428 3875 4428 3144 
Q 4428 2409 3951 2014 
Q 3475 1619 2584 1619 
L 1791 1619 
L 1791 0 
L 588 0 
L 588 4666 
z
M 1791 3794 
L 1791 2491 
L 2456 2491 
Q 2806 2491 2997 2661 
Q 3188 2831 3188 3144 
Q 3188 3456 2997 3625 
Q 2806 3794 2456 3794 
L 1791 3794 
z
" transform="scale(0.015625)"/>
      <path id="DejaVuSans-Bold-424" d="M 1563 2378 
Q 1563 1909 1805 1700 
Q 2047 1491 2572 1447 
L 2572 3313 
Q 2047 3269 1805 3058 
Q 1563 2847 1563 2378 
z
M 4784 2378 
Q 4784 2847 4542 3058 
Q 4300 3269 3775 3313 
L 3775 1447 
Q 4300 1491 4542 1700 
Q 4784 1909 4784 2378 
z
M 2572 4666 
L 3775 4666 
L 3775 4203 
Q 4922 4109 5473 3681 
Q 6025 3253 6025 2378 
Q 6025 1503 5473 1076 
Q 4922 650 3775 556 
L 3775 0 
L 2572 0 
L 2572 556 
Q 1425 650 872 1076 
Q 319 1503 319 2378 
Q 319 3253 872 3681 
Q 1425 4109 2572 4203 
L 2572 4666 
z
" transform="scale(0.015625)"/>
      <path id="DejaVuSans-Bold-443" d="M 78 3500 
L 1197 3500 
L 2138 1125 
L 2938 3500 
L 4056 3500 
L 2584 -331 
Q 2363 -916 2067 -1148 
Q 1772 -1381 1288 -1381 
L 641 -1381 
L 641 -647 
L 991 -647 
Q 1275 -647 1404 -556 
Q 1534 -466 1606 -231 
L 1638 -134 
L 78 3500 
z
" transform="scale(0.015625)"/>
     </defs>
     <use xlink:href="#DejaVuSans-Bold-420"/>
     <use xlink:href="#DejaVuSans-Bold-44f" transform="translate(73.291016 0)"/>
     <use xlink:href="#DejaVuSans-Bold-434" transform="translate(137.5 0)"/>
     <use xlink:href="#DejaVuSans-Bold-20" transform="translate(218.261719 0)"/>
     <use xlink:href="#DejaVuSans-Bold-424" transform="translate(253.076172 0)"/>
     <use xlink:href="#DejaVuSans-Bold-443" transform="translate(352.246094 0)"/>
     <use xlink:href="#DejaVuSans-Bold-440" transform="translate(417.431641 0)"/>
     <use xlink:href="#DejaVuSans-Bold-44c" transform="translate(489.013672 0)"/>
     <use xlink:href="#DejaVuSans-Bold-435" transform="translate(552.246094 0)"/>
    </g>
   </g>
  </g>
  <g id="axes_8"/>
  <g id="text_8">
   <!-- Типовые функции тренда (форма) -->
   <g style="fill: #1a3a5c" transform="translate(265.186484 13.621969) scale(0.13 -0.13)">
    <defs>
     <path id="DejaVuSans-Bold-422" d="M 31 4666 
L 4331 4666 
L 4331 3756 
L 2784 3756 
L 2784 0 
L 1581 0 
L 1581 3756 
L 31 3756 
L 31 4666 
z
" transform="scale(0.015625)"/>
     <path id="DejaVuSans-Bold-432" d="M 2184 2181 
Q 2378 2181 2478 2261 
Q 2578 2341 2578 2497 
Q 2578 2653 2478 2731 
Q 2378 2809 2184 2809 
L 1656 2809 
L 1656 2181 
L 2184 2181 
z
M 2222 700 
Q 2469 700 2594 798 
Q 2719 897 2719 1094 
Q 2719 1288 2594 1384 
Q 2469 1481 2222 1481 
L 1656 1481 
L 1656 700 
L 2222 700 
z
M 538 3500 
L 2141 3500 
Q 2919 3500 3267 3279 
Q 3616 3059 3616 2575 
Q 3616 2319 3487 2139 
Q 3359 1959 3119 1872 
Q 3428 1788 3598 1561 
Q 3769 1334 3769 1003 
Q 3769 497 3403 248 
Q 3038 0 2294 0 
L 538 0 
L 538 3500 
z
" transform="scale(0.015625)"/>
     <path id="DejaVuSans-Bold-44b" d="M 4150 3500 
L 5269 3500 
L 5269 0 
L 4150 0 
L 4150 3500 
z
M 2719 1094 
Q 2719 1291 2594 1388 
Q 2472 1481 2222 1481 
L 1656 1481 
L 1656 700 
L 2222 700 
Q 2469 700 2594 800 
Q 2719 897 2719 1094 
z
M 538 3500 
L 1656 3500 
L 1656 2172 
L 2291 2172 
Q 3000 2172 3381 1913 
Q 3766 1650 3766 1081 
Q 3766 513 3381 256 
Q 3000 0 2291 0 
L 538 0 
L 538 3500 
z
" transform="scale(0.015625)"/>
     <path id="DejaVuSans-Bold-444" d="M 2091 2772 
Q 1888 2772 1698 2509 
Q 1509 2247 1509 1747 
Q 1509 1247 1698 984 
Q 1888 722 2091 722 
Q 2425 722 2616 953 
L 2616 2541 
Q 2425 2772 2091 2772 
z
M 2616 4863 
L 3734 4863 
L 3734 3356 
Q 4066 3584 4519 3584 
Q 5166 3584 5581 3070 
Q 5997 2556 5997 1747 
Q 5997 938 5581 423 
Q 5166 -91 4519 -91 
Q 4066 -91 3734 138 
L 3734 -1331 
L 2616 -1331 
L 2616 138 
Q 2284 -91 1831 -91 
Q 1184 -91 768 423 
Q 353 938 353 1747 
Q 353 2556 768 3070 
Q 1184 3584 1831 3584 
Q 2284 3584 2616 3356 
L 2616 4863 
z
M 4259 2772 
Q 3925 2772 3734 2541 
L 3734 953 
Q 3925 722 4259 722 
Q 4463 722 4652 984 
Q 4841 1247 4841 1747 
Q 4841 2247 4652 2509 
Q 4463 2772 4259 2772 
z
" transform="scale(0.015625)"/>
     <path id="DejaVuSans-Bold-446" d="M 3666 -884 
L 3666 0 
L 538 0 
L 538 3500 
L 1656 3500 
L 1656 800 
L 2766 800 
L 2766 3500 
L 3884 3500 
L 3884 800 
L 4466 800 
L 4466 -884 
L 3666 -884 
z
" transform="scale(0.015625)"/>
     <path id="DejaVuSans-Bold-28" d="M 2413 -844 
L 1484 -844 
Q 1006 -72 778 623 
Q 550 1319 550 2003 
Q 550 2688 779 3389 
Q 1009 4091 1484 4856 
L 2413 4856 
Q 2013 4116 1813 3408 
Q 1613 2700 1613 2009 
Q 1613 1319 1811 609 
Q 2009 -100 2413 -844 
z
" transform="scale(0.015625)"/>
     <path id="DejaVuSans-Bold-29" d="M 513 -844 
Q 913 -100 1113 609 
Q 1313 1319 1313 2009 
Q 1313 2700 1113 3408 
Q 913 4116 513 4856 
L 1441 4856 
Q 1916 4091 2145 3389 
Q 2375 2688 2375 2003 
Q 2375 1319 2147 623 
Q 1919 -72 1441 -844 
L 513 -844 
z
" transform="scale(0.015625)"/>
    </defs>
    <use xlink:href="#DejaVuSans-Bold-422"/>
    <use xlink:href="#DejaVuSans-Bold-438" transform="translate(68.212891 0)"/>
    <use xlink:href="#DejaVuSans-Bold-43f" transform="translate(138.28125 0)"/>
    <use xlink:href="#DejaVuSans-Bold-43e" transform="translate(207.373047 0)"/>
    <use xlink:href="#DejaVuSans-Bold-432" transform="translate(276.074219 0)"/>
    <use xlink:href="#DejaVuSans-Bold-44b" transform="translate(339.355469 0)"/>
    <use xlink:href="#DejaVuSans-Bold-435" transform="translate(429.785156 0)"/>
    <use xlink:href="#DejaVuSans-Bold-20" transform="translate(497.607422 0)"/>
    <use xlink:href="#DejaVuSans-Bold-444" transform="translate(532.421875 0)"/>
    <use xlink:href="#DejaVuSans-Bold-443" transform="translate(631.640625 0)"/>
    <use xlink:href="#DejaVuSans-Bold-43d" transform="translate(696.826172 0)"/>
    <use xlink:href="#DejaVuSans-Bold-43a" transform="translate(765.917969 0)"/>
    <use xlink:href="#DejaVuSans-Bold-446" transform="translate(833.789062 0)"/>
    <use xlink:href="#DejaVuSans-Bold-438" transform="translate(907.910156 0)"/>
    <use xlink:href="#DejaVuSans-Bold-438" transform="translate(977.978516 0)"/>
    <use xlink:href="#DejaVuSans-Bold-20" transform="translate(1048.046875 0)"/>
    <use xlink:href="#DejaVuSans-Bold-442" transform="translate(1082.861328 0)"/>
    <use xlink:href="#DejaVuSans-Bold-440" transform="translate(1140.820312 0)"/>
    <use xlink:href="#DejaVuSans-Bold-435" transform="translate(1212.402344 0)"/>
    <use xlink:href="#DejaVuSans-Bold-43d" transform="translate(1280.224609 0)"/>
    <use xlink:href="#DejaVuSans-Bold-434" transform="translate(1349.316406 0)"/>
    <use xlink:href="#DejaVuSans-Bold-430" transform="translate(1430.078125 0)"/>
    <use xlink:href="#DejaVuSans-Bold-20" transform="translate(1497.558594 0)"/>
    <use xlink:href="#DejaVuSans-Bold-28" transform="translate(1532.373047 0)"/>
    <use xlink:href="#DejaVuSans-Bold-444" transform="translate(1578.076172 0)"/>
    <use xlink:href="#DejaVuSans-Bold-43e" transform="translate(1677.294922 0)"/>
    <use xlink:href="#DejaVuSans-Bold-440" transform="translate(1745.996094 0)"/>
    <use xlink:href="#DejaVuSans-Bold-43c" transform="translate(1817.578125 0)"/>
    <use xlink:href="#DejaVuSans-Bold-430" transform="translate(1899.316406 0)"/>
    <use xlink:href="#DejaVuSans-Bold-29" transform="translate(1966.796875 0)"/>
   </g>
  </g>
 </g>
 <defs>
  <clipPath id="pe93ddaed18">
   <rect x="10.8" y="63.347591" width="184.5" height="137.798932"/>
  </clipPath>
  <clipPath id="p822c3d40d0">
   <rect x="206.1" y="63.347591" width="184.5" height="137.798932"/>
  </clipPath>
  <clipPath id="p6b0e9e2f3b">
   <rect x="401.4" y="63.347591" width="184.5" height="137.798932"/>
  </clipPath>
  <clipPath id="p0be90455f8">
   <rect x="596.7" y="63.347591" width="184.5" height="137.798932"/>
  </clipPath>
  <clipPath id="pa747d4cda2">
   <rect x="10.8" y="225.801068" width="184.5" height="137.798932"/>
  </clipPath>
  <clipPath id="p65877c43cd">
   <rect x="206.1" y="225.801068" width="184.5" height="137.798932"/>
  </clipPath>
  <clipPath id="p4506998bef">
   <rect x="401.4" y="225.801068" width="184.5" height="137.798932"/>
  </clipPath>
 </defs>
</svg>
