<?xml version="1.0" encoding="utf-8" standalone="no"?>
<!DOCTYPE svg PUBLIC "-//W3C//DTD SVG 1.1//EN"
  "http://www.w3.org/Graphics/SVG/1.1/DTD/svg11.dtd">
<svg xmlns:xlink="http://www.w3.org/1999/xlink" width="352.8pt" height="330.24pt" viewBox="0 0 352.8 330.24" xmlns="http://www.w3.org/2000/svg" version="1.1">
 <metadata>
  <rdf:RDF xmlns:dc="http://purl.org/dc/elements/1.1/" xmlns:cc="http://creativecommons.org/ns#" xmlns:rdf="http://www.w3.org/1999/02/22-rdf-syntax-ns#">
   <cc:Work>
    <dc:type rdf:resource="http://purl.org/dc/dcmitype/StillImage"/>
    <dc:date>2026-07-11T17:43:50.628473</dc:date>
    <dc:format>image/svg+xml</dc:format>
    <dc:creator>
     <cc:Agent>
      <dc:title>Matplotlib v3.10.8, https://matplotlib.org/</dc:title>
     </cc:Agent>
    </dc:creator>
   </cc:Work>
  </rdf:RDF>
 </metadata>
 <defs>
  <style type="text/css">*{stroke-linejoin: round; stroke-linecap: butt}</style>
 </defs>
 <g id="figure_1">
  <g id="patch_1">
   <path d="M 0 330.24 
L 352.8 330.24 
L 352.8 0 
L 0 0 
z
" style="fill: #ffffff"/>
  </g>
  <g id="axes_1">
   <g id="line2d_1">
    <path d="M 176.4 63.6 
L 283.56 141.432 
" clip-path="url(#p79d982bd1c)" style="fill: none; stroke: #000000; stroke-width: 2; stroke-linecap: square"/>
   </g>
   <g id="line2d_2">
    <path d="M 283.56 141.432 
L 242.952 267.768 
" clip-path="url(#p79d982bd1c)" style="fill: none; stroke: #000000; stroke-width: 2; stroke-linecap: square"/>
   </g>
   <g id="line2d_3">
    <path d="M 242.952 267.768 
L 109.848 267.768 
" clip-path="url(#p79d982bd1c)" style="fill: none; stroke: #000000; stroke-width: 2; stroke-linecap: square"/>
   </g>
   <g id="line2d_4">
    <path d="M 109.848 267.768 
L 69.24 141.432 
" clip-path="url(#p79d982bd1c)" style="fill: none; stroke: #000000; stroke-width: 2; stroke-linecap: square"/>
   </g>
   <g id="line2d_5">
    <path d="M 69.24 141.432 
L 176.4 63.6 
" clip-path="url(#p79d982bd1c)" style="fill: none; stroke: #000000; stroke-width: 2; stroke-linecap: square"/>
   </g>
   <g id="line2d_6">
    <path d="M 69.24 141.432 
L 283.56 141.432 
" clip-path="url(#p79d982bd1c)" style="fill: none; stroke: #000000; stroke-width: 2; stroke-linecap: square"/>
   </g>
   <g id="line2d_7">
    <path d="M 176.4 63.6 
L 242.952 267.768 
" clip-path="url(#p79d982bd1c)" style="fill: none; stroke: #000000; stroke-width: 2; stroke-linecap: square"/>
   </g>
   <g id="line2d_8">
    <path d="M 176.4 63.6 
L 109.848 267.768 
" clip-path="url(#p79d982bd1c)" style="fill: none; stroke: #000000; stroke-width: 2; stroke-linecap: square"/>
   </g>
   <g id="patch_2">
    <path d="M 176.4 71.496 
C 178.494044 71.496 180.502603 70.664028 181.983315 69.183315 
C 183.464028 67.702603 184.296 65.694044 184.296 63.6 
C 184.296 61.505956 183.464028 59.497397 181.983315 58.016685 
C 180.502603 56.535972 178.494044 55.704 176.4 55.704 
C 174.305956 55.704 172.297397 56.535972 170.816685 58.016685 
C 169.335972 59.497397 168.504 61.505956 168.504 63.6 
C 168.504 65.694044 169.335972 67.702603 170.816685 69.183315 
C 172.297397 70.664028 174.305956 71.496 176.4 71.496 
z
" clip-path="url(#p79d982bd1c)" style="stroke: #000000; stroke-linejoin: miter"/>
   </g>
   <g id="patch_3">
    <path d="M 283.56 149.328 
C 285.654044 149.328 287.662603 148.496028 289.143315 147.015315 
C 290.624028 145.534603 291.456 143.526044 291.456 141.432 
C 291.456 139.337956 290.624028 137.329397 289.143315 135.848685 
C 287.662603 134.367972 285.654044 133.536 283.56 133.536 
C 281.465956 133.536 279.457397 134.367972 277.976685 135.848685 
C 276.495972 137.329397 275.664 139.337956 275.664 141.432 
C 275.664 143.526044 276.495972 145.534603 277.976685 147.015315 
C 279.457397 148.496028 281.465956 149.328 283.56 149.328 
z
" clip-path="url(#p79d982bd1c)" style="stroke: #000000; stroke-linejoin: miter"/>
   </g>
   <g id="patch_4">
    <path d="M 242.952 275.664 
C 245.046044 275.664 247.054603 274.832028 248.535315 273.351315 
C 250.016028 271.870603 250.848 269.862044 250.848 267.768 
C 250.848 265.673956 250.016028 263.665397 248.535315 262.184685 
C 247.054603 260.703972 245.046044 259.872 242.952 259.872 
C 240.857956 259.872 238.849397 260.703972 237.368685 262.184685 
C 235.887972 263.665397 235.056 265.673956 235.056 267.768 
C 235.056 269.862044 235.887972 271.870603 237.368685 273.351315 
C 238.849397 274.832028 240.857956 275.664 242.952 275.664 
z
" clip-path="url(#p79d982bd1c)" style="stroke: #000000; stroke-linejoin: miter"/>
   </g>
   <g id="patch_5">
    <path d="M 109.848 275.664 
C 111.942044 275.664 113.950603 274.832028 115.431315 273.351315 
C 116.912028 271.870603 117.744 269.862044 117.744 267.768 
C 117.744 265.673956 116.912028 263.665397 115.431315 262.184685 
C 113.950603 260.703972 111.942044 259.872 109.848 259.872 
C 107.753956 259.872 105.745397 260.703972 104.264685 262.184685 
C 102.783972 263.665397 101.952 265.673956 101.952 267.768 
C 101.952 269.862044 102.783972 271.870603 104.264685 273.351315 
C 105.745397 274.832028 107.753956 275.664 109.848 275.664 
z
" clip-path="url(#p79d982bd1c)" style="stroke: #000000; stroke-linejoin: miter"/>
   </g>
   <g id="patch_6">
    <path d="M 69.24 149.328 
C 71.334044 149.328 73.342603 148.496028 74.823315 147.015315 
C 76.304028 145.534603 77.136 143.526044 77.136 141.432 
C 77.136 139.337956 76.304028 137.329397 74.823315 135.848685 
C 73.342603 134.367972 71.334044 133.536 69.24 133.536 
C 67.145956 133.536 65.137397 134.367972 63.656685 135.848685 
C 62.175972 137.329397 61.344 139.337956 61.344 141.432 
C 61.344 143.526044 62.175972 145.534603 63.656685 147.015315 
C 65.137397 148.496028 67.145956 149.328 69.24 149.328 
z
" clip-path="url(#p79d982bd1c)" style="stroke: #000000; stroke-linejoin: miter"/>
   </g>
   <g id="text_1">
    <!-- $v_1$ -->
    <g transform="translate(167.84 43.199) scale(0.16 -0.16)">
     <defs>
      <path id="DejaVuSans-Oblique-76" d="M 459 3500 
L 1069 3500 
L 1581 525 
L 3256 3500 
L 3866 3500 
L 1875 0 
L 1100 0 
L 459 3500 
z
" transform="scale(0.015625)"/>
      <path id="DejaVuSans-31" d="M 794 531 
L 1825 531 
L 1825 4091 
L 703 3866 
L 703 4441 
L 1819 4666 
L 2450 4666 
L 2450 531 
L 3481 531 
L 3481 0 
L 794 0 
L 794 531 
z
" transform="scale(0.015625)"/>
     </defs>
     <use xlink:href="#DejaVuSans-Oblique-76" transform="translate(0 0.3125)"/>
     <use xlink:href="#DejaVuSans-31" transform="translate(59.179688 -16.09375) scale(0.7)"/>
    </g>
   </g>
   <g id="text_2">
    <!-- $v_2$ -->
    <g transform="translate(298.5752 138.15404) scale(0.16 -0.16)">
     <defs>
      <path id="DejaVuSans-32" d="M 1228 531 
L 3431 531 
L 3431 0 
L 469 0 
L 469 531 
Q 828 903 1448 1529 
Q 2069 2156 2228 2338 
Q 2531 2678 2651 2914 
Q 2772 3150 2772 3378 
Q 2772 3750 2511 3984 
Q 2250 4219 1831 4219 
Q 1534 4219 1204 4116 
Q 875 4013 500 3803 
L 500 4441 
Q 881 4594 1212 4672 
Q 1544 4750 1819 4750 
Q 2544 4750 2975 4387 
Q 3406 4025 3406 3419 
Q 3406 3131 3298 2873 
Q 3191 2616 2906 2266 
Q 2828 2175 2409 1742 
Q 1991 1309 1228 531 
z
" transform="scale(0.015625)"/>
     </defs>
     <use xlink:href="#DejaVuSans-Oblique-76" transform="translate(0 0.3125)"/>
     <use xlink:href="#DejaVuSans-32" transform="translate(59.179688 -16.09375) scale(0.7)"/>
    </g>
   </g>
   <g id="text_3">
    <!-- $v_3$ -->
    <g transform="translate(249.03344 292.28396) scale(0.16 -0.16)">
     <defs>
      <path id="DejaVuSans-33" d="M 2597 2516 
Q 3050 2419 3304 2112 
Q 3559 1806 3559 1356 
Q 3559 666 3084 287 
Q 2609 -91 1734 -91 
Q 1441 -91 1130 -33 
Q 819 25 488 141 
L 488 750 
Q 750 597 1062 519 
Q 1375 441 1716 441 
Q 2309 441 2620 675 
Q 2931 909 2931 1356 
Q 2931 1769 2642 2001 
Q 2353 2234 1838 2234 
L 1294 2234 
L 1294 2753 
L 1863 2753 
Q 2328 2753 2575 2939 
Q 2822 3125 2822 3475 
Q 2822 3834 2567 4026 
Q 2313 4219 1838 4219 
Q 1578 4219 1281 4162 
Q 984 4106 628 3988 
L 628 4550 
Q 988 4650 1302 4700 
Q 1616 4750 1894 4750 
Q 2613 4750 3031 4423 
Q 3450 4097 3450 3541 
Q 3450 3153 3228 2886 
Q 3006 2619 2597 2516 
z
" transform="scale(0.015625)"/>
     </defs>
     <use xlink:href="#DejaVuSans-Oblique-76" transform="translate(0 0.3125)"/>
     <use xlink:href="#DejaVuSans-33" transform="translate(59.179688 -16.09375) scale(0.7)"/>
    </g>
   </g>
   <g id="text_4">
    <!-- $v_4$ -->
    <g transform="translate(86.64656 292.28396) scale(0.16 -0.16)">
     <defs>
      <path id="DejaVuSans-34" d="M 2419 4116 
L 825 1625 
L 2419 1625 
L 2419 4116 
z
M 2253 4666 
L 3047 4666 
L 3047 1625 
L 3713 1625 
L 3713 1100 
L 3047 1100 
L 3047 0 
L 2419 0 
L 2419 1100 
L 313 1100 
L 313 1709 
L 2253 4666 
z
" transform="scale(0.015625)"/>
     </defs>
     <use xlink:href="#DejaVuSans-Oblique-76" transform="translate(0 0.3125)"/>
     <use xlink:href="#DejaVuSans-34" transform="translate(59.179688 -16.09375) scale(0.7)"/>
    </g>
   </g>
   <g id="text_5">
    <!-- $v_5$ -->
    <g transform="translate(37.1048 138.15404) scale(0.16 -0.16)">
     <defs>
      <path id="DejaVuSans-35" d="M 691 4666 
L 3169 4666 
L 3169 4134 
L 1269 4134 
L 1269 2991 
Q 1406 3038 1543 3061 
Q 1681 3084 1819 3084 
Q 2600 3084 3056 2656 
Q 3513 2228 3513 1497 
Q 3513 744 3044 326 
Q 2575 -91 1722 -91 
Q 1428 -91 1123 -41 
Q 819 9 494 109 
L 494 744 
Q 775 591 1075 516 
Q 1375 441 1709 441 
Q 2250 441 2565 725 
Q 2881 1009 2881 1497 
Q 2881 1984 2565 2268 
Q 2250 2553 1709 2553 
Q 1456 2553 1204 2497 
Q 953 2441 691 2322 
L 691 4666 
z
" transform="scale(0.015625)"/>
     </defs>
     <use xlink:href="#DejaVuSans-Oblique-76" transform="translate(0 0.3125)"/>
     <use xlink:href="#DejaVuSans-35" transform="translate(59.179688 -16.09375) scale(0.7)"/>
    </g>
   </g>
  </g>
 </g>
 <defs>
  <clipPath id="p79d982bd1c">
   <rect x="7.2" y="7.2" width="338.4" height="315.84"/>
  </clipPath>
 </defs>
</svg>
