<svg xmlns="http://www.w3.org/2000/svg" width="820" height="500" viewBox="0 0 820 500" font-family="-apple-system,Segoe UI,Helvetica,Arial,sans-serif">
  <rect width="820" height="500" fill="#ffffff"/>
  <defs><marker id="ax" viewBox="0 0 10 10" refX="9" refY="5" markerWidth="9" markerHeight="9" orient="auto"><path d="M0,0 L10,5 L0,10 z" fill="#111"/></marker></defs>
  <line x1="120" y1="95" x2="120" y2="410" stroke="#111" stroke-width="2"/>
  <line x1="120" y1="410" x2="800" y2="410" stroke="#111" stroke-width="2" marker-end="url(#ax)"/>
  <text x="106" y="108" font-size="22" font-style="italic" fill="#111" text-anchor="end">μ</text>
  <text x="106" y="117.0" font-size="20" fill="#111" text-anchor="end">1</text>
  <text x="106" y="267.0" font-size="20" fill="#111" text-anchor="end">0,5</text>
  <text x="106" y="417.0" font-size="20" fill="#111" text-anchor="end">0</text>
  <text x="790.0" y="448" font-size="22" font-style="italic" fill="#111" text-anchor="middle">u</text>
  <line x1="120" y1="260.0" x2="504.0" y2="260.0" stroke="#999" stroke-width="1.2" stroke-dasharray="5 4"/>
  <line x1="248.0" y1="410.0" x2="248.0" y2="410" stroke="#999" stroke-width="1.2" stroke-dasharray="5 4"/>
  <line x1="504.0" y1="260.0" x2="504.0" y2="410" stroke="#999" stroke-width="1.2" stroke-dasharray="5 4"/>
  <line x1="760.0" y1="110.0" x2="760.0" y2="410" stroke="#999" stroke-width="1.2" stroke-dasharray="5 4"/>
  <text x="248.0" y="440" font-size="20" fill="#111" text-anchor="middle">a</text>
  <text x="504.0" y="440" font-size="18" fill="#111" text-anchor="middle">(a+1)/2</text>
  <text x="760.0" y="440" font-size="20" fill="#111" text-anchor="middle">1</text>
  <polyline points="120.0,410.0 123.2,410.0 126.4,410.0 129.6,410.0 132.8,410.0 136.0,410.0 139.2,410.0 142.4,410.0 145.6,410.0 148.8,410.0 152.0,410.0 155.2,410.0 158.4,410.0 161.6,410.0 164.8,410.0 168.0,410.0 171.2,410.0 174.4,410.0 177.6,410.0 180.8,410.0 184.0,410.0 187.2,410.0 190.4,410.0 193.6,410.0 196.8,410.0 200.0,410.0 203.2,410.0 206.4,410.0 209.6,410.0 212.8,410.0 216.0,410.0 219.2,410.0 222.4,410.0 225.6,410.0 228.8,410.0 232.0,410.0 235.2,410.0 238.4,410.0 241.6,410.0 244.8,410.0 248.0,410.0 251.2,410.0 254.4,409.9 257.6,409.8 260.8,409.6 264.0,409.4 267.2,409.2 270.4,408.9 273.6,408.5 276.8,408.1 280.0,407.7 283.2,407.2 286.4,406.6 289.6,406.0 292.8,405.4 296.0,404.7 299.2,404.0 302.4,403.2 305.6,402.4 308.8,401.5 312.0,400.6 315.2,399.7 318.4,398.7 321.6,397.6 324.8,396.5 328.0,395.4 331.2,394.2 334.4,392.9 337.6,391.6 340.8,390.3 344.0,388.9 347.2,387.5 350.4,386.0 353.6,384.5 356.8,382.9 360.0,381.3 363.2,379.6 366.4,377.9 369.6,376.2 372.8,374.4 376.0,372.5 379.2,370.6 382.4,368.7 385.6,366.7 388.8,364.6 392.0,362.5 395.2,360.4 398.4,358.2 401.6,356.0 404.8,353.7 408.0,351.4 411.2,349.0 414.4,346.6 417.6,344.2 420.8,341.7 424.0,339.1 427.2,336.5 430.4,333.9 433.6,331.2 436.8,328.4 440.0,325.6 443.2,322.8 446.4,319.9 449.6,317.0 452.8,314.0 456.0,311.0 459.2,307.9 462.4,304.8 465.6,301.6 468.8,298.4 472.0,295.2 475.2,291.9 478.4,288.5 481.6,285.1 484.8,281.7 488.0,278.2 491.2,274.6 494.4,271.0 497.6,267.4 500.8,263.7 504.0,260.0 507.2,256.3 510.4,252.6 513.6,249.0 516.8,245.4 520.0,241.8 523.2,238.3 526.4,234.9 529.6,231.5 532.8,228.1 536.0,224.8 539.2,221.6 542.4,218.4 545.6,215.2 548.8,212.1 552.0,209.0 555.2,206.0 558.4,203.0 561.6,200.1 564.8,197.2 568.0,194.4 571.2,191.6 574.4,188.8 577.6,186.1 580.8,183.5 584.0,180.9 587.2,178.3 590.4,175.8 593.6,173.4 596.8,171.0 600.0,168.6 603.2,166.3 606.4,164.0 609.6,161.8 612.8,159.6 616.0,157.5 619.2,155.4 622.4,153.3 625.6,151.3 628.8,149.4 632.0,147.5 635.2,145.6 638.4,143.8 641.6,142.1 644.8,140.4 648.0,138.7 651.2,137.1 654.4,135.5 657.6,134.0 660.8,132.5 664.0,131.1 667.2,129.7 670.4,128.4 673.6,127.1 676.8,125.8 680.0,124.6 683.2,123.5 686.4,122.4 689.6,121.3 692.8,120.3 696.0,119.4 699.2,118.5 702.4,117.6 705.6,116.8 708.8,116.0 712.0,115.3 715.2,114.6 718.4,114.0 721.6,113.4 724.8,112.8 728.0,112.3 731.2,111.9 734.4,111.5 737.6,111.1 740.8,110.8 744.0,110.6 747.2,110.4 750.4,110.2 753.6,110.1 756.8,110.0 760.0,110.0" fill="none" stroke="#2f6fb0" stroke-width="4"/>
</svg>
